{"glyphs":{"0":{"ha":1356,"x_min":7,"x_max":1350,"o":"m 780 823 q 735 760 763 813 q 666 665 696 665 l 449 665 q 441 659 443 665 l 441 483 q 449 477 441 477 l 568 477 q 581 463 581 469 l 581 461 q 441 199 450 226 l 441 73 q 449 66 441 66 l 584 66 q 622 119 593 68 q 688 224 667 224 l 908 224 q 915 230 915 224 l 915 407 q 908 413 915 413 l 789 413 q 780 426 789 426 q 915 691 897 643 l 915 817 q 908 823 915 823 l 780 823 m 1153 920 q 1350 444 1350 722 q 1152 -29 1350 168 q 678 -227 954 -227 q 207 -29 402 -227 q 7 444 12 168 q 204 918 7 719 q 678 1116 402 1116 q 1153 920 956 1116 m 679 1067 q 240 883 425 1067 q 56 444 56 699 q 243 6 61 189 q 679 -178 425 -178 q 1117 6 934 -178 q 1301 444 1301 189 q 1120 883 1301 701 q 679 1067 936 1067 z "},"1":{"ha":1356,"x_min":7,"x_max":1350,"o":"m 841 205 q 883 205 854 205 q 954 224 912 206 q 1035 275 999 243 q 1093 348 1072 307 q 1114 440 1114 389 q 1011 626 1114 557 q 812 685 924 685 q 777 684 806 685 q 704 665 747 684 q 635 610 660 646 q 659 612 648 612 q 700 606 680 612 q 729 575 729 595 q 722 564 729 568 q 691 555 708 555 q 626 566 669 555 q 480 587 548 587 q 314 520 324 587 q 372 533 351 533 q 388 532 374 533 q 401 519 401 532 q 388 504 401 511 q 333 482 355 486 q 304 473 319 479 q 243 390 243 446 q 388 427 300 427 q 460 417 420 427 q 523 368 501 408 q 471 349 490 363 q 451 326 452 334 q 549 304 503 323 q 639 264 596 286 q 719 227 679 243 q 841 205 774 205 m 1153 920 q 1350 444 1350 722 q 1152 -29 1350 168 q 678 -227 954 -227 q 207 -29 402 -227 q 7 444 12 168 q 204 918 7 719 q 678 1116 402 1116 q 1153 920 956 1116 m 679 1067 q 240 883 425 1067 q 56 444 56 699 q 243 6 61 189 q 679 -178 425 -178 q 1117 6 934 -178 q 1301 444 1301 189 q 1120 883 1301 701 q 679 1067 936 1067 z "},"2":{"ha":1356,"x_min":7,"x_max":1350,"o":"m 517 631 q 559 606 543 625 q 578 555 578 585 q 565 510 578 529 q 532 481 553 490 q 448 473 511 473 l 391 473 l 391 635 l 441 635 q 517 631 498 635 m 669 467 q 686 555 686 503 q 654 667 686 623 q 580 722 625 709 q 454 731 551 731 l 285 731 l 285 160 l 391 160 l 391 375 l 460 375 q 568 384 532 375 q 624 410 597 390 q 669 467 651 431 m 1031 191 q 1075 290 1075 233 q 1044 371 1075 342 q 930 419 1012 400 q 838 450 851 439 q 828 470 828 458 q 838 492 828 484 q 896 505 856 505 q 944 492 927 505 q 966 454 961 479 l 1062 473 q 1009 555 1048 528 q 894 583 972 583 q 773 547 812 583 q 734 456 734 510 q 779 363 734 397 q 934 310 812 339 q 966 295 959 302 q 973 275 973 288 q 961 245 973 256 q 903 230 941 230 q 847 247 867 230 q 821 295 828 263 l 720 279 q 779 185 734 219 q 901 151 825 151 q 1031 191 987 151 m 1153 920 q 1350 444 1350 722 q 1152 -29 1350 168 q 678 -227 954 -227 q 207 -29 402 -227 q 7 444 12 168 q 204 918 7 719 q 678 1116 402 1116 q 1153 920 956 1116 m 679 1067 q 240 883 425 1067 q 56 444 56 699 q 243 6 61 189 q 679 -178 425 -178 q 1117 6 934 -178 q 1301 444 1301 189 q 1120 883 1301 701 q 679 1067 936 1067 z "},"3":{"ha":1356,"x_min":7,"x_max":1350,"o":"m 1027 130 q 1052 138 1040 130 q 1082 186 1082 157 l 1082 709 q 1076 732 1082 723 q 1027 766 1056 766 l 326 766 q 313 761 321 766 q 275 711 275 743 l 275 186 q 282 163 275 174 q 331 130 301 130 l 1027 130 m 680 494 q 484 650 488 646 l 874 650 l 680 494 m 967 247 l 391 247 l 391 574 l 680 345 l 967 574 l 967 247 m 1153 920 q 1350 444 1350 722 q 1152 -29 1350 168 q 678 -227 954 -227 q 207 -29 402 -227 q 7 444 12 168 q 204 918 7 719 q 678 1116 402 1116 q 1153 920 956 1116 m 679 1067 q 240 883 425 1067 q 56 444 56 699 q 243 6 61 189 q 679 -178 425 -178 q 1117 6 934 -178 q 1301 444 1301 189 q 1120 883 1301 701 q 679 1067 936 1067 z "},"4":{"ha":1356,"x_min":7,"x_max":1350,"o":"m 682 389 q 557 463 635 415 q 433 539 469 519 q 682 694 568 627 q 922 543 727 663 q 803 465 880 510 q 682 389 706 406 m 1013 472 q 930 543 930 539 q 972 575 932 543 q 1095 682 1049 635 q 856 838 981 753 l 848 838 q 765 767 819 811 q 682 696 706 720 q 513 838 604 755 l 501 838 q 265 682 487 828 q 346 608 290 650 q 431 539 408 560 q 261 402 282 420 q 386 322 305 378 q 509 243 466 269 q 595 317 535 264 q 682 385 648 362 q 856 243 831 260 q 1095 402 987 334 q 1013 472 1082 417 m 926 260 l 850 213 q 769 283 827 235 q 686 355 714 328 q 598 288 654 340 q 505 217 537 234 q 469 239 494 222 q 433 260 448 254 l 433 205 q 557 132 468 186 q 682 58 635 84 q 803 133 717 79 q 926 205 882 179 l 926 260 m 1153 920 q 1350 444 1350 722 q 1152 -29 1350 168 q 678 -227 954 -227 q 207 -29 402 -227 q 7 444 12 168 q 204 918 7 719 q 678 1116 402 1116 q 1153 920 956 1116 m 679 1067 q 240 883 425 1067 q 56 444 56 699 q 243 6 61 189 q 679 -178 425 -178 q 1117 6 934 -178 q 1301 444 1301 189 q 1120 883 1301 701 q 679 1067 936 1067 z "},"5":{"ha":1356,"x_min":7,"x_max":1350,"o":"m 779 672 q 701 650 708 663 l 701 282 q 708 275 705 275 l 1031 275 q 1136 368 1102 275 l 1136 404 l 1126 433 q 1031 498 1090 498 l 1015 498 q 981 492 1006 498 l 979 492 q 965 549 974 530 q 779 672 903 672 m 673 645 q 664 633 666 641 q 661 391 664 536 q 664 288 664 319 q 673 275 664 281 l 680 275 q 690 286 688 279 q 695 377 690 318 q 690 631 691 463 q 680 645 690 639 l 673 645 m 627 616 q 624 368 627 548 q 627 290 627 326 q 629 284 627 288 q 627 282 627 284 q 634 275 632 275 l 642 275 l 646 277 q 654 382 650 277 q 648 616 650 568 l 642 623 l 634 623 l 627 616 m 515 590 l 509 380 q 511 361 509 361 q 522 275 511 275 l 525 275 l 533 281 l 538 380 q 533 589 538 408 q 525 595 528 595 l 522 595 l 515 590 m 551 585 q 547 391 551 549 l 546 378 q 551 284 551 322 q 559 275 551 279 l 564 275 l 571 281 l 576 380 l 571 583 q 560 592 568 590 l 551 585 m 477 583 l 472 380 q 474 356 472 356 q 485 275 474 275 l 490 275 q 502 380 496 275 q 494 574 496 555 q 496 576 496 574 q 487 589 491 588 l 485 589 l 477 583 m 593 583 q 584 385 587 583 q 591 281 587 369 q 602 275 592 275 l 603 275 l 610 281 q 615 378 610 294 l 610 577 q 597 585 608 585 l 593 583 m 446 572 q 440 561 442 572 l 435 378 q 437 366 435 366 q 446 275 437 279 l 454 275 q 465 380 456 279 q 458 565 460 429 q 450 572 452 572 l 446 572 m 409 536 q 398 378 404 536 q 400 368 398 368 q 410 275 403 275 l 413 275 q 426 377 421 275 q 418 532 426 401 q 413 536 415 536 l 409 536 m 337 484 q 326 380 332 484 q 337 277 331 277 l 338 277 q 352 377 345 277 q 338 484 347 484 l 337 484 m 302 481 q 289 378 297 481 q 302 281 298 281 l 304 281 q 317 378 307 283 q 302 481 308 481 m 374 478 q 361 378 368 478 q 369 282 369 300 q 372 277 369 277 l 378 277 q 388 377 382 277 q 385 413 387 413 q 376 478 385 478 l 374 478 m 267 465 q 254 380 261 465 q 267 295 261 295 q 280 380 271 295 q 267 465 272 457 m 232 434 q 223 378 229 434 q 232 326 229 326 q 243 378 239 326 q 232 434 239 434 m 1153 920 q 1350 444 1350 722 q 1152 -29 1350 168 q 678 -227 954 -227 q 207 -29 402 -227 q 7 444 12 168 q 204 918 7 719 q 678 1116 402 1116 q 1153 920 956 1116 m 679 1067 q 240 883 425 1067 q 56 444 56 699 q 243 6 61 189 q 679 -178 425 -178 q 1117 6 934 -178 q 1301 444 1301 189 q 1120 883 1301 701 q 679 1067 936 1067 z "},"6":{"ha":1356,"x_min":7,"x_max":1350,"o":"m 673 174 q 573 189 615 174 q 494 241 530 204 q 462 303 462 269 q 477 341 462 329 q 513 354 493 354 q 581 306 544 354 q 601 289 591 294 q 630 275 610 283 q 691 264 660 264 q 763 294 736 264 q 780 327 780 312 q 778 340 780 330 q 758 363 776 351 q 666 394 727 387 q 530 443 581 409 q 467 543 467 482 l 469 555 q 522 666 475 628 q 628 709 568 703 q 671 711 650 711 q 839 649 774 711 q 873 589 873 623 q 855 553 873 568 q 826 541 840 541 q 799 552 813 541 q 767 579 785 564 q 725 610 749 595 q 669 625 701 625 q 614 610 639 625 q 577 560 577 588 q 586 534 577 549 q 633 509 595 519 q 711 492 671 500 q 888 378 853 463 q 897 333 897 356 q 890 296 897 320 q 857 243 884 272 q 792 195 829 214 q 711 175 754 177 q 673 174 691 174 m 856 53 q 1007 116 943 53 q 1072 270 1072 180 q 1033 391 1072 336 q 1037 440 1037 416 q 1008 581 1037 515 q 818 772 951 714 q 677 800 751 800 q 618 797 633 800 q 502 831 566 831 q 351 768 414 831 q 288 615 288 705 q 323 496 288 551 q 315 440 315 469 q 345 299 315 365 q 422 184 374 233 q 536 108 470 136 q 677 80 602 80 q 743 85 711 80 q 856 53 795 53 m 1153 920 q 1350 444 1350 722 q 1152 -29 1350 168 q 678 -227 954 -227 q 207 -29 402 -227 q 7 444 12 168 q 204 918 7 719 q 678 1116 402 1116 q 1153 920 956 1116 m 679 1067 q 240 883 425 1067 q 56 444 56 699 q 243 6 61 189 q 679 -178 425 -178 q 1117 6 934 -178 q 1301 444 1301 189 q 1120 883 1301 701 q 679 1067 936 1067 z "},"7":{"ha":1356,"x_min":7,"x_max":1350,"o":"m 649 39 q 677 45 653 39 q 758 106 729 64 q 796 121 774 106 q 863 212 842 153 q 871 222 865 222 l 871 221 q 888 229 880 222 q 911 267 895 232 q 926 338 926 308 q 942 356 942 349 q 1000 404 964 369 q 1047 475 1040 452 q 1071 556 1067 515 q 1073 571 1072 556 q 1074 578 1074 571 l 1073 578 q 1075 589 1074 579 l 1074 589 l 1075 594 q 1074 613 1075 609 q 1075 614 1075 613 q 1073 623 1074 623 l 1074 623 l 1073 629 q 1048 715 1062 684 q 1010 777 1035 743 q 974 799 987 799 q 951 794 964 799 q 930 763 930 778 l 931 753 q 949 697 949 708 q 947 695 947 697 q 949 672 949 692 l 947 665 q 949 664 949 665 q 947 656 947 663 q 937 625 942 632 q 924 645 935 626 q 903 669 904 667 q 884 688 884 686 q 899 714 899 697 q 857 766 899 735 q 782 795 817 793 q 780 794 782 794 q 775 796 780 795 l 774 795 q 760 796 774 796 q 746 795 749 796 l 746 796 q 739 794 739 795 l 739 795 q 705 789 730 795 q 716 816 716 806 q 714 827 716 819 q 686 849 704 849 q 677 846 680 849 q 600 799 635 833 q 566 745 574 773 l 562 745 q 559 747 562 747 l 558 745 q 547 747 558 747 q 536 748 547 748 q 469 733 502 748 q 436 700 436 720 q 454 669 436 680 q 468 664 468 665 q 440 637 454 654 q 422 616 423 616 q 410 659 414 631 l 408 664 l 410 666 l 406 670 l 408 671 l 406 675 l 406 686 l 408 690 q 406 692 406 690 l 410 697 l 408 697 q 410 702 410 697 q 417 732 413 720 q 425 760 425 752 q 417 783 425 770 q 392 799 403 798 l 392 798 q 385 799 392 799 q 350 781 370 799 q 295 682 314 738 q 282 629 289 659 q 284 629 284 629 q 281 616 283 629 l 282 614 l 281 606 q 284 571 281 576 l 282 571 q 292 519 289 526 q 322 450 292 505 q 406 363 364 386 q 431 313 416 313 q 441 271 436 290 q 496 197 473 197 l 507 169 q 544 125 517 151 q 605 102 577 102 q 619 83 618 89 q 623 60 620 64 q 649 39 635 39 m 654 72 l 651 72 q 635 115 651 95 q 605 181 605 143 q 598 145 598 167 q 600 134 598 141 l 587 139 q 528 202 547 155 q 512 275 512 244 l 511 275 q 501 229 501 248 q 487 248 493 238 q 461 331 465 290 l 463 331 q 460 338 461 332 l 461 340 l 460 346 q 461 363 460 359 l 460 363 q 463 381 461 376 l 463 389 l 459 386 q 444 344 450 368 l 441 344 l 430 394 l 431 394 q 429 399 431 395 l 430 399 l 428 411 l 429 412 q 428 437 428 414 q 430 462 429 457 l 429 463 q 469 563 438 519 q 425 541 459 563 q 465 618 435 582 q 511 654 492 646 q 524 659 522 659 l 524 661 q 469 697 496 694 q 514 715 486 709 q 524 718 524 717 l 524 717 l 531 718 l 549 717 q 549 718 549 718 q 553 715 549 717 l 555 717 q 562 714 555 715 q 562 715 562 715 l 590 707 q 623 777 590 743 q 683 816 650 805 q 677 802 683 814 q 658 732 660 763 l 660 732 q 732 763 689 755 l 732 762 l 742 764 l 742 763 q 751 765 749 764 q 752 764 751 764 q 771 765 767 764 q 783 763 771 763 l 785 762 l 787 763 q 818 751 800 758 q 867 714 842 743 q 845 713 853 714 l 845 714 l 833 713 q 798 700 818 711 q 837 682 818 694 q 890 634 855 672 q 928 571 918 599 l 915 573 q 897 575 915 575 l 896 573 q 932 477 928 513 q 931 476 931 477 q 932 471 932 473 q 933 463 932 469 l 932 458 l 933 454 l 932 449 q 933 443 932 447 q 930 421 930 431 q 912 368 923 388 q 906 393 912 376 q 893 419 899 411 l 896 389 l 895 388 q 897 369 897 380 q 895 351 897 356 q 896 349 896 351 q 887 295 896 334 q 869 253 880 272 q 853 319 868 262 l 852 319 l 852 308 l 851 304 l 852 304 q 837 227 852 275 q 765 138 812 160 q 768 163 768 151 q 763 189 768 180 q 745 144 755 164 q 694 87 728 113 q 654 72 677 77 m 398 404 q 383 417 387 412 q 328 500 345 457 q 312 561 317 530 q 310 571 311 570 l 311 571 l 310 579 q 311 617 310 609 l 310 618 q 312 624 311 618 q 311 625 311 624 q 313 628 312 625 q 314 632 313 631 q 312 634 312 632 q 326 681 319 666 q 364 755 332 709 q 385 772 378 770 q 397 759 397 770 q 390 740 397 753 q 380 697 380 711 l 382 695 q 380 682 380 695 q 382 667 380 670 l 380 667 q 383 651 382 653 l 382 651 l 383 649 q 406 587 385 620 q 392 540 392 551 q 410 512 392 522 l 410 510 q 397 437 397 475 q 398 404 397 412 m 959 404 l 958 404 q 964 457 964 433 q 962 479 962 477 l 962 479 q 945 544 962 497 q 960 570 960 557 q 954 591 960 579 q 977 667 977 641 l 975 669 q 977 681 977 669 q 975 694 977 690 l 977 694 q 970 732 977 703 q 960 765 960 755 q 971 772 962 770 q 980 768 974 772 q 1023 703 1012 728 q 1043 638 1034 677 l 1042 638 q 1044 629 1043 632 l 1043 629 q 1045 624 1043 627 l 1044 624 l 1045 618 q 1046 610 1045 611 l 1045 608 q 1046 594 1046 603 q 1045 579 1046 587 q 1046 578 1046 579 q 1045 571 1045 578 q 1044 565 1044 570 l 1045 564 q 1043 561 1044 564 l 1044 561 q 1042 553 1044 561 l 1043 551 q 959 404 1025 461 m 579 490 q 585 492 581 490 q 605 515 605 498 q 580 541 605 535 q 555 517 555 534 l 555 510 q 579 490 562 490 m 766 490 l 774 492 q 793 513 793 500 l 793 519 q 767 541 787 541 q 763 540 766 540 q 744 518 744 532 q 745 507 744 510 q 766 490 753 490 m 685 260 q 701 263 699 262 l 701 262 q 766 294 739 269 q 793 347 793 320 l 793 353 q 754 416 793 385 q 692 437 726 435 l 692 437 q 663 437 692 437 q 646 435 648 437 l 646 437 q 603 421 635 437 q 555 351 555 391 q 589 286 555 313 q 658 262 629 262 q 663 260 658 260 l 664 262 l 664 260 q 684 262 681 260 q 685 260 684 260 m 679 292 q 675 294 678 294 q 669 292 672 294 q 612 308 631 298 q 585 351 585 328 q 616 393 585 372 q 663 408 631 402 l 664 407 l 673 408 l 683 407 l 684 408 q 719 399 707 404 q 760 351 760 378 q 736 309 760 328 q 688 294 711 294 q 679 292 680 294 m 623 338 q 633 351 631 338 q 623 361 633 357 l 623 361 l 618 361 q 608 351 608 356 q 620 338 608 342 l 623 338 m 729 338 q 739 351 737 338 q 728 361 736 361 q 717 348 717 359 q 729 338 717 338 m 1153 920 q 1350 444 1350 722 q 1152 -29 1350 168 q 678 -227 954 -227 q 207 -29 402 -227 q 7 444 12 168 q 204 918 7 719 q 678 1116 402 1116 q 1153 920 956 1116 m 679 1067 q 240 883 425 1067 q 56 444 56 699 q 243 6 61 189 q 679 -178 425 -178 q 1117 6 934 -178 q 1301 444 1301 189 q 1120 883 1301 701 q 679 1067 936 1067 z "},"8":{"ha":1356,"x_min":7,"x_max":1350,"o":"m 712 814 q 661 763 674 814 l 661 750 q 689 659 661 733 q 545 610 550 610 l 541 610 q 469 723 517 723 l 458 723 q 397 662 405 723 l 397 659 l 421 566 q 306 491 306 542 q 366 424 306 424 l 373 424 q 465 450 390 424 q 513 308 506 317 q 397 228 397 276 q 453 159 406 159 q 549 184 480 159 l 554 184 q 636 68 578 68 q 700 128 700 79 q 673 224 700 140 q 816 276 719 243 q 900 159 840 159 q 963 224 952 159 q 936 315 963 229 q 1051 395 1051 340 l 1051 408 q 991 463 1051 449 q 900 435 985 463 q 848 574 892 435 l 848 578 q 960 651 960 606 l 960 671 q 908 723 960 709 l 892 723 q 812 699 875 723 l 808 699 q 732 814 777 814 l 712 814 m 584 487 q 725 538 598 495 q 776 391 731 536 q 629 347 636 347 q 584 487 629 355 m 1153 920 q 1350 444 1350 722 q 1152 -29 1350 168 q 678 -227 954 -227 q 207 -29 402 -227 q 7 444 12 168 q 204 918 7 719 q 678 1116 402 1116 q 1153 920 956 1116 m 679 1067 q 240 883 425 1067 q 56 444 56 699 q 243 6 61 189 q 679 -178 425 -178 q 1117 6 934 -178 q 1301 444 1301 189 q 1120 883 1301 701 q 679 1067 936 1067 z "},"9":{"ha":1356,"x_min":7,"x_max":1350,"o":"m 676 113 q 803 165 745 113 q 1059 598 996 311 l 1062 635 q 930 767 1062 767 q 840 744 886 767 q 728 598 751 703 q 782 616 759 616 q 837 540 837 616 q 779 389 837 479 q 728 342 747 342 q 650 496 696 342 l 640 544 q 523 777 595 777 q 463 770 486 777 q 430 759 440 764 l 421 751 q 357 685 387 720 q 311 625 328 650 l 294 598 l 321 572 l 347 595 q 382 606 365 606 q 421 572 411 606 q 549 189 491 308 q 676 113 601 113 m 1153 920 q 1350 444 1350 722 q 1152 -29 1350 168 q 678 -227 954 -227 q 207 -29 402 -227 q 7 444 12 168 q 204 918 7 719 q 678 1116 402 1116 q 1153 920 956 1116 m 679 1067 q 240 883 425 1067 q 56 444 56 699 q 243 6 61 189 q 679 -178 425 -178 q 1117 6 934 -178 q 1301 444 1301 189 q 1120 883 1301 701 q 679 1067 936 1067 z "},"\u0000":{"ha":0,"x_min":0,"x_max":0,"o":""}," ":{"ha":345,"x_min":0,"x_max":0,"o":""},"!":{"ha":1356,"x_min":7,"x_max":1350,"o":"m 678 43 q 745 49 711 43 q 943 141 857 67 q 956 176 956 152 q 954 189 956 182 q 854 361 939 260 q 684 529 778 453 q 678 532 680 532 q 671 529 675 532 q 431 260 519 406 q 401 184 408 226 q 399 173 399 178 q 414 141 399 155 q 678 43 528 45 m 997 203 q 1000 204 998 203 q 1002 206 1002 205 q 1082 435 1080 318 q 966 731 1082 612 q 949 739 960 739 q 907 725 928 739 q 796 635 847 686 q 794 631 794 633 q 797 628 794 630 q 944 405 882 524 q 998 263 981 338 q 1001 235 1001 250 q 997 206 1001 222 l 997 203 m 359 203 q 356 238 356 223 q 403 388 356 294 q 559 627 468 515 q 561 630 561 629 q 557 636 561 633 q 422 734 481 715 q 410 739 416 739 q 384 726 395 739 q 274 450 274 604 q 353 206 274 312 q 355 204 354 205 q 359 203 357 203 m 678 729 q 684 731 680 729 q 800 785 739 765 q 854 795 827 795 q 879 793 867 795 q 882 795 881 793 q 678 851 787 851 q 473 794 569 851 l 476 793 q 481 794 479 794 q 498 795 483 795 q 561 784 531 795 q 672 731 619 764 q 678 729 675 729 m 1153 920 q 1350 444 1350 722 q 1152 -29 1350 168 q 678 -227 954 -227 q 207 -29 402 -227 q 7 444 12 168 q 204 918 7 719 q 678 1116 402 1116 q 1153 920 956 1116 m 679 1067 q 240 883 425 1067 q 56 444 56 699 q 243 6 61 189 q 679 -178 425 -178 q 1117 6 934 -178 q 1301 444 1301 189 q 1120 883 1301 701 q 679 1067 936 1067 z "},"\"":{"ha":1356,"x_min":7,"x_max":1350,"o":"m 920 90 q 1006 125 970 90 q 1041 211 1041 161 l 1041 692 q 1006 778 1041 743 q 920 814 970 814 l 437 814 q 353 778 389 814 q 317 692 317 743 l 317 475 l 319 475 q 435 426 359 459 l 510 396 q 512 397 512 396 q 564 412 537 412 q 571 412 570 412 q 593 445 571 412 q 659 542 659 540 q 681 616 659 582 q 739 667 702 650 q 796 680 767 680 l 809 679 q 931 573 905 665 q 935 540 935 557 q 897 449 935 490 q 827 408 869 418 q 802 405 814 405 l 795 405 q 701 338 795 405 q 667 311 667 314 q 648 252 667 278 q 595 215 628 225 q 568 211 582 211 q 469 288 492 214 q 467 290 469 289 q 317 353 317 351 l 317 211 q 353 125 317 161 q 437 90 388 90 l 920 90 m 566 234 q 595 239 580 234 q 638 283 627 254 q 644 311 644 296 q 636 345 644 328 q 566 389 612 389 q 540 384 553 389 q 541 383 540 383 l 585 366 q 621 312 621 349 q 616 291 621 302 q 564 255 602 255 q 509 273 549 255 l 497 277 q 536 240 509 252 q 566 234 551 234 m 795 450 q 861 477 834 450 q 888 542 888 505 q 861 607 888 581 q 797 634 835 634 q 732 607 759 634 q 705 542 705 581 q 732 477 705 505 q 795 450 759 450 m 797 473 q 748 494 768 474 q 728 543 729 514 q 748 591 728 570 q 797 611 768 611 q 846 591 826 611 q 866 542 866 570 q 846 494 866 514 q 797 473 825 473 m 1153 920 q 1350 444 1350 722 q 1152 -29 1350 168 q 678 -227 954 -227 q 207 -29 402 -227 q 7 444 12 168 q 204 918 7 719 q 678 1116 402 1116 q 1153 920 956 1116 m 679 1067 q 240 883 425 1067 q 56 444 56 699 q 243 6 61 189 q 679 -178 425 -178 q 1117 6 934 -178 q 1301 444 1301 189 q 1120 883 1301 701 q 679 1067 936 1067 z "},"#":{"ha":1356,"x_min":7,"x_max":1350,"o":"m 677 -3 q 755 7 723 -3 q 788 32 788 18 q 755 57 788 47 q 677 68 723 68 q 600 57 632 68 q 567 32 567 47 q 600 7 567 18 q 677 -3 632 -3 m 678 178 q 696 189 688 178 l 699 190 q 901 496 705 204 q 933 621 933 550 q 859 802 933 727 q 678 877 785 877 q 496 802 572 877 q 421 621 421 727 q 461 484 421 545 q 543 363 500 424 l 658 189 q 678 178 667 178 m 682 490 q 610 517 640 490 q 576 593 576 546 q 601 660 576 633 q 675 696 631 696 q 746 669 716 696 q 780 595 780 640 q 754 524 780 554 q 682 490 728 494 m 1153 920 q 1350 444 1350 722 q 1152 -29 1350 168 q 678 -227 954 -227 q 207 -29 402 -227 q 7 444 12 168 q 204 918 7 719 q 678 1116 402 1116 q 1153 920 956 1116 m 679 1067 q 240 883 425 1067 q 56 444 56 699 q 243 6 61 189 q 679 -178 425 -178 q 1117 6 934 -178 q 1301 444 1301 189 q 1120 883 1301 701 q 679 1067 936 1067 z "},"$":{"ha":1356,"x_min":7,"x_max":1350,"o":"m 443 201 q 633 369 620 201 q 606 463 633 419 q 505 548 579 506 q 413 609 433 583 q 397 656 397 630 q 416 704 397 680 q 489 728 436 728 q 604 701 551 728 l 608 700 q 614 745 614 700 q 612 793 614 791 q 486 817 576 817 q 303 652 307 817 q 422 479 303 548 q 518 414 496 443 q 535 365 535 391 q 514 315 535 337 q 443 293 492 293 q 313 333 372 293 q 311 335 311 335 q 309 287 309 335 q 309 238 309 239 q 311 235 309 236 q 443 201 363 206 m 724 71 l 807 79 q 817 85 817 79 l 817 207 l 838 205 q 992 265 923 205 q 1061 447 1061 325 q 1011 601 1061 540 q 868 663 961 663 q 713 631 774 663 l 713 631 q 715 579 713 627 l 715 77 q 724 71 715 71 m 842 290 q 821 292 830 290 q 817 570 817 294 q 860 577 817 577 q 964 441 960 577 q 926 325 964 360 q 842 290 888 290 m 1153 920 q 1350 444 1350 722 q 1152 -29 1350 168 q 678 -227 954 -227 q 207 -29 402 -227 q 7 444 12 168 q 204 918 7 719 q 678 1116 402 1116 q 1153 920 956 1116 m 679 1067 q 240 883 425 1067 q 56 444 56 699 q 243 6 61 189 q 679 -178 425 -178 q 1117 6 934 -178 q 1301 444 1301 189 q 1120 883 1301 701 q 679 1067 936 1067 z "},"%":{"ha":1356,"x_min":7,"x_max":1350,"o":"m 722 160 q 728 165 728 160 q 638 468 728 167 q 548 771 549 770 q 427 772 547 772 q 421 767 423 772 q 420 738 421 747 q 338 447 419 728 q 258 164 258 166 q 305 160 258 160 q 353 162 351 160 q 398 333 355 164 l 576 333 l 621 166 q 630 160 625 160 l 722 160 m 555 423 l 420 423 q 487 684 473 621 q 507 603 494 652 q 533 506 519 555 q 555 423 546 456 m 954 153 q 1065 173 1022 153 q 1071 219 1071 179 q 1070 258 1071 258 q 1068 259 1069 259 l 1065 258 q 974 241 1024 241 q 853 367 853 241 l 999 367 q 1096 373 1090 367 q 1103 436 1103 379 q 1087 520 1103 478 q 1036 592 1072 563 q 939 621 1000 621 q 801 551 850 621 q 752 382 752 481 q 772 269 752 322 q 836 184 791 216 q 954 153 880 153 m 996 444 l 854 444 q 935 539 863 539 q 980 524 964 539 q 1002 489 996 509 q 1008 454 1008 469 q 996 444 1008 444 m 1153 920 q 1350 444 1350 722 q 1152 -29 1350 168 q 678 -227 954 -227 q 207 -29 402 -227 q 7 444 12 168 q 204 918 7 719 q 678 1116 402 1116 q 1153 920 956 1116 m 679 1067 q 240 883 425 1067 q 56 444 56 699 q 243 6 61 189 q 679 -178 425 -178 q 1117 6 934 -178 q 1301 444 1301 189 q 1120 883 1301 701 q 679 1067 936 1067 z "},"&":{"ha":1356,"x_min":7,"x_max":1350,"o":"m 668 261 q 740 291 711 261 q 770 362 770 321 q 740 434 768 406 q 669 464 712 463 q 596 435 625 463 q 567 362 568 406 q 597 291 568 320 q 668 261 627 261 m 669 48 q 732 54 701 48 q 819 87 785 67 q 983 361 983 183 q 969 454 983 406 q 968 468 968 459 q 1003 662 1003 638 l 1003 665 l 867 298 q 788 192 841 230 q 667 154 734 154 q 514 221 568 158 q 460 361 460 285 q 463 395 460 378 q 600 559 483 518 q 673 572 637 572 q 810 515 747 572 l 836 492 l 975 854 q 857 635 967 851 q 846 625 850 625 q 836 629 842 625 q 669 677 756 677 q 448 587 542 677 q 387 506 400 536 q 356 408 358 444 q 354 357 354 373 q 358 313 354 330 q 467 121 381 193 q 616 52 531 69 q 669 48 642 48 m 1153 920 q 1350 444 1350 722 q 1152 -29 1350 168 q 678 -227 954 -227 q 207 -29 402 -227 q 7 444 12 168 q 204 918 7 719 q 678 1116 402 1116 q 1153 920 956 1116 m 679 1067 q 240 883 425 1067 q 56 444 56 699 q 243 6 61 189 q 679 -178 425 -178 q 1117 6 934 -178 q 1301 444 1301 189 q 1120 883 1301 701 q 679 1067 936 1067 z "},"'":{"ha":1356,"x_min":7,"x_max":1350,"o":"m 393 237 q 495 260 444 237 q 583 338 547 283 q 619 490 619 393 q 565 658 619 593 q 399 723 510 723 q 314 722 352 723 l 285 722 q 280 720 281 722 q 279 479 279 719 q 283 238 279 238 q 393 237 306 237 m 916 240 l 986 241 q 994 245 994 241 l 1082 595 q 1009 598 1082 598 q 974 427 1000 596 l 956 323 q 923 505 951 366 q 908 591 916 545 q 906 593 907 592 q 905 595 905 593 q 866 596 904 596 q 823 594 824 596 q 823 591 823 592 q 770 323 777 372 l 766 323 q 723 593 764 361 q 683 596 723 596 q 644 595 644 596 q 681 418 644 589 q 722 241 721 241 q 728 240 723 240 q 805 244 804 240 q 861 511 849 431 q 885 379 868 461 q 909 246 896 321 q 916 240 909 240 m 395 307 q 376 307 385 307 l 359 307 l 359 651 q 400 654 379 653 q 498 615 458 654 q 539 488 539 577 q 496 351 535 396 q 395 307 456 307 m 1153 920 q 1350 444 1350 722 q 1152 -29 1350 168 q 678 -227 954 -227 q 207 -29 402 -227 q 7 444 12 168 q 204 918 7 719 q 678 1116 402 1116 q 1153 920 956 1116 m 679 1067 q 240 883 425 1067 q 56 444 56 699 q 243 6 61 189 q 679 -178 425 -178 q 1117 6 934 -178 q 1301 444 1301 189 q 1120 883 1301 701 q 679 1067 936 1067 z "},"(":{"ha":1356,"x_min":7,"x_max":1350,"o":"m 370 649 q 261 605 306 649 q 216 496 216 560 l 216 397 q 261 289 216 334 q 370 244 306 244 l 985 244 q 1094 289 1049 244 q 1139 397 1139 334 l 1139 496 q 1094 605 1139 560 q 985 649 1049 649 l 370 649 m 1123 498 l 1123 395 q 1084 299 1123 339 q 987 260 1044 260 l 564 260 q 660 299 620 260 q 699 395 699 339 l 699 498 q 739 594 699 555 q 835 633 779 633 l 987 633 q 1084 594 1044 633 q 1123 498 1123 555 m 591 489 l 635 489 l 635 345 l 591 345 l 591 489 m 587 534 q 595 553 587 546 q 613 561 602 561 q 631 553 623 561 q 640 534 640 546 q 631 516 640 523 q 613 509 623 509 q 595 516 602 509 q 587 534 587 523 m 296 555 l 342 555 l 372 420 l 412 555 l 451 555 l 492 416 l 523 555 l 566 555 l 511 345 l 473 345 l 431 490 l 389 345 l 352 345 l 296 555 m 769 555 l 769 345 l 815 345 l 815 427 l 920 427 l 920 469 l 815 469 l 815 512 l 927 512 l 927 555 l 769 555 m 958 489 l 958 345 l 1002 345 l 1002 489 l 958 489 m 954 535 q 962 517 954 524 q 980 509 970 509 q 999 517 991 509 q 1007 535 1007 524 q 999 553 1007 546 q 980 561 991 561 q 962 553 970 561 q 954 535 954 546 m 1153 920 q 1350 444 1350 722 q 1152 -29 1350 168 q 678 -227 954 -227 q 207 -29 402 -227 q 7 444 12 168 q 204 918 7 719 q 678 1116 402 1116 q 1153 920 956 1116 m 679 1067 q 240 883 425 1067 q 56 444 56 699 q 243 6 61 189 q 679 -178 425 -178 q 1117 6 934 -178 q 1301 444 1301 189 q 1120 883 1301 701 q 679 1067 936 1067 z "},")":{"ha":1356,"x_min":7,"x_max":1350,"o":"m 936 28 q 928 29 932 28 l 682 175 l 431 31 q 421 28 426 28 q 410 32 415 28 q 403 46 403 38 q 454 336 403 48 l 248 525 q 241 538 241 530 q 243 543 241 541 q 258 556 247 555 l 536 588 l 663 850 q 679 862 669 862 q 696 850 691 862 l 818 582 l 1099 556 q 1115 538 1115 554 q 1110 525 1115 530 l 907 336 l 912 296 q 861 294 890 294 q 736 299 811 294 l 618 309 l 900 506 q 723 526 819 526 q 660 526 716 526 q 524 516 603 525 q 434 504 439 505 l 435 504 q 506 501 446 504 q 639 493 566 498 q 763 479 713 488 l 484 275 l 490 275 q 660 264 530 269 q 714 262 688 262 q 913 279 817 262 q 972 296 945 285 q 945 275 960 284 l 918 262 q 956 45 956 48 q 948 32 956 37 q 936 28 941 28 m 1153 920 q 1350 444 1350 722 q 1152 -29 1350 168 q 678 -227 954 -227 q 207 -29 402 -227 q 7 444 12 168 q 204 918 7 719 q 678 1116 402 1116 q 1153 920 956 1116 m 679 1067 q 240 883 425 1067 q 56 444 56 699 q 243 6 61 189 q 679 -178 425 -178 q 1117 6 934 -178 q 1301 444 1301 189 q 1120 883 1301 701 q 679 1067 936 1067 z "},"*":{"ha":1356,"x_min":7,"x_max":1350,"o":"m 679 35 q 885 90 791 35 q 1034 238 979 144 q 1088 446 1088 332 q 1034 652 1088 558 q 885 800 979 745 q 679 855 791 855 q 472 800 565 855 q 323 652 379 745 q 268 446 268 558 q 323 238 268 332 q 472 90 379 144 q 679 35 565 35 m 680 73 q 493 123 578 73 q 358 258 408 173 q 308 446 308 343 q 358 633 308 549 q 493 767 408 717 q 680 817 578 817 q 867 767 783 817 q 1003 633 952 717 q 1053 446 1053 549 q 1003 258 1053 343 q 867 123 952 173 q 680 73 783 73 m 518 184 q 603 243 590 184 q 606 519 605 255 q 620 537 606 534 l 825 577 q 836 566 834 577 l 836 387 q 817 368 832 370 l 792 362 q 715 294 715 350 l 716 286 q 733 254 720 267 q 779 237 750 237 q 852 267 830 237 q 865 306 863 285 l 865 690 q 849 705 860 705 l 842 704 q 741 684 830 701 q 598 654 665 669 q 576 635 581 652 l 575 341 q 557 315 575 319 l 532 309 q 486 295 517 309 q 456 242 456 279 q 459 223 456 231 q 518 184 475 184 m 1153 920 q 1350 444 1350 722 q 1152 -29 1350 168 q 678 -227 954 -227 q 207 -29 402 -227 q 7 444 12 168 q 204 918 7 719 q 678 1116 402 1116 q 1153 920 956 1116 m 679 1067 q 240 883 425 1067 q 56 444 56 699 q 243 6 61 189 q 679 -178 425 -178 q 1117 6 934 -178 q 1301 444 1301 189 q 1120 883 1301 701 q 679 1067 936 1067 z "},"+":{"ha":1356,"x_min":7,"x_max":1350,"o":"m 414 95 q 417 334 417 97 q 711 557 711 334 q 653 708 711 646 q 469 769 595 769 q 313 766 382 769 q 308 430 308 766 q 310 95 308 96 q 363 93 311 93 l 414 95 m 917 99 l 920 488 q 1034 501 958 500 q 1041 550 1041 501 q 1034 599 1041 599 q 808 555 863 594 l 806 550 q 809 301 809 502 q 811 100 809 101 q 865 98 813 98 l 917 99 m 466 433 l 417 433 l 418 669 l 473 674 q 608 555 597 671 q 466 433 608 433 m 1153 920 q 1350 444 1350 722 q 1152 -29 1350 168 q 678 -227 954 -227 q 207 -29 402 -227 q 7 444 12 168 q 204 918 7 719 q 678 1116 402 1116 q 1153 920 956 1116 m 679 1067 q 240 883 425 1067 q 56 444 56 699 q 243 6 61 189 q 679 -178 425 -178 q 1117 6 934 -178 q 1301 444 1301 189 q 1120 883 1301 701 q 679 1067 936 1067 z "},",":{"ha":1356,"x_min":7,"x_max":1350,"o":"m 654 48 q 974 157 846 55 q 985 176 984 164 q 960 199 983 199 l 941 193 q 656 129 809 130 q 319 245 471 143 l 302 252 q 283 233 283 252 q 291 216 283 223 q 654 48 435 66 m 1008 115 q 1063 182 1040 116 q 1075 245 1075 217 q 1013 281 1075 281 q 907 236 911 273 q 924 220 907 220 l 991 227 q 1015 220 1015 225 q 1007 180 1015 204 q 995 146 999 156 q 991 132 991 136 q 1008 115 991 115 m 572 266 q 741 340 673 266 q 768 300 751 318 q 811 270 798 270 q 829 278 818 270 q 862 306 840 286 q 896 335 885 327 q 906 351 906 344 q 902 364 906 359 q 897 372 897 368 q 875 408 885 389 q 865 633 865 426 q 657 841 865 841 q 441 685 477 831 q 458 665 441 665 l 553 652 q 572 672 566 659 q 650 734 589 730 q 719 676 711 734 l 720 619 q 425 422 425 619 q 468 305 425 344 q 572 266 511 266 m 632 365 q 571 438 571 372 q 721 539 571 539 l 721 510 q 719 459 722 483 q 699 405 716 435 q 646 366 682 375 l 632 365 m 1153 920 q 1350 444 1350 722 q 1152 -29 1350 168 q 678 -227 954 -227 q 207 -29 402 -227 q 7 444 12 168 q 204 918 7 719 q 678 1116 402 1116 q 1153 920 956 1116 m 679 1067 q 240 883 425 1067 q 56 444 56 699 q 243 6 61 189 q 679 -178 425 -178 q 1117 6 934 -178 q 1301 444 1301 189 q 1120 883 1301 701 q 679 1067 936 1067 z "},"-":{"ha":1356,"x_min":7,"x_max":1350,"o":"m 835 195 q 703 363 703 195 q 844 530 720 530 l 841 530 q 881 524 881 530 l 881 203 q 835 195 863 195 m 416 107 q 472 110 470 107 q 474 711 474 113 q 473 799 474 798 q 418 800 472 800 q 363 799 365 800 q 361 454 361 797 q 363 110 361 112 q 416 107 365 107 m 828 96 q 995 135 902 96 l 1001 136 q 995 800 995 165 l 938 800 q 882 796 882 800 l 882 627 l 850 627 q 659 549 729 627 q 589 359 589 472 q 656 161 589 227 q 828 96 724 96 m 1153 920 q 1350 444 1350 722 q 1152 -29 1350 168 q 678 -227 954 -227 q 207 -29 402 -227 q 7 444 12 168 q 204 918 7 719 q 678 1116 402 1116 q 1153 920 956 1116 m 679 1067 q 240 883 425 1067 q 56 444 56 699 q 243 6 61 189 q 679 -178 425 -178 q 1117 6 934 -178 q 1301 444 1301 189 q 1120 883 1301 701 q 679 1067 936 1067 z "},".":{"ha":1356,"x_min":7,"x_max":1350,"o":"m 667 210 q 714 211 712 210 q 545 782 545 780 q 486 783 545 783 q 424 780 424 783 q 420 747 424 751 l 271 217 q 360 212 271 212 l 404 373 l 571 370 l 618 212 q 667 210 618 210 m 551 460 l 427 460 q 488 705 477 646 l 551 460 m 817 210 q 862 211 860 210 q 864 553 864 212 q 922 564 889 564 q 993 501 993 564 l 991 352 q 993 217 991 219 q 1038 216 994 216 q 1082 217 1080 216 q 1084 494 1084 219 q 928 648 1084 648 q 768 612 857 648 q 762 606 764 612 q 767 386 765 559 q 770 211 768 212 q 817 210 772 210 m 1153 920 q 1350 444 1350 722 q 1152 -29 1350 168 q 678 -227 954 -227 q 207 -29 402 -227 q 7 444 12 168 q 204 918 7 719 q 678 1116 402 1116 q 1153 920 956 1116 m 679 1067 q 240 883 425 1067 q 56 444 56 699 q 243 6 61 189 q 679 -178 425 -178 q 1117 6 934 -178 q 1301 444 1301 189 q 1120 883 1301 701 q 679 1067 936 1067 z "},"/":{"ha":1356,"x_min":7,"x_max":1350,"o":"m 307 169 q 355 174 355 169 l 398 334 l 569 336 q 618 172 616 173 q 668 172 620 172 q 715 174 714 172 q 629 467 715 175 q 541 758 543 758 q 421 757 422 758 q 420 754 420 756 q 416 711 420 711 l 262 174 q 307 169 262 169 m 549 421 l 422 421 l 435 470 q 484 672 467 587 q 526 506 494 625 l 549 421 m 905 158 q 1087 195 1004 158 q 1089 196 1089 195 q 1091 198 1090 197 q 1093 201 1093 198 l 1090 257 l 1073 257 l 1071 601 q 1065 606 1071 606 l 1021 606 q 974 604 975 606 q 972 257 972 603 q 913 247 950 247 q 840 311 840 247 l 841 460 q 836 602 841 602 l 753 602 q 747 595 747 602 l 747 316 q 905 158 747 158 m 1153 920 q 1350 444 1350 722 q 1152 -29 1350 168 q 678 -227 954 -227 q 207 -29 402 -227 q 7 444 12 168 q 204 918 7 719 q 678 1116 402 1116 q 1153 920 956 1116 m 679 1067 q 240 883 425 1067 q 56 444 56 699 q 243 6 61 189 q 679 -178 425 -178 q 1117 6 934 -178 q 1301 444 1301 189 q 1120 883 1301 701 q 679 1067 936 1067 z "},":":{"ha":1356,"x_min":7,"x_max":1350,"o":"m 738 76 q 878 95 826 76 l 895 102 q 993 182 965 140 l 1006 201 q 1051 385 1043 258 q 1036 396 1051 396 q 914 378 974 396 q 737 168 766 333 q 727 85 728 98 q 738 76 727 76 m 806 654 l 806 697 q 765 786 801 750 q 677 821 728 821 q 588 786 625 821 q 548 697 552 750 l 547 697 l 547 654 l 806 654 m 616 76 q 627 85 627 76 q 616 168 625 98 q 439 378 585 333 q 318 396 380 396 q 305 394 307 396 q 302 387 302 392 q 347 201 312 257 q 359 182 354 191 q 390 150 365 173 q 476 95 429 113 q 616 76 528 76 m 714 77 l 714 339 q 821 395 779 351 q 868 501 863 439 q 870 540 870 519 l 870 578 l 806 578 l 806 618 l 547 618 l 547 578 l 483 578 q 484 501 483 539 q 532 395 489 439 q 640 339 574 351 l 640 77 l 714 77 m 714 372 l 714 410 l 713 410 q 778 453 753 422 q 806 527 803 485 l 806 540 l 836 540 l 835 517 q 798 424 830 463 q 714 372 765 386 m 639 372 q 555 424 588 386 q 518 517 523 463 l 517 540 l 547 540 q 575 453 548 487 q 640 410 600 420 l 639 410 l 639 372 m 1153 920 q 1350 444 1350 722 q 1152 -29 1350 168 q 678 -227 954 -227 q 207 -29 402 -227 q 7 444 12 168 q 204 918 7 719 q 678 1116 402 1116 q 1153 920 956 1116 m 679 1067 q 240 883 425 1067 q 56 444 56 699 q 243 6 61 189 q 679 -178 425 -178 q 1117 6 934 -178 q 1301 444 1301 189 q 1120 883 1301 701 q 679 1067 936 1067 z "},";":{"ha":1356,"x_min":7,"x_max":1350,"o":"m 519 659 q 651 815 561 815 q 664 811 658 815 q 581 679 609 791 l 519 659 m 554 170 q 489 181 515 170 q 450 205 463 193 l 437 217 l 458 286 l 482 269 q 532 251 511 251 q 565 282 565 251 q 529 334 565 307 q 477 425 477 372 q 517 526 477 481 q 637 571 557 571 q 684 566 669 571 l 699 559 l 669 469 l 661 473 q 640 480 653 476 q 610 484 626 484 q 559 446 559 484 q 597 402 559 429 q 667 294 667 357 q 554 170 667 180 m 612 689 q 681 787 640 773 q 692 718 692 762 l 692 713 l 612 689 m 782 50 l 1027 104 l 984 394 q 940 686 941 677 q 935 694 939 694 q 901 696 930 694 l 869 699 l 831 736 q 813 749 820 749 l 782 741 q 699 819 756 819 l 695 819 q 653 843 674 843 q 538 774 577 843 q 487 650 498 705 q 399 621 406 625 q 390 600 393 618 q 359 361 388 583 l 330 134 l 782 50 m 719 721 l 719 730 q 709 791 719 767 q 757 733 739 787 l 719 721 m 1153 920 q 1350 444 1350 722 q 1152 -29 1350 168 q 678 -227 954 -227 q 207 -29 402 -227 q 7 444 12 168 q 204 918 7 719 q 678 1116 402 1116 q 1153 920 956 1116 m 679 1067 q 240 883 425 1067 q 56 444 56 699 q 243 6 61 189 q 679 -178 425 -178 q 1117 6 934 -178 q 1301 444 1301 189 q 1120 883 1301 701 q 679 1067 936 1067 z "},"<":{"ha":1356,"x_min":7,"x_max":1350,"o":"m 747 59 q 754 67 754 59 q 747 81 754 73 q 732 121 732 99 l 732 269 q 747 226 747 269 l 748 127 q 784 83 748 96 q 811 80 797 80 q 829 85 829 80 q 819 97 829 88 q 792 132 794 111 l 792 151 q 794 223 794 159 q 786 298 794 274 q 753 336 777 322 q 941 435 898 345 l 951 435 q 1128 406 1009 435 l 1133 408 q 1130 411 1133 411 q 951 442 1011 442 l 944 442 l 950 459 l 976 459 q 1116 446 1055 459 l 1131 444 l 1131 443 q 1135 446 1135 443 q 1133 449 1135 449 q 977 465 1076 465 l 952 465 q 963 553 961 503 q 917 684 960 642 q 909 694 911 690 q 914 746 914 724 q 911 773 914 762 q 901 808 907 800 l 890 808 q 779 762 850 808 q 676 773 736 773 q 562 759 602 773 q 451 807 490 807 l 437 807 l 431 791 q 422 739 422 770 q 430 684 422 714 l 427 684 q 396 635 408 660 q 383 562 383 610 q 397 465 383 508 q 223 449 288 465 q 220 446 220 449 q 224 443 220 443 l 225 444 q 385 459 294 459 l 399 459 l 406 442 q 258 421 322 439 q 234 414 245 416 q 222 410 223 411 q 221 408 221 409 q 225 405 221 405 q 234 408 229 406 q 316 427 276 421 q 409 435 349 434 q 599 336 453 352 q 566 280 569 312 q 517 269 547 269 q 484 274 500 269 q 444 311 462 285 q 383 354 414 354 q 363 347 363 354 q 371 336 363 341 q 419 279 399 321 q 516 213 441 213 q 549 214 536 213 l 562 216 l 562 132 q 538 99 562 117 q 526 84 526 92 q 547 79 526 79 q 584 91 562 79 q 606 123 606 102 l 606 234 q 614 264 606 252 q 619 269 616 268 l 622 271 l 622 193 q 618 99 622 115 q 606 76 614 83 q 600 66 600 71 q 608 60 600 60 q 638 70 623 60 q 663 98 654 80 q 671 197 671 116 l 671 276 l 684 276 l 684 204 l 684 156 q 701 83 684 100 q 747 59 724 59 m 390 340 q 383 346 383 340 q 390 350 383 350 q 397 346 397 350 q 390 340 397 340 m 412 328 q 405 333 405 328 q 412 338 405 338 q 419 333 419 338 q 412 328 419 328 m 426 313 q 418 317 418 313 q 426 322 418 322 q 433 317 433 322 q 426 313 433 313 m 437 295 q 430 299 430 295 q 437 304 430 304 q 445 299 445 304 q 437 295 445 295 m 451 277 q 444 282 444 277 q 451 287 444 287 q 458 282 458 287 q 451 277 458 277 m 469 263 q 462 268 462 263 q 469 272 462 272 q 477 268 477 272 q 469 263 477 263 m 494 253 q 488 258 488 253 q 494 263 488 263 q 502 258 502 263 q 494 253 502 253 m 520 253 q 513 258 513 253 q 520 263 513 263 q 527 258 527 263 q 520 253 527 253 m 545 258 q 539 262 539 258 q 545 267 539 267 q 553 262 553 267 q 545 258 553 258 m 682 357 q 617 358 648 357 q 451 486 451 368 q 475 549 451 518 q 571 589 509 589 l 588 588 q 682 585 629 585 q 766 588 732 585 l 780 589 q 872 555 845 589 q 899 481 899 520 q 746 358 899 367 q 682 357 714 357 m 370 290 q 376 296 376 290 l 372 314 q 370 328 370 322 q 365 314 368 322 q 362 296 362 305 q 370 290 362 290 m 676 379 q 694 386 687 379 q 701 400 701 392 q 698 403 701 403 q 695 399 695 403 q 690 390 695 395 q 676 385 684 385 q 661 391 667 386 q 654 399 654 395 q 652 403 654 403 q 648 400 648 403 q 652 392 648 397 q 676 379 660 379 m 675 414 q 686 426 686 416 q 675 437 686 437 q 669 435 670 437 q 666 432 668 434 q 665 426 665 430 q 667 419 665 423 q 675 414 670 416 m 557 419 q 586 433 574 419 q 603 482 603 451 q 586 534 603 513 q 557 549 574 548 q 526 530 539 549 q 513 482 513 510 q 526 436 513 454 q 557 419 539 419 m 800 419 q 833 436 820 419 q 846 482 846 454 q 833 530 846 510 q 800 549 820 549 q 769 530 783 549 q 756 482 756 510 q 769 436 756 454 q 800 419 783 419 m 1153 920 q 1350 444 1350 722 q 1152 -29 1350 168 q 678 -227 954 -227 q 207 -29 402 -227 q 7 444 12 168 q 204 918 7 719 q 678 1116 402 1116 q 1153 920 956 1116 m 679 1067 q 240 883 425 1067 q 56 444 56 699 q 243 6 61 189 q 679 -178 425 -178 q 1117 6 934 -178 q 1301 444 1301 189 q 1120 883 1301 701 q 679 1067 936 1067 z "},"=":{"ha":1356,"x_min":7,"x_max":1350,"o":"m 644 532 q 539 551 568 538 q 510 601 510 563 q 528 642 510 624 q 644 684 557 677 l 644 532 m 720 209 l 720 373 q 832 355 806 366 q 859 311 859 343 q 720 209 859 230 m 756 7 l 756 24 q 720 60 720 33 l 720 93 q 927 162 850 100 q 1004 319 1004 223 q 739 525 1004 500 l 720 525 l 720 682 q 845 646 785 677 q 898 610 886 624 q 911 578 911 596 l 924 572 l 1004 733 l 993 742 q 968 728 976 728 q 947 735 955 728 q 720 798 785 798 l 720 829 q 756 863 720 854 l 756 878 l 615 878 l 615 863 q 644 829 644 854 l 644 802 q 443 740 515 798 q 371 583 371 682 q 432 442 371 484 q 644 386 492 400 l 644 214 q 491 256 545 223 q 436 328 436 290 l 422 335 l 349 166 l 361 160 q 382 170 376 170 q 399 165 394 170 q 644 93 528 100 l 644 60 q 615 24 644 33 l 615 7 l 756 7 m 1153 920 q 1350 444 1350 722 q 1152 -29 1350 168 q 678 -227 954 -227 q 207 -29 402 -227 q 7 444 12 168 q 204 918 7 719 q 678 1116 402 1116 q 1153 920 956 1116 m 679 1067 q 240 883 425 1067 q 56 444 56 699 q 243 6 61 189 q 679 -178 425 -178 q 1117 6 934 -178 q 1301 444 1301 189 q 1120 883 1301 701 q 679 1067 936 1067 z "},">":{"ha":1356,"x_min":7,"x_max":1350,"o":"m 900 94 q 907 101 907 94 l 907 494 q 1003 507 941 507 l 1025 507 q 1030 508 1029 507 q 1032 603 1032 509 q 1027 609 1032 609 q 797 566 899 609 q 791 558 791 565 q 795 497 795 508 l 795 102 q 800 94 795 94 l 900 94 m 505 94 q 682 97 678 94 q 692 145 685 99 q 700 193 700 191 q 695 198 700 198 l 439 198 q 437 778 439 777 q 334 780 436 780 q 326 774 326 780 q 328 97 326 100 q 505 94 330 94 m 1153 920 q 1350 444 1350 722 q 1152 -29 1350 168 q 678 -227 954 -227 q 207 -29 402 -227 q 7 444 12 168 q 204 918 7 719 q 678 1116 402 1116 q 1153 920 956 1116 m 679 1067 q 240 883 425 1067 q 56 444 56 699 q 243 6 61 189 q 679 -178 425 -178 q 1117 6 934 -178 q 1301 444 1301 189 q 1120 883 1301 701 q 679 1067 936 1067 z "},"?":{"ha":1356,"x_min":7,"x_max":1350,"o":"m 679 855 q 520 823 594 855 q 389 735 446 791 q 301 605 333 679 q 269 446 269 530 q 301 287 269 361 q 389 156 333 212 q 520 68 446 100 q 679 36 594 36 q 838 68 764 36 q 968 156 912 100 q 1057 287 1025 212 q 1088 446 1088 361 q 1057 605 1088 530 q 968 735 1025 679 q 838 823 912 791 q 679 855 764 855 m 987 618 q 1020 535 1009 578 l 883 535 q 861 618 876 578 l 987 618 m 846 387 l 806 504 l 831 515 l 859 424 l 880 482 l 907 482 l 928 424 l 956 515 l 980 504 l 942 387 l 918 376 l 894 456 l 869 376 l 846 387 m 848 356 q 823 273 840 313 l 696 273 l 696 356 l 848 356 m 928 695 q 966 652 949 675 l 846 652 q 748 792 811 730 q 928 695 852 772 m 696 793 q 808 652 768 732 l 696 652 l 696 793 m 696 618 l 823 618 q 848 535 840 578 l 696 535 l 696 618 m 661 792 l 661 652 l 551 652 q 661 792 589 731 m 511 535 q 534 618 519 578 l 661 618 l 661 535 l 511 535 m 551 504 l 512 387 l 488 376 l 464 456 l 440 376 l 416 387 l 378 504 l 402 515 l 429 424 l 450 482 l 477 482 l 498 424 l 527 515 l 551 504 m 429 695 q 610 792 506 772 q 512 652 547 730 l 392 652 q 429 695 408 675 m 370 618 l 498 618 q 475 535 483 578 l 338 535 q 370 618 349 578 m 370 273 q 338 356 349 313 l 475 356 q 498 273 483 315 l 370 273 m 429 196 q 392 240 408 216 l 511 240 q 610 99 547 161 q 429 196 506 119 m 661 99 q 549 240 589 160 l 661 240 l 661 99 m 661 273 l 534 273 q 511 356 519 313 l 661 356 l 661 273 m 679 456 l 654 376 l 631 387 l 591 504 l 616 515 l 644 424 l 665 482 l 692 482 l 713 424 l 741 515 l 766 504 l 727 387 l 703 376 l 679 456 m 696 98 l 696 240 l 808 240 q 696 98 769 160 m 928 196 q 748 99 852 119 q 846 240 811 161 l 966 240 q 928 196 949 216 m 987 273 l 861 273 q 883 356 876 315 l 1020 356 q 987 273 1009 313 m 1153 920 q 1350 444 1350 722 q 1152 -29 1350 168 q 678 -227 954 -227 q 207 -29 402 -227 q 7 444 12 168 q 204 918 7 719 q 678 1116 402 1116 q 1153 920 956 1116 m 679 1067 q 240 883 425 1067 q 56 444 56 699 q 243 6 61 189 q 679 -178 425 -178 q 1117 6 934 -178 q 1301 444 1301 189 q 1120 883 1301 701 q 679 1067 936 1067 z "},"@":{"ha":1356,"x_min":7,"x_max":1350,"o":"m 1153 920 q 1350 444 1350 722 q 1152 -29 1350 168 q 678 -227 954 -227 q 207 -29 402 -227 q 7 444 12 168 q 204 918 7 719 q 678 1116 402 1116 q 1153 920 956 1116 m 679 1067 q 240 883 425 1067 q 56 444 56 699 q 243 6 61 189 q 679 -178 425 -178 q 1117 6 934 -178 q 1301 444 1301 189 q 1120 883 1301 701 q 679 1067 936 1067 z "},"A":{"ha":1356,"x_min":7,"x_max":1350,"o":"m 682 1 l 714 126 q 807 116 765 116 q 881 125 847 116 q 981 231 949 144 q 992 297 992 267 q 912 413 992 378 q 1009 547 1002 428 q 857 699 1009 648 l 888 823 l 812 842 l 782 720 q 722 735 751 728 l 751 857 l 675 876 l 645 751 l 595 762 l 595 763 l 492 789 l 471 707 l 526 695 q 563 654 563 685 l 526 509 l 535 506 l 532 506 q 526 508 530 508 l 477 310 q 452 291 471 291 q 387 305 442 292 l 349 218 l 503 179 l 471 54 l 547 35 l 577 160 q 638 144 608 151 l 608 20 l 682 1 m 738 226 q 602 250 691 226 l 644 418 l 663 413 q 837 301 837 380 q 835 281 837 292 q 792 233 823 240 q 738 226 761 226 m 773 474 q 663 495 725 474 l 701 646 q 716 642 707 643 q 861 545 861 615 q 821 480 856 489 q 773 474 794 474 m 1153 920 q 1350 444 1350 722 q 1152 -29 1350 168 q 678 -227 954 -227 q 207 -29 402 -227 q 7 444 12 168 q 204 918 7 719 q 678 1116 402 1116 q 1153 920 956 1116 m 679 1067 q 240 883 425 1067 q 56 444 56 699 q 243 6 61 189 q 679 -178 425 -178 q 1117 6 934 -178 q 1301 444 1301 189 q 1120 883 1301 701 q 679 1067 936 1067 z "},"B":{"ha":1356,"x_min":7,"x_max":1350,"o":"m 616 298 l 663 586 l 588 586 l 542 298 l 616 298 m 372 562 q 338 586 366 585 l 218 586 l 217 580 q 296 548 261 568 l 362 298 l 441 298 l 558 586 l 479 586 l 406 389 l 398 429 l 372 562 m 1138 298 l 1078 586 l 1020 586 q 981 562 991 586 l 870 298 l 948 298 l 964 340 l 1060 340 l 1069 298 l 1138 298 m 747 294 q 840 320 805 294 q 876 394 876 347 q 813 471 876 441 q 771 505 771 490 q 775 517 771 512 q 789 527 780 523 q 814 531 799 531 q 876 517 848 531 l 886 579 q 820 591 859 591 q 730 565 765 591 q 694 496 694 538 q 760 417 694 446 q 798 382 798 399 q 753 353 796 353 q 673 373 713 353 l 663 309 q 747 294 692 295 m 1048 399 l 985 399 l 1025 508 l 1048 399 m 1153 920 q 1350 444 1350 722 q 1152 -29 1350 168 q 678 -227 954 -227 q 207 -29 402 -227 q 7 444 12 168 q 204 918 7 719 q 678 1116 402 1116 q 1153 920 956 1116 m 679 1067 q 240 883 425 1067 q 56 444 56 699 q 243 6 61 189 q 679 -178 425 -178 q 1117 6 934 -178 q 1301 444 1301 189 q 1120 883 1301 701 q 679 1067 936 1067 z "},"C":{"ha":1356,"x_min":7,"x_max":1350,"o":"m 662 528 l 583 528 l 618 682 l 701 682 q 738 671 723 682 q 760 625 760 654 q 728 555 760 585 q 662 528 701 528 m 662 583 q 688 593 674 583 q 704 621 704 607 l 705 625 q 663 627 705 627 l 652 583 l 662 583 m 658 50 l 376 50 l 404 176 l 279 176 l 431 852 l 763 852 q 935 774 866 852 q 971 697 959 749 q 1074 526 1074 643 q 1067 467 1074 499 q 776 237 995 237 l 699 237 l 658 50 m 517 232 l 559 419 l 682 419 q 857 491 785 419 q 916 605 899 536 q 921 648 921 628 q 904 722 921 692 q 842 779 881 760 q 763 797 802 797 l 477 797 l 349 232 l 517 232 m 613 105 l 654 293 l 776 293 q 926 341 861 293 q 1013 478 991 389 q 1016 525 1016 504 q 976 627 1016 591 q 970 593 975 610 q 680 363 898 363 l 602 363 l 562 176 l 462 176 l 446 105 l 613 105 m 1153 920 q 1350 444 1350 722 q 1152 -29 1350 168 q 678 -227 954 -227 q 207 -29 402 -227 q 7 444 12 168 q 204 918 7 719 q 678 1116 402 1116 q 1153 920 956 1116 m 679 1067 q 240 883 425 1067 q 56 444 56 699 q 243 6 61 189 q 679 -178 425 -178 q 1117 6 934 -178 q 1301 444 1301 189 q 1120 883 1301 701 q 679 1067 936 1067 z "},"D":{"ha":1356,"x_min":7,"x_max":1350,"o":"m 909 113 q 947 144 940 113 l 1072 741 q 1063 761 1072 753 q 1045 769 1055 769 q 303 494 1041 769 q 285 467 285 486 q 304 444 287 449 l 484 388 l 556 170 q 584 151 563 151 q 602 158 594 151 l 704 254 l 887 121 q 909 113 898 113 m 581 224 l 526 405 q 921 655 918 655 q 931 648 931 655 q 931 645 931 647 q 593 338 930 643 l 581 224 m 1153 920 q 1350 444 1350 722 q 1152 -29 1350 168 q 678 -227 954 -227 q 207 -29 402 -227 q 7 444 12 168 q 204 918 7 719 q 678 1116 402 1116 q 1153 920 956 1116 m 679 1067 q 240 883 425 1067 q 56 444 56 699 q 243 6 61 189 q 679 -178 425 -178 q 1117 6 934 -178 q 1301 444 1301 189 q 1120 883 1301 701 q 679 1067 936 1067 z "},"E":{"ha":1356,"x_min":7,"x_max":1350,"o":"m 993 155 q 1064 170 1044 155 q 1085 221 1085 185 l 1085 677 q 1065 724 1085 704 q 1018 744 1046 744 l 338 744 l 338 743 q 291 724 311 743 q 271 677 271 704 l 271 221 q 291 174 271 193 q 338 155 311 155 l 993 155 m 677 512 l 388 727 l 969 727 l 677 512 m 378 186 l 378 560 l 648 374 l 378 186 m 970 171 l 385 171 l 663 364 q 677 358 672 358 q 691 364 680 358 l 970 171 m 977 186 l 706 374 l 977 560 l 977 186 m 1153 920 q 1350 444 1350 722 q 1152 -29 1350 168 q 678 -227 954 -227 q 207 -29 402 -227 q 7 444 12 168 q 204 918 7 719 q 678 1116 402 1116 q 1153 920 956 1116 m 679 1067 q 240 883 425 1067 q 56 444 56 699 q 243 6 61 189 q 679 -178 425 -178 q 1117 6 934 -178 q 1301 444 1301 189 q 1120 883 1301 701 q 679 1067 936 1067 z "},"F":{"ha":1356,"x_min":7,"x_max":1350,"o":"m 920 237 q 1028 281 983 237 q 1073 388 1073 326 q 1027 496 1073 452 q 920 541 981 541 q 851 524 882 541 q 768 388 768 477 q 812 281 768 326 q 920 237 857 237 m 677 297 q 773 530 677 429 q 920 602 842 602 l 891 624 q 677 693 804 693 q 462 624 549 693 l 433 602 q 578 531 511 602 q 677 297 677 429 m 433 237 q 541 281 496 237 q 586 388 586 326 q 498 525 586 479 q 433 541 469 541 q 332 501 374 541 q 281 388 281 456 q 325 281 281 326 q 433 237 369 237 m 920 175 q 737 267 814 175 l 677 175 l 615 267 q 433 175 539 175 q 279 235 339 175 q 220 388 220 294 q 281 541 220 457 q 220 602 225 555 l 372 602 q 677 724 494 724 q 981 602 859 724 l 1133 602 l 1130 585 q 1073 541 1117 552 q 1109 479 1091 515 q 1133 388 1133 430 q 1074 235 1133 294 q 920 175 1014 175 m 920 357 q 898 367 907 357 q 889 388 889 376 q 898 410 889 401 q 920 419 907 419 q 942 410 933 419 q 951 388 951 401 q 942 367 951 376 q 920 357 933 357 m 920 328 q 963 346 945 328 q 981 388 981 363 q 963 431 981 414 q 920 449 945 449 q 877 431 895 449 q 859 388 859 414 q 877 346 859 363 q 920 328 895 328 m 920 297 q 855 324 882 297 q 829 388 829 351 q 855 453 829 427 q 920 479 882 479 q 984 453 958 479 q 1011 388 1011 427 q 984 324 1011 351 q 920 297 958 297 m 433 357 q 411 367 420 357 q 402 388 402 376 q 411 410 402 401 q 433 419 420 419 q 455 410 446 419 q 464 388 464 401 q 455 367 464 376 q 433 357 446 357 m 433 328 q 476 346 458 328 q 494 388 494 363 q 476 431 494 414 q 433 449 458 449 q 390 431 408 449 q 372 388 372 414 q 390 346 372 363 q 433 328 408 328 m 433 297 q 368 324 395 297 q 342 388 342 351 q 368 453 342 427 q 433 479 395 479 q 497 453 471 479 q 524 388 524 427 q 497 324 524 351 q 433 297 471 297 m 1153 920 q 1350 444 1350 722 q 1152 -29 1350 168 q 678 -227 954 -227 q 207 -29 402 -227 q 7 444 12 168 q 204 918 7 719 q 678 1116 402 1116 q 1153 920 956 1116 m 679 1067 q 240 883 425 1067 q 56 444 56 699 q 243 6 61 189 q 679 -178 425 -178 q 1117 6 934 -178 q 1301 444 1301 189 q 1120 883 1301 701 q 679 1067 936 1067 z "},"G":{"ha":1356,"x_min":7,"x_max":1350,"o":"m 896 463 q 897 472 897 465 q 856 515 897 515 q 828 507 839 515 q 814 490 817 498 q 812 477 812 481 q 814 467 812 472 q 844 471 828 471 q 896 463 880 471 m 870 54 l 842 54 q 705 83 747 54 q 672 176 672 112 q 682 221 672 205 q 732 259 706 253 q 777 264 759 264 l 800 263 l 800 206 l 779 207 q 762 206 770 207 q 751 195 753 205 q 749 180 749 186 q 776 149 749 149 q 806 148 793 149 q 829 146 820 146 q 861 153 849 146 q 875 183 875 166 q 876 206 876 199 q 870 250 876 228 q 847 287 861 278 q 783 307 825 297 q 701 338 710 321 q 693 357 697 347 q 686 368 688 368 q 682 352 684 368 q 653 287 673 301 q 627 283 645 283 q 474 311 566 283 q 406 344 420 326 q 385 420 399 358 q 354 616 354 560 q 355 631 354 623 q 367 652 357 638 q 402 667 378 665 q 445 666 425 667 q 479 665 465 665 q 516 676 509 665 q 525 756 525 702 l 525 801 q 622 842 525 842 q 738 781 728 842 q 780 779 761 779 q 831 776 800 778 q 904 772 858 774 q 980 728 958 766 q 994 671 994 701 l 994 652 l 998 589 q 1002 467 1002 526 q 899 59 1002 126 q 870 54 890 55 m 477 683 l 453 682 q 390 684 414 682 q 374 687 374 686 l 432 749 q 496 809 488 809 q 503 749 503 806 q 502 709 503 727 q 496 687 501 690 q 477 683 492 684 m 1153 920 q 1350 444 1350 722 q 1152 -29 1350 168 q 678 -227 954 -227 q 207 -29 402 -227 q 7 444 12 168 q 204 918 7 719 q 678 1116 402 1116 q 1153 920 956 1116 m 679 1067 q 240 883 425 1067 q 56 444 56 699 q 243 6 61 189 q 679 -178 425 -178 q 1117 6 934 -178 q 1301 444 1301 189 q 1120 883 1301 701 q 679 1067 936 1067 z "},"H":{"ha":1356,"x_min":7,"x_max":1350,"o":"m 917 193 q 786 214 849 193 q 690 286 724 235 q 641 399 663 336 q 571 545 608 490 q 466 600 534 600 q 332 439 332 600 q 363 332 332 376 q 463 283 396 283 q 527 296 501 283 q 567 323 553 309 q 582 338 581 336 l 625 252 q 608 232 622 245 q 561 207 595 219 q 463 195 528 195 q 288 272 343 195 q 233 422 233 349 q 273 601 233 542 q 368 678 313 659 q 466 696 422 696 q 601 654 549 696 q 682 551 652 611 q 734 433 713 490 q 777 335 755 375 q 916 280 813 280 q 968 286 943 280 q 1022 335 1022 301 q 1000 368 1022 355 q 923 397 979 380 q 814 440 867 410 q 762 545 762 471 q 800 642 762 600 q 905 694 838 684 q 937 697 921 697 q 1036 674 987 697 q 1123 572 1098 642 l 1029 542 q 934 600 1006 600 q 901 593 921 600 q 859 545 859 578 q 880 516 859 528 q 951 490 901 505 q 1066 444 1010 475 q 1122 335 1122 413 q 996 202 1122 233 q 917 193 958 193 m 1153 920 q 1350 444 1350 722 q 1152 -29 1350 168 q 678 -227 954 -227 q 207 -29 402 -227 q 7 444 12 168 q 204 918 7 719 q 678 1116 402 1116 q 1153 920 956 1116 m 679 1067 q 240 883 425 1067 q 56 444 56 699 q 243 6 61 189 q 679 -178 425 -178 q 1117 6 934 -178 q 1301 444 1301 189 q 1120 883 1301 701 q 679 1067 936 1067 z "},"I":{"ha":1356,"x_min":7,"x_max":1350,"o":"m 1085 365 l 854 365 l 846 370 l 583 824 l 814 824 q 1085 365 821 824 m 966 110 l 435 110 q 559 315 555 315 l 1085 315 l 966 110 m 391 134 l 270 340 l 536 800 l 657 593 l 391 134 m 1153 920 q 1350 444 1350 722 q 1152 -29 1350 168 q 678 -227 954 -227 q 207 -29 402 -227 q 7 444 12 168 q 204 918 7 719 q 678 1116 402 1116 q 1153 920 956 1116 m 679 1067 q 240 883 425 1067 q 56 444 56 699 q 243 6 61 189 q 679 -178 425 -178 q 1117 6 934 -178 q 1301 444 1301 189 q 1120 883 1301 701 q 679 1067 936 1067 z "},"J":{"ha":1356,"x_min":7,"x_max":1350,"o":"m 619 650 l 618 650 q 616 653 616 650 q 630 659 616 659 q 623 654 625 659 q 619 650 621 650 m 670 653 l 669 653 q 665 655 667 653 q 659 658 662 658 q 656 658 658 658 q 665 661 662 661 q 671 656 669 661 l 671 656 q 670 653 671 654 m 497 433 q 503 435 499 433 q 509 448 507 441 l 509 450 q 511 454 511 453 q 509 457 511 457 q 504 450 506 457 q 497 438 503 444 q 495 434 495 435 q 497 433 495 433 m 601 71 q 612 89 612 77 q 604 113 612 99 q 599 120 602 117 q 595 126 596 124 q 593 128 593 127 l 593 128 q 603 134 597 134 q 608 132 606 134 q 661 114 625 114 q 685 115 672 114 q 766 155 745 123 q 780 170 774 170 q 786 152 786 170 q 775 103 786 136 q 772 89 772 95 q 773 83 772 87 q 784 79 774 79 q 790 114 785 87 q 797 159 797 147 q 793 189 797 169 q 790 230 790 211 q 790 242 790 231 q 801 266 791 254 q 824 274 808 274 q 840 298 825 291 q 865 304 852 304 q 901 293 887 304 q 876 311 901 300 q 879 325 877 319 q 881 336 880 330 q 883 346 882 342 q 883 353 883 349 q 883 359 883 355 q 882 366 882 363 q 881 376 882 368 q 879 385 879 384 q 877 396 878 387 q 874 409 875 406 q 853 456 869 431 q 819 490 836 481 q 846 452 831 481 q 875 355 875 397 q 871 325 875 339 q 844 305 865 305 q 830 315 833 305 q 826 352 827 324 q 821 401 826 380 q 790 472 809 454 l 787 475 q 760 548 774 530 q 741 587 741 569 q 744 606 741 595 q 747 622 747 616 q 745 631 747 626 q 726 640 743 637 q 705 649 719 642 q 689 656 692 656 q 683 673 683 656 q 688 693 683 682 q 707 703 693 703 q 728 690 722 703 q 731 673 731 680 q 730 663 731 667 q 727 656 727 658 q 734 649 727 649 q 743 651 738 649 q 749 667 749 653 q 732 721 749 707 q 709 731 722 730 q 667 686 667 728 q 669 670 667 678 q 668 663 669 663 q 647 668 663 668 q 639 667 642 668 l 637 667 q 632 670 633 667 l 632 675 q 624 712 632 697 q 604 727 616 727 q 585 714 592 727 q 577 684 577 699 q 579 669 577 678 q 585 653 581 660 q 591 647 589 647 q 600 653 596 647 l 600 656 q 597 656 600 656 l 596 656 q 589 664 593 656 q 585 680 585 671 q 604 702 585 702 q 617 692 612 702 q 622 675 622 683 q 621 665 621 666 q 607 651 611 657 q 594 641 602 646 q 585 635 585 635 q 577 620 577 627 q 581 614 577 616 q 600 597 593 606 q 628 587 606 587 q 671 594 648 587 q 682 597 672 595 q 698 602 692 600 q 711 608 704 604 q 721 616 718 612 q 727 621 723 621 q 731 619 728 621 q 733 615 733 618 q 724 606 733 608 q 676 587 707 601 q 633 576 650 576 q 608 578 623 576 l 606 578 q 605 577 605 578 q 612 568 605 575 q 642 558 624 558 q 659 561 650 558 q 692 576 676 566 q 722 591 716 591 q 728 585 727 591 q 724 579 728 582 q 715 575 719 576 l 706 570 q 675 550 693 564 q 633 528 646 528 q 623 530 627 528 q 593 564 613 535 q 583 574 586 574 q 582 569 582 574 q 562 518 582 551 q 551 491 555 507 q 551 482 551 486 q 557 462 551 472 q 528 420 547 459 q 507 356 510 382 q 506 338 506 351 l 506 317 q 503 298 506 300 q 498 291 501 291 q 490 296 494 291 q 473 345 473 312 q 476 365 473 355 l 476 370 q 475 373 476 373 l 475 373 q 466 341 466 361 q 477 294 466 320 q 489 281 479 288 q 500 272 499 275 q 548 231 509 262 q 591 196 586 201 q 598 176 598 189 q 592 159 598 168 q 571 149 585 150 q 585 128 575 142 q 598 103 595 115 q 601 71 601 92 m 612 670 q 614 678 614 670 q 611 687 614 682 q 606 692 608 692 q 602 689 602 692 q 605 686 603 686 q 608 683 608 686 l 608 676 q 612 670 608 670 m 798 569 q 803 572 801 569 q 805 579 805 575 q 796 589 805 588 q 782 598 787 591 q 778 604 779 603 l 775 603 q 773 596 773 600 q 780 581 773 591 q 798 569 790 569 m 719 676 q 722 677 720 676 l 723 679 q 721 688 723 684 q 716 693 719 692 q 712 695 713 695 q 707 694 707 695 q 709 692 707 693 q 719 677 717 689 q 719 676 719 676 m 720 772 q 721 773 720 772 q 726 777 722 774 q 733 782 730 780 q 737 782 734 782 q 744 783 741 782 q 749 786 747 783 q 747 788 749 787 q 743 791 745 789 q 739 794 740 793 q 728 801 732 801 q 722 793 722 801 l 722 789 q 719 782 722 786 q 716 776 716 777 q 718 774 716 775 q 720 772 719 772 m 840 26 q 786 56 799 26 q 753 69 780 68 q 694 70 734 70 q 606 60 627 70 q 581 47 589 54 q 538 28 559 28 q 486 42 524 28 q 418 63 448 56 l 373 71 q 339 82 348 76 q 330 100 330 88 q 336 126 330 109 q 342 149 342 143 q 340 166 342 156 q 336 183 338 176 q 334 199 334 191 q 334 204 334 200 q 338 214 334 209 q 364 220 345 219 q 393 226 384 220 q 412 241 406 233 q 417 265 417 250 q 420 248 420 255 q 402 216 420 227 q 373 209 391 209 l 359 210 q 342 197 342 210 q 351 171 342 186 q 357 148 357 157 q 349 122 357 138 q 343 102 343 108 q 360 87 343 93 q 399 80 369 85 q 444 71 429 74 q 479 60 455 67 q 535 47 519 47 l 541 47 q 571 61 561 50 q 581 86 581 71 q 577 111 581 97 q 569 133 574 124 q 560 150 565 142 q 483 260 505 237 q 445 283 461 283 q 431 279 437 283 q 429 278 430 278 q 423 299 423 278 q 439 349 423 323 q 449 368 446 359 q 475 437 472 432 q 506 490 490 473 q 563 579 557 555 q 556 721 557 630 l 556 728 q 567 791 556 764 q 615 838 578 819 q 668 848 633 848 q 713 841 690 848 q 752 822 736 835 q 794 767 779 804 q 808 707 808 735 l 808 688 q 882 501 808 581 q 928 426 907 474 q 958 309 958 357 q 957 294 958 304 q 952 275 956 284 q 943 265 947 266 q 932 256 939 264 q 920 240 926 249 q 901 225 913 231 q 876 218 889 218 q 858 220 866 218 q 843 233 850 222 q 833 252 837 241 q 817 266 825 266 q 810 264 816 266 q 801 243 805 262 q 799 229 799 237 q 804 198 799 215 q 809 159 809 182 q 805 109 809 138 q 804 95 804 102 q 813 64 804 75 q 844 48 825 48 q 856 49 845 48 q 886 65 867 50 q 927 95 913 87 q 974 115 941 103 q 1018 144 1018 129 q 1017 150 1018 145 q 1006 160 1015 154 q 983 171 998 166 q 961 192 968 176 q 954 222 954 208 q 954 234 954 224 q 960 248 954 243 q 964 222 961 233 q 981 191 970 201 q 1000 176 989 182 q 1021 160 1015 168 q 1027 145 1027 153 q 1025 138 1027 142 q 1008 120 1023 132 q 980 104 998 112 l 964 97 q 878 36 920 75 q 840 26 869 26 m 1153 920 q 1350 444 1350 722 q 1152 -29 1350 168 q 678 -227 954 -227 q 207 -29 402 -227 q 7 444 12 168 q 204 918 7 719 q 678 1116 402 1116 q 1153 920 956 1116 m 679 1067 q 240 883 425 1067 q 56 444 56 699 q 243 6 61 189 q 679 -178 425 -178 q 1117 6 934 -178 q 1301 444 1301 189 q 1120 883 1301 701 q 679 1067 936 1067 z "},"K":{"ha":1356,"x_min":7,"x_max":1350,"o":"m 502 127 q 464 143 479 127 q 449 180 449 159 q 464 218 449 202 q 502 233 479 233 q 539 218 524 233 q 554 180 554 202 q 539 143 554 159 q 502 127 524 127 m 872 127 q 835 142 850 127 q 820 179 820 157 q 835 217 820 201 q 872 232 850 232 q 910 217 895 232 q 925 179 925 201 q 910 142 925 157 q 872 127 895 127 m 385 483 q 348 498 363 483 q 332 535 332 513 q 348 573 333 557 q 385 588 363 588 q 422 572 407 588 q 437 535 437 557 q 422 498 437 513 q 385 483 407 483 m 689 700 q 651 715 667 700 q 636 752 636 730 q 652 790 637 775 q 689 805 667 805 q 726 790 711 805 q 741 752 741 774 q 726 715 741 730 q 689 700 711 700 m 987 483 q 950 498 965 483 q 935 535 935 513 q 950 572 935 557 q 987 588 965 588 q 1024 572 1008 588 q 1040 535 1040 557 q 1024 498 1040 513 q 987 483 1008 483 m 644 475 l 745 606 q 785 608 747 608 q 825 603 825 608 q 763 523 825 601 q 701 444 701 446 q 771 356 701 442 q 842 269 842 270 q 838 263 842 263 q 764 265 765 263 l 644 408 l 628 410 q 627 265 628 266 q 595 263 626 263 q 562 264 563 263 q 562 438 562 266 q 562 612 562 611 q 595 612 563 612 q 627 612 626 612 q 628 475 628 611 l 644 475 m 673 882 q 454 825 561 882 q 288 660 348 767 q 228 435 228 553 q 287 214 228 319 q 452 49 345 108 q 673 -10 558 -10 q 897 49 790 -10 q 1062 214 1003 108 q 1120 435 1120 319 q 1060 660 1120 553 q 893 825 1000 767 q 673 882 786 882 m 1153 920 q 1350 444 1350 722 q 1152 -29 1350 168 q 678 -227 954 -227 q 207 -29 402 -227 q 7 444 12 168 q 204 918 7 719 q 678 1116 402 1116 q 1153 920 956 1116 m 679 1067 q 240 883 425 1067 q 56 444 56 699 q 243 6 61 189 q 679 -178 425 -178 q 1117 6 934 -178 q 1301 444 1301 189 q 1120 883 1301 701 q 679 1067 936 1067 z "},"L":{"ha":1356,"x_min":7,"x_max":1350,"o":"m 862 831 l 862 831 l 1042 831 l 774 360 l 947 56 l 766 56 l 593 360 l 862 831 m 517 690 l 517 690 l 616 511 l 483 290 l 313 290 l 447 511 l 346 690 l 517 690 m 1153 920 q 1350 444 1350 722 q 1152 -29 1350 168 q 678 -227 954 -227 q 207 -29 402 -227 q 7 444 12 168 q 204 918 7 719 q 678 1116 402 1116 q 1153 920 956 1116 m 679 1067 q 240 883 425 1067 q 56 444 56 699 q 243 6 61 189 q 679 -178 425 -178 q 1117 6 934 -178 q 1301 444 1301 189 q 1120 883 1301 701 q 679 1067 936 1067 z "},"M":{"ha":1356,"x_min":7,"x_max":1350,"o":"m 456 708 q 491 710 488 708 q 493 727 493 713 q 491 744 493 741 q 456 746 488 746 q 421 744 424 746 q 418 727 418 741 q 421 710 418 713 q 456 708 424 708 m 696 302 q 762 319 732 302 q 809 366 791 336 q 826 431 826 395 q 809 496 826 467 q 762 543 791 525 q 696 561 732 561 q 631 543 661 561 q 585 496 602 525 q 568 431 568 467 q 585 366 568 395 q 631 319 602 336 q 696 302 661 302 m 678 154 q 1019 154 1010 154 q 1059 169 1040 156 q 1085 227 1085 188 l 1085 597 q 1059 656 1085 637 q 1019 671 1040 669 q 863 671 1010 671 l 826 746 l 568 746 l 530 671 l 346 671 l 337 671 q 298 656 316 669 q 271 597 271 637 l 271 227 q 298 169 271 188 q 337 154 316 156 q 678 154 346 154 m 900 524 q 874 534 885 524 q 863 561 863 545 q 874 587 863 576 q 900 597 885 597 q 926 587 915 597 q 938 561 938 576 q 926 534 938 545 q 900 524 915 524 m 696 264 q 613 287 651 264 q 553 348 575 310 q 530 431 530 385 q 553 515 530 477 q 613 575 575 553 q 696 597 651 597 q 781 575 743 597 q 841 515 819 553 q 863 431 863 477 q 841 348 863 385 q 781 287 819 310 q 696 264 743 264 m 1153 920 q 1350 444 1350 722 q 1152 -29 1350 168 q 678 -227 954 -227 q 207 -29 402 -227 q 7 444 12 168 q 204 918 7 719 q 678 1116 402 1116 q 1153 920 956 1116 m 679 1067 q 240 883 425 1067 q 56 444 56 699 q 243 6 61 189 q 679 -178 425 -178 q 1117 6 934 -178 q 1301 444 1301 189 q 1120 883 1301 701 q 679 1067 936 1067 z "},"N":{"ha":1356,"x_min":7,"x_max":1350,"o":"m 403 262 q 414 266 406 262 q 437 273 423 270 q 477 286 450 276 q 566 313 504 296 q 588 323 588 319 q 619 361 615 330 q 592 405 619 394 q 541 427 592 408 q 432 469 446 464 q 413 477 419 474 q 405 480 408 479 l 403 478 l 397 478 q 354 359 354 478 q 396 262 354 262 l 403 262 m 646 16 q 655 20 652 16 q 686 43 675 22 q 688 65 686 56 q 690 245 690 74 q 642 290 690 290 q 611 275 622 290 q 597 258 600 260 q 591 251 594 256 q 583 243 588 245 q 517 164 532 180 q 496 140 501 148 q 485 125 490 132 q 479 110 479 119 q 562 39 479 72 q 646 16 615 16 m 648 452 q 659 454 655 452 q 690 509 690 464 l 669 838 q 619 866 660 866 q 490 834 574 866 q 421 780 421 808 q 648 452 598 452 m 784 384 q 890 408 802 384 q 932 417 915 414 q 962 426 949 420 q 977 431 975 431 q 999 468 999 431 q 937 579 992 512 q 881 621 905 620 q 854 612 859 621 q 844 596 850 603 q 793 526 838 589 q 731 427 731 444 q 766 384 731 391 l 784 384 m 878 80 q 935 118 904 80 q 1003 229 1003 193 q 991 256 1003 248 q 976 267 979 264 q 943 276 973 269 q 907 288 928 279 q 856 305 885 296 q 809 320 827 313 q 782 326 792 326 q 751 311 764 326 q 739 281 739 296 q 854 87 739 262 q 878 80 864 80 m 1153 920 q 1350 444 1350 722 q 1152 -29 1350 168 q 678 -227 954 -227 q 207 -29 402 -227 q 7 444 12 168 q 204 918 7 719 q 678 1116 402 1116 q 1153 920 956 1116 m 679 1067 q 240 883 425 1067 q 56 444 56 699 q 243 6 61 189 q 679 -178 425 -178 q 1117 6 934 -178 q 1301 444 1301 189 q 1120 883 1301 701 q 679 1067 936 1067 z "},"O":{"ha":1356,"x_min":7,"x_max":1350,"o":"m 323 83 q 319 104 319 93 l 319 777 q 323 798 319 789 l 699 440 l 323 83 m 370 45 q 355 47 363 45 l 734 406 l 848 298 l 406 56 q 370 45 388 45 m 893 323 l 770 439 l 891 553 l 1008 488 q 1042 434 1042 469 q 1006 387 1042 409 l 893 323 m 735 473 l 357 833 q 369 835 363 835 q 406 823 387 835 l 846 579 l 735 473 m 1153 920 q 1350 444 1350 722 q 1152 -29 1350 168 q 678 -227 954 -227 q 207 -29 402 -227 q 7 444 12 168 q 204 918 7 719 q 678 1116 402 1116 q 1153 920 956 1116 m 679 1067 q 240 883 425 1067 q 56 444 56 699 q 243 6 61 189 q 679 -178 425 -178 q 1117 6 934 -178 q 1301 444 1301 189 q 1120 883 1301 701 q 679 1067 936 1067 z "},"P":{"ha":1356,"x_min":7,"x_max":1350,"o":"m 408 381 q 284 386 292 381 q 274 398 276 390 q 273 451 273 406 l 273 496 q 301 521 273 519 l 477 521 l 408 381 m 338 114 q 331 124 331 114 l 342 200 q 350 209 342 209 q 384 192 353 209 q 414 170 414 175 q 378 139 414 165 q 338 114 342 114 m 433 197 l 429 196 q 372 227 427 196 q 363 244 363 233 l 366 254 q 523 523 445 388 q 607 659 600 659 l 613 659 l 623 656 q 677 617 676 627 l 677 603 l 542 372 q 433 197 443 197 m 802 387 l 597 387 l 665 521 l 734 521 l 802 387 m 901 319 q 880 326 892 319 q 839 390 868 333 q 736 618 779 507 l 720 656 q 654 830 654 798 q 662 845 654 844 q 787 656 684 845 q 892 470 821 604 l 892 467 q 896 461 896 464 q 897 459 896 459 l 897 457 l 901 446 l 906 441 l 909 432 l 941 372 l 945 359 q 920 327 945 335 l 920 323 q 901 319 911 319 m 959 218 q 941 224 947 218 q 909 280 909 274 l 909 286 q 931 303 911 292 q 957 314 951 314 q 976 302 968 314 l 998 257 q 1001 238 1001 251 q 983 225 998 233 q 959 218 968 218 m 1060 90 q 1030 111 1056 99 q 975 169 975 138 q 980 179 975 174 q 987 186 985 184 q 989 191 989 189 q 1018 200 1006 200 q 1061 139 1057 200 l 1060 90 m 1057 381 l 975 381 l 910 521 q 1074 516 1066 521 q 1084 504 1082 512 q 1086 451 1086 496 q 1084 399 1086 406 q 1057 381 1080 381 m 1153 920 q 1350 444 1350 722 q 1152 -29 1350 168 q 678 -227 954 -227 q 207 -29 402 -227 q 7 444 12 168 q 204 918 7 719 q 678 1116 402 1116 q 1153 920 956 1116 m 679 1067 q 240 883 425 1067 q 56 444 56 699 q 243 6 61 189 q 679 -178 425 -178 q 1117 6 934 -178 q 1301 444 1301 189 q 1120 883 1301 701 q 679 1067 936 1067 z "},"Q":{"ha":1356,"x_min":7,"x_max":1350,"o":"m 677 38 q 545 66 609 38 q 382 227 433 117 q 351 357 353 290 l 351 813 q 393 852 351 852 q 439 813 439 852 q 442 598 439 662 q 677 700 538 700 q 834 658 758 700 q 865 638 850 649 q 1003 372 1003 543 q 935 166 1003 258 q 677 38 833 38 m 679 129 q 843 198 772 129 q 913 368 913 268 q 895 463 913 416 q 675 608 825 608 q 554 572 607 608 q 441 374 441 505 l 442 326 q 491 220 442 283 q 679 129 567 129 m 542 304 q 498 322 522 304 q 475 374 475 340 q 485 410 475 393 q 545 441 508 441 q 608 374 608 435 q 542 304 605 304 m 1153 920 q 1350 444 1350 722 q 1152 -29 1350 168 q 678 -227 954 -227 q 207 -29 402 -227 q 7 444 12 168 q 204 918 7 719 q 678 1116 402 1116 q 1153 920 956 1116 m 679 1067 q 240 883 425 1067 q 56 444 56 699 q 243 6 61 189 q 679 -178 425 -178 q 1117 6 934 -178 q 1301 444 1301 189 q 1120 883 1301 701 q 679 1067 936 1067 z "},"R":{"ha":1356,"x_min":7,"x_max":1350,"o":"m 678 831 q 954 718 840 831 q 1068 441 1068 604 q 954 165 1068 279 q 678 52 840 52 q 418 150 526 52 l 288 130 l 343 241 q 288 441 288 332 q 402 718 288 604 q 678 831 516 831 m 705 259 q 846 309 806 259 q 886 441 886 359 q 845 574 886 524 q 705 624 803 624 l 548 624 l 548 259 l 705 259 m 705 546 q 808 441 798 546 q 705 337 808 347 l 625 337 l 625 546 l 705 546 m 1153 920 q 1350 444 1350 722 q 1152 -29 1350 168 q 678 -227 954 -227 q 207 -29 402 -227 q 7 444 12 168 q 204 918 7 719 q 678 1116 402 1116 q 1153 920 956 1116 m 679 1067 q 240 883 425 1067 q 56 444 56 699 q 243 6 61 189 q 679 -178 425 -178 q 1117 6 934 -178 q 1301 444 1301 189 q 1120 883 1301 701 q 679 1067 936 1067 z "},"S":{"ha":1356,"x_min":7,"x_max":1350,"o":"m 677 13 q 413 120 528 13 q 298 389 298 227 q 338 566 298 496 q 509 726 401 675 q 636 821 625 785 q 645 880 641 838 q 732 793 691 824 q 808 747 766 770 q 937 661 889 703 q 1053 380 1051 566 q 941 114 1053 215 q 677 13 829 13 m 746 54 q 822 66 793 54 q 872 101 872 85 q 866 111 872 111 q 859 109 863 111 q 752 79 834 79 q 656 102 684 79 q 655 105 656 104 q 653 106 654 105 q 651 106 652 106 q 641 101 646 106 q 635 91 636 96 q 640 82 635 86 q 707 56 667 60 q 746 54 727 54 m 725 142 q 743 155 730 142 q 763 172 753 166 q 795 178 774 178 q 836 155 828 178 q 843 144 841 144 q 856 158 856 144 q 852 164 856 161 q 846 174 849 167 q 831 194 840 186 q 795 201 823 201 q 724 166 755 201 q 715 153 715 161 q 721 146 715 149 q 725 142 722 142 m 939 157 q 998 199 972 157 q 1020 302 1020 236 q 1014 335 1020 315 q 996 373 1008 356 q 964 389 983 389 q 892 346 941 389 q 819 302 842 302 q 741 334 788 302 q 670 371 709 353 q 588 389 631 389 q 486 356 528 389 q 443 273 443 323 q 461 222 443 245 q 505 183 486 194 q 588 158 536 158 q 659 174 622 158 q 730 209 695 190 q 819 245 785 243 q 884 197 841 242 q 912 169 899 181 q 939 157 926 157 m 1153 920 q 1350 444 1350 722 q 1152 -29 1350 168 q 678 -227 954 -227 q 207 -29 402 -227 q 7 444 12 168 q 204 918 7 719 q 678 1116 402 1116 q 1153 920 956 1116 m 679 1067 q 240 883 425 1067 q 56 444 56 699 q 243 6 61 189 q 679 -178 425 -178 q 1117 6 934 -178 q 1301 444 1301 189 q 1120 883 1301 701 q 679 1067 936 1067 z "},"T":{"ha":1356,"x_min":7,"x_max":1350,"o":"m 966 759 l 959 766 l 966 759 m 263 519 l 264 524 l 267 528 q 263 519 265 524 m 388 723 q 375 735 381 728 q 508 826 433 793 q 671 859 584 859 q 911 783 805 859 q 819 814 871 805 q 671 842 747 842 q 516 810 591 842 q 388 723 442 778 m 594 296 l 583 296 l 583 297 q 526 399 526 334 l 528 418 q 595 380 549 392 q 616 378 606 378 q 658 389 637 378 q 701 401 680 401 q 758 382 740 401 q 767 363 767 372 q 767 356 767 361 q 758 351 766 351 q 750 351 755 351 q 742 352 745 352 q 724 346 732 352 q 656 302 679 312 q 594 296 635 296 m 585 537 q 556 608 556 577 q 561 644 556 630 q 581 632 570 634 q 614 630 593 630 q 663 625 658 630 q 667 612 667 621 q 658 582 667 593 q 626 564 654 578 q 585 537 598 550 m 572 471 m 703 22 l 690 22 q 583 45 647 22 q 611 29 592 36 l 595 32 q 481 79 545 41 q 314 242 366 144 q 263 408 266 332 q 253 364 253 382 l 253 405 q 267 513 253 491 q 248 478 250 492 l 254 505 q 300 625 272 578 q 330 659 301 631 q 406 702 363 694 l 406 703 q 438 707 418 705 q 477 702 459 707 q 469 656 471 685 q 492 696 474 677 l 492 694 l 501 705 q 594 749 540 749 l 606 748 l 594 735 q 545 654 562 703 q 538 608 538 635 q 572 526 538 573 q 576 498 576 523 q 574 473 576 482 q 537 503 564 489 q 505 510 519 510 q 449 487 477 510 q 417 408 417 458 q 428 361 417 385 q 484 296 446 323 q 425 405 425 344 q 456 478 425 450 q 503 494 481 494 q 538 484 519 494 q 520 462 526 477 q 515 443 519 460 q 509 399 511 426 q 569 286 509 326 q 608 264 576 268 q 647 255 629 260 q 665 246 665 250 l 646 250 q 635 246 637 250 l 644 240 q 692 229 660 229 q 787 246 728 229 q 779 231 785 235 q 812 258 799 237 q 829 273 822 272 l 834 271 q 832 261 832 267 l 835 260 q 859 276 840 260 q 899 363 881 297 q 905 403 905 387 l 907 403 q 917 377 917 393 q 930 451 930 430 q 920 547 930 456 q 957 505 947 530 l 957 519 q 871 715 957 651 l 882 714 q 951 675 912 711 l 935 697 q 822 802 896 759 q 894 777 865 789 q 1007 682 941 755 q 1043 618 1031 654 l 1036 636 q 946 757 1020 686 l 946 775 q 1000 723 996 737 l 1000 735 q 1080 587 1072 673 q 1082 540 1082 566 q 1081 517 1081 534 l 1080 511 q 1095 550 1095 533 q 1109 460 1109 503 q 1108 431 1109 450 q 1090 376 1106 412 q 1065 319 1084 362 q 1071 285 1071 299 q 1025 191 1071 244 q 946 129 994 154 q 900 77 922 93 q 814 47 878 62 q 690 35 758 35 q 703 22 694 27 m 302 656 q 347 778 304 734 q 378 712 347 738 q 302 656 336 696 m 1153 920 q 1350 444 1350 722 q 1152 -29 1350 168 q 678 -227 954 -227 q 207 -29 402 -227 q 7 444 12 168 q 204 918 7 719 q 678 1116 402 1116 q 1153 920 956 1116 m 679 1067 q 240 883 425 1067 q 56 444 56 699 q 243 6 61 189 q 679 -178 425 -178 q 1117 6 934 -178 q 1301 444 1301 189 q 1120 883 1301 701 q 679 1067 936 1067 z "},"U":{"ha":1356,"x_min":7,"x_max":1350,"o":"m 673 214 q 654 222 663 214 l 437 439 q 429 459 429 448 q 437 478 429 469 l 500 541 q 520 550 507 550 q 538 541 532 550 l 673 406 l 982 715 q 1002 723 989 723 q 1021 715 1014 723 l 1084 652 q 1093 633 1093 644 q 1084 614 1093 623 l 692 222 q 673 214 686 214 m 676 37 q 608 65 639 37 l 293 380 q 264 448 264 411 q 293 517 264 485 l 608 828 q 676 857 639 857 q 745 828 714 857 l 889 684 l 673 470 l 572 572 q 520 594 548 594 q 467 572 490 594 l 403 509 q 382 456 382 485 q 403 405 382 427 l 625 186 q 659 167 640 172 l 663 164 l 676 164 q 729 186 705 164 l 1059 517 q 1090 448 1090 485 q 1059 380 1090 411 l 745 65 q 676 37 714 37 m 1153 920 q 1350 444 1350 722 q 1152 -29 1350 168 q 678 -227 954 -227 q 207 -29 402 -227 q 7 444 12 168 q 204 918 7 719 q 678 1116 402 1116 q 1153 920 956 1116 m 679 1067 q 240 883 425 1067 q 56 444 56 699 q 243 6 61 189 q 679 -178 425 -178 q 1117 6 934 -178 q 1301 444 1301 189 q 1120 883 1301 701 q 679 1067 936 1067 z "},"V":{"ha":1356,"x_min":7,"x_max":1350,"o":"m 826 28 l 609 28 l 609 139 q 555 132 579 132 q 421 214 463 132 q 363 300 398 260 q 340 323 340 317 q 354 329 340 329 l 363 327 q 425 300 400 327 l 445 274 q 551 209 485 209 q 609 219 587 209 q 635 300 609 278 q 480 364 543 312 q 418 517 418 416 q 446 677 418 635 q 472 709 459 695 q 458 772 458 734 q 472 845 458 802 l 507 834 q 582 764 545 817 q 623 782 596 777 q 676 789 650 788 q 717 789 703 789 q 852 764 822 789 q 961 845 902 833 q 977 774 977 804 q 961 708 977 739 q 988 677 976 695 q 1008 622 1000 659 q 1017 517 1017 585 q 954 364 1017 416 q 800 300 890 312 q 819 261 811 288 q 826 219 826 235 l 826 28 m 1153 920 q 1350 444 1350 722 q 1152 -29 1350 168 q 678 -227 954 -227 q 207 -29 402 -227 q 7 444 12 168 q 204 918 7 719 q 678 1116 402 1116 q 1153 920 956 1116 m 679 1067 q 240 883 425 1067 q 56 444 56 699 q 243 6 61 189 q 679 -178 425 -178 q 1117 6 934 -178 q 1301 444 1301 189 q 1120 883 1301 701 q 679 1067 936 1067 z "},"W":{"ha":1356,"x_min":7,"x_max":1350,"o":"m 538 745 l 498 745 l 498 780 l 466 780 l 466 745 l 426 745 l 426 855 l 466 855 l 466 819 l 498 819 l 498 855 l 538 855 l 538 745 m 635 745 l 599 745 l 599 819 l 566 819 l 566 855 l 668 855 l 668 819 l 635 819 l 635 745 m 816 745 l 777 745 l 777 800 l 752 758 l 727 800 l 727 745 l 688 745 l 688 855 l 727 855 l 752 817 l 777 855 l 816 855 l 816 745 m 927 745 l 835 745 l 835 855 l 875 855 l 875 780 l 927 780 l 927 745 m 677 20 l 426 75 l 371 688 l 983 688 l 927 75 l 677 20 m 677 131 l 816 187 l 844 438 l 579 438 l 566 494 l 857 494 l 871 576 l 481 576 l 509 354 l 760 354 l 747 243 l 677 215 l 608 243 l 593 299 l 515 299 l 538 187 l 677 131 m 1153 920 q 1350 444 1350 722 q 1152 -29 1350 168 q 678 -227 954 -227 q 207 -29 402 -227 q 7 444 12 168 q 204 918 7 719 q 678 1116 402 1116 q 1153 920 956 1116 m 679 1067 q 240 883 425 1067 q 56 444 56 699 q 243 6 61 189 q 679 -178 425 -178 q 1117 6 934 -178 q 1301 444 1301 189 q 1120 883 1301 701 q 679 1067 936 1067 z "},"X":{"ha":1356,"x_min":7,"x_max":1350,"o":"m 829 98 l 726 98 q 718 102 719 98 l 666 289 l 469 289 q 417 99 419 100 q 365 98 415 98 q 314 99 315 98 q 313 103 313 100 q 401 414 313 105 q 493 741 491 730 q 495 772 494 751 q 500 779 495 779 q 635 778 633 779 q 736 440 637 777 q 835 102 835 103 q 829 98 835 98 m 640 389 l 620 471 q 567 680 581 621 l 566 680 q 494 389 549 591 l 640 389 m 981 670 q 919 733 919 673 q 937 780 919 763 q 983 797 956 797 q 1045 733 1045 789 q 1027 687 1045 703 q 981 670 1009 670 m 1031 98 l 935 98 q 927 105 927 98 l 926 594 q 935 600 926 600 l 1034 600 q 1039 593 1039 600 l 1039 105 q 1031 98 1039 98 m 1153 920 q 1350 444 1350 722 q 1152 -29 1350 168 q 678 -227 954 -227 q 207 -29 402 -227 q 7 444 12 168 q 204 918 7 719 q 678 1116 402 1116 q 1153 920 956 1116 m 679 1067 q 240 883 425 1067 q 56 444 56 699 q 243 6 61 189 q 679 -178 425 -178 q 1117 6 934 -178 q 1301 444 1301 189 q 1120 883 1301 701 q 679 1067 936 1067 z "},"Y":{"ha":1356,"x_min":7,"x_max":1350,"o":"m 691 81 q 543 117 603 96 q 536 119 541 119 q 511 130 532 119 q 487 153 487 136 q 496 182 488 168 q 504 202 503 195 q 576 341 530 262 q 691 81 582 184 m 487 501 q 307 583 363 501 q 278 655 278 621 q 282 681 278 669 q 416 752 310 752 q 686 561 591 752 q 691 556 691 561 q 694 551 691 551 q 487 501 572 501 m 744 572 q 722 669 722 615 q 728 709 722 691 q 827 804 754 804 q 882 739 882 804 q 744 572 882 635 m 1011 190 q 975 201 994 190 q 854 453 854 298 q 915 528 854 528 q 933 523 924 528 q 1063 401 1022 491 q 1082 305 1082 352 q 1011 190 1082 190 m 857 78 q 671 224 733 78 q 643 343 643 283 q 722 493 643 439 q 786 523 779 523 q 795 525 793 523 l 800 525 q 783 446 783 498 q 819 288 783 368 q 933 140 857 198 q 980 119 951 125 q 977 118 977 119 q 974 117 977 117 q 968 112 971 117 q 857 78 915 78 m 1153 920 q 1350 444 1350 722 q 1152 -29 1350 168 q 678 -227 954 -227 q 207 -29 402 -227 q 7 444 12 168 q 204 918 7 719 q 678 1116 402 1116 q 1153 920 956 1116 m 679 1067 q 240 883 425 1067 q 56 444 56 699 q 243 6 61 189 q 679 -178 425 -178 q 1117 6 934 -178 q 1301 444 1301 189 q 1120 883 1301 701 q 679 1067 936 1067 z "},"Z":{"ha":1356,"x_min":7,"x_max":1350,"o":"m 850 70 q 721 104 783 70 q 660 201 660 138 q 656 295 660 264 l 656 387 q 568 471 656 471 q 459 380 470 471 l 459 131 q 384 77 459 77 q 313 127 313 77 q 315 798 313 463 q 370 813 359 813 q 459 723 437 813 l 459 506 q 526 577 473 556 q 616 599 579 599 q 799 417 762 599 l 799 192 q 847 146 799 146 q 899 189 899 146 l 899 533 q 960 591 899 591 q 1044 543 1044 591 l 1044 216 q 982 104 1044 138 q 850 70 919 70 m 972 659 q 923 670 948 659 q 888 741 899 682 l 888 744 q 904 788 888 764 q 968 812 920 812 q 1015 801 991 812 q 1048 736 1038 791 q 972 659 1036 662 m 1153 920 q 1350 444 1350 722 q 1152 -29 1350 168 q 678 -227 954 -227 q 207 -29 402 -227 q 7 444 12 168 q 204 918 7 719 q 678 1116 402 1116 q 1153 920 956 1116 m 679 1067 q 240 883 425 1067 q 56 444 56 699 q 243 6 61 189 q 679 -178 425 -178 q 1117 6 934 -178 q 1301 444 1301 189 q 1120 883 1301 701 q 679 1067 936 1067 z "},"[":{"ha":1356,"x_min":7,"x_max":1350,"o":"m 823 429 q 819 418 823 425 l 661 259 q 650 256 656 256 q 640 259 643 256 l 480 419 q 475 429 475 423 q 480 439 475 435 q 490 444 485 444 l 592 444 l 592 603 q 597 613 592 608 q 606 617 600 617 l 693 617 q 703 613 699 617 q 707 603 707 608 l 707 444 l 809 444 q 819 439 815 444 q 823 429 823 435 m 1114 328 q 1076 436 1114 388 q 979 497 1038 483 q 997 560 997 524 q 964 642 997 608 q 882 675 930 675 q 807 647 839 675 q 722 752 781 713 q 592 791 662 791 q 428 723 496 791 q 361 560 361 656 q 361 540 361 553 q 276 465 307 515 q 244 356 244 415 q 304 214 244 273 q 446 154 363 154 l 940 154 q 1062 205 1012 154 q 1114 328 1114 256 m 1153 920 q 1350 444 1350 722 q 1152 -29 1350 168 q 678 -227 954 -227 q 207 -29 402 -227 q 7 444 12 168 q 204 918 7 719 q 678 1116 402 1116 q 1153 920 956 1116 m 679 1067 q 240 883 425 1067 q 56 444 56 699 q 243 6 61 189 q 679 -178 425 -178 q 1117 6 934 -178 q 1301 444 1301 189 q 1120 883 1301 701 q 679 1067 936 1067 z "},"\\":{"ha":1356,"x_min":7,"x_max":1350,"o":"m 657 39 l 651 39 q 641 56 641 39 q 650 123 650 111 q 647 143 650 135 q 632 157 644 152 q 610 164 621 162 q 354 281 453 186 q 254 504 254 376 q 312 677 254 600 q 465 802 369 755 q 680 848 562 848 q 893 802 796 848 q 1046 677 989 755 q 1103 504 1103 600 q 1013 292 1103 390 q 766 94 927 196 q 657 39 678 39 m 578 394 q 599 396 597 394 q 602 495 602 399 q 599 593 602 591 q 593 595 597 595 q 557 593 560 595 q 555 495 555 591 q 557 396 555 399 q 578 394 560 394 m 783 394 q 804 396 802 394 q 806 495 806 399 q 804 593 806 591 q 798 595 802 595 q 762 593 765 595 q 760 478 760 591 q 674 594 675 593 q 671 595 673 594 l 654 595 q 633 593 635 595 q 631 495 631 591 q 633 396 631 399 q 654 394 635 394 q 676 402 676 394 l 676 513 l 764 396 q 783 394 767 394 m 521 394 q 529 418 529 394 q 521 440 529 440 l 440 440 l 440 588 q 418 595 440 595 q 394 588 394 595 l 394 402 q 401 394 394 394 l 521 394 m 963 394 q 971 418 971 394 q 963 440 971 440 l 881 440 l 881 471 q 968 474 966 471 q 971 495 971 477 q 963 518 971 518 l 881 518 l 881 549 l 963 549 q 971 572 971 549 q 963 595 971 595 q 838 593 840 595 q 836 495 836 591 q 838 396 836 399 q 844 394 840 394 l 963 394 m 1153 920 q 1350 444 1350 722 q 1152 -29 1350 168 q 678 -227 954 -227 q 207 -29 402 -227 q 7 444 12 168 q 204 918 7 719 q 678 1116 402 1116 q 1153 920 956 1116 m 679 1067 q 240 883 425 1067 q 56 444 56 699 q 243 6 61 189 q 679 -178 425 -178 q 1117 6 934 -178 q 1301 444 1301 189 q 1120 883 1301 701 q 679 1067 936 1067 z "},"]":{"ha":1356,"x_min":7,"x_max":1350,"o":"m 631 406 l 576 406 l 576 683 l 416 683 l 237 391 l 237 313 l 463 313 l 463 217 l 576 217 l 576 313 l 631 313 l 631 406 m 463 585 l 463 406 l 353 406 l 461 585 l 463 585 m 954 683 l 806 491 l 805 491 l 805 683 l 684 683 l 684 217 l 805 217 l 805 419 l 806 419 l 962 217 l 1120 217 l 918 463 l 1103 683 l 954 683 m 1153 920 q 1350 444 1350 722 q 1152 -29 1350 168 q 678 -227 954 -227 q 207 -29 402 -227 q 7 444 12 168 q 204 918 7 719 q 678 1116 402 1116 q 1153 920 956 1116 m 679 1067 q 240 883 425 1067 q 56 444 56 699 q 243 6 61 189 q 679 -178 425 -178 q 1117 6 934 -178 q 1301 444 1301 189 q 1120 883 1301 701 q 679 1067 936 1067 z "},"^":{"ha":1356,"x_min":7,"x_max":1350,"o":"m 941 234 q 863 267 895 234 q 831 375 831 300 q 947 516 831 508 q 979 511 967 516 l 978 240 q 941 234 960 234 m 937 149 q 1078 180 1006 149 q 1082 186 1082 182 q 1078 491 1078 218 q 1077 745 1078 744 q 1029 746 1076 746 q 981 744 983 746 q 979 741 979 743 l 979 598 q 951 599 968 599 q 791 533 850 599 q 733 371 733 467 q 791 204 733 259 q 937 149 848 149 m 650 154 q 701 158 701 154 q 546 460 701 159 q 692 743 692 739 q 688 746 692 746 l 600 746 q 490 522 590 746 q 414 683 452 603 q 382 745 384 745 q 329 746 380 746 q 277 741 277 746 l 423 450 l 273 161 q 271 158 271 159 q 367 155 272 155 q 481 386 380 155 l 483 386 q 594 156 591 158 q 650 154 597 154 m 1153 920 q 1350 444 1350 722 q 1152 -29 1350 168 q 678 -227 954 -227 q 207 -29 402 -227 q 7 444 12 168 q 204 918 7 719 q 678 1116 402 1116 q 1153 920 956 1116 m 679 1067 q 240 883 425 1067 q 56 444 56 699 q 243 6 61 189 q 679 -178 425 -178 q 1117 6 934 -178 q 1301 444 1301 189 q 1120 883 1301 701 q 679 1067 936 1067 z "},"_":{"ha":1356,"x_min":7,"x_max":1350,"o":"m 964 132 q 1009 177 1006 132 q 989 218 1009 208 l 989 221 q 991 222 989 222 q 1026 269 1023 233 q 998 318 1026 304 l 998 321 q 999 323 998 323 q 1041 377 1041 336 q 1004 431 1039 410 l 1002 432 l 1004 435 q 1041 498 1041 446 q 1033 530 1041 517 q 991 552 1017 552 l 816 552 q 801 555 808 552 l 795 560 l 797 563 l 801 568 q 813 598 803 576 q 844 709 844 668 q 836 767 844 745 l 827 791 l 816 808 q 774 829 800 826 q 732 786 732 825 q 730 719 730 756 q 709 690 730 712 q 659 635 695 677 q 566 406 566 528 l 566 159 q 576 135 568 140 l 587 132 l 964 132 m 492 77 q 507 83 501 77 q 513 445 513 90 q 492 466 513 466 l 342 466 q 319 445 320 466 l 319 98 q 342 77 319 77 l 492 77 m 1153 920 q 1350 444 1350 722 q 1152 -29 1350 168 q 678 -227 954 -227 q 207 -29 402 -227 q 7 444 12 168 q 204 918 7 719 q 678 1116 402 1116 q 1153 920 956 1116 m 679 1067 q 240 883 425 1067 q 56 444 56 699 q 243 6 61 189 q 679 -178 425 -178 q 1117 6 934 -178 q 1301 444 1301 189 q 1120 883 1301 701 q 679 1067 936 1067 z "},"`":{"ha":1356,"x_min":7,"x_max":1350,"o":"m 677 73 q 1003 368 894 228 q 1103 601 1103 494 q 1096 659 1103 630 q 1024 767 1076 726 q 895 815 972 808 q 868 817 880 817 q 786 802 822 817 q 724 759 751 786 q 677 697 696 732 q 631 760 659 734 q 565 801 603 787 q 480 815 527 815 q 372 793 418 815 q 259 649 286 751 q 254 595 254 623 q 358 361 254 486 q 677 73 463 236 m 1153 920 q 1350 444 1350 722 q 1152 -29 1350 168 q 678 -227 954 -227 q 207 -29 402 -227 q 7 444 12 168 q 204 918 7 719 q 678 1116 402 1116 q 1153 920 956 1116 m 679 1067 q 240 883 425 1067 q 56 444 56 699 q 243 6 61 189 q 679 -178 425 -178 q 1117 6 934 -178 q 1301 444 1301 189 q 1120 883 1301 701 q 679 1067 936 1067 z "},"a":{"ha":1356,"x_min":7,"x_max":1350,"o":"m 359 269 q 396 284 381 269 q 412 323 412 299 l 412 551 q 396 590 412 574 q 359 606 381 606 q 319 590 336 606 q 303 551 303 574 l 303 323 q 319 284 303 299 q 359 269 336 269 m 998 269 q 1035 284 1020 269 q 1050 323 1050 299 l 1050 551 q 1035 590 1050 574 q 998 606 1020 606 q 958 590 974 606 q 943 551 943 574 l 943 323 q 958 284 943 299 q 998 269 974 269 m 923 614 q 889 730 923 678 q 798 810 854 783 l 833 875 l 835 878 q 827 886 835 886 q 783 818 823 886 q 677 840 730 840 q 572 818 621 840 q 528 886 532 886 q 519 879 519 886 q 559 812 519 878 q 466 731 501 783 q 431 614 431 680 l 923 614 m 565 703 q 551 709 557 703 q 545 725 545 715 q 551 739 545 732 q 565 745 557 745 q 580 739 574 745 q 586 725 586 732 q 580 709 586 715 q 565 703 574 703 m 788 703 q 770 725 770 703 q 775 739 770 732 q 788 745 781 745 q 804 739 798 745 q 810 725 810 732 q 788 703 810 703 m 770 7 q 808 24 792 7 q 825 64 825 40 l 825 183 l 863 183 q 904 200 888 183 q 921 241 921 218 l 921 595 l 434 595 l 434 241 q 451 200 434 218 q 492 183 468 183 l 532 183 l 532 64 q 548 24 532 40 q 586 7 564 7 q 624 24 608 7 q 640 64 640 40 l 640 183 l 714 183 l 714 64 q 730 24 714 40 q 770 7 745 7 m 1153 920 q 1350 444 1350 722 q 1152 -29 1350 168 q 678 -227 954 -227 q 207 -29 402 -227 q 7 444 12 168 q 204 918 7 719 q 678 1116 402 1116 q 1153 920 956 1116 m 679 1067 q 240 883 425 1067 q 56 444 56 699 q 243 6 61 189 q 679 -178 425 -178 q 1117 6 934 -178 q 1301 444 1301 189 q 1120 883 1301 701 q 679 1067 936 1067 z "},"b":{"ha":1356,"x_min":7,"x_max":1350,"o":"m 677 544 l 539 544 q 504 557 517 544 q 490 590 490 570 q 504 624 490 610 q 539 638 517 638 l 677 638 q 711 624 698 638 q 725 590 725 610 q 711 557 725 570 q 677 544 698 544 m 819 256 l 539 256 q 504 271 517 256 q 490 304 490 286 q 504 338 490 326 q 539 351 517 351 l 819 351 q 853 338 840 351 q 866 304 866 326 q 853 271 866 286 q 819 256 840 256 m 1069 514 l 1063 528 l 1053 536 q 1032 540 1046 539 q 1001 543 1017 541 q 969 545 984 544 q 945 553 954 547 q 931 580 935 562 q 925 621 928 597 q 914 677 919 665 q 901 706 909 690 q 866 757 890 733 q 817 799 843 781 q 761 827 790 817 q 709 842 732 838 l 535 842 q 437 822 482 842 q 357 769 391 803 q 304 689 323 734 q 285 591 285 644 l 285 301 q 304 203 285 248 q 357 124 323 158 q 437 70 391 90 q 535 51 482 51 l 822 51 q 918 70 874 51 q 997 124 962 90 q 1051 203 1031 158 q 1072 301 1072 248 l 1072 503 l 1069 514 m 1153 920 q 1350 444 1350 722 q 1152 -29 1350 168 q 678 -227 954 -227 q 207 -29 402 -227 q 7 444 12 168 q 204 918 7 719 q 678 1116 402 1116 q 1153 920 956 1116 m 679 1067 q 240 883 425 1067 q 56 444 56 699 q 243 6 61 189 q 679 -178 425 -178 q 1117 6 934 -178 q 1301 444 1301 189 q 1120 883 1301 701 q 679 1067 936 1067 z "},"c":{"ha":1356,"x_min":7,"x_max":1350,"o":"m 826 629 l 899 629 l 899 701 l 826 701 l 826 629 m 680 629 q 622 618 650 629 q 570 592 594 608 l 387 592 l 387 629 q 418 706 387 675 q 496 738 450 738 l 861 738 q 940 706 907 738 q 972 629 972 675 l 972 592 l 788 592 q 736 618 763 608 q 680 629 710 629 m 680 555 q 757 523 724 555 q 789 445 789 492 q 757 367 789 398 q 680 336 724 336 q 601 367 633 336 q 568 445 568 398 q 601 523 568 492 q 680 555 633 555 m 861 152 l 496 152 q 418 184 450 152 q 387 262 387 217 l 387 555 l 532 555 q 506 503 516 530 q 496 445 496 476 q 510 374 496 407 q 549 316 525 341 q 608 276 574 291 q 680 262 642 262 q 751 276 718 262 q 808 316 784 291 q 847 374 832 341 q 861 445 861 407 q 851 503 861 476 q 826 555 841 530 l 972 555 l 972 262 q 940 184 972 217 q 861 152 907 152 m 1044 666 q 1002 769 1044 727 q 899 812 960 812 l 458 812 q 355 769 397 812 q 313 666 313 727 l 313 226 q 355 122 313 164 q 458 80 397 80 l 899 80 q 1002 122 960 80 q 1044 226 1044 164 l 1044 666 m 1153 920 q 1350 444 1350 722 q 1152 -29 1350 168 q 678 -227 954 -227 q 207 -29 402 -227 q 7 444 12 168 q 204 918 7 719 q 678 1116 402 1116 q 1153 920 956 1116 m 679 1067 q 240 883 425 1067 q 56 444 56 699 q 243 6 61 189 q 679 -178 425 -178 q 1117 6 934 -178 q 1301 444 1301 189 q 1120 883 1301 701 q 679 1067 936 1067 z "},"d":{"ha":1356,"x_min":7,"x_max":1350,"o":"m 836 827 q 729 710 745 818 q 726 683 726 697 q 820 576 726 597 q 875 569 850 569 q 979 690 976 569 l 979 697 q 863 828 979 828 q 836 827 850 828 m 350 680 q 404 608 350 625 q 445 602 427 602 q 509 675 503 602 l 509 681 q 431 758 509 751 l 421 758 q 350 680 350 758 m 585 777 q 524 699 524 763 l 524 688 q 590 597 528 614 q 636 591 616 591 q 707 677 707 591 l 707 686 q 627 784 704 784 q 585 777 608 784 m 814 543 q 733 499 808 543 q 638 570 718 561 q 610 572 624 572 q 519 532 551 572 q 441 585 502 585 q 412 583 427 585 q 323 499 325 567 l 323 291 l 486 291 q 492 212 492 224 l 492 208 l 679 208 l 679 51 q 1017 59 948 59 l 1033 56 l 1033 133 q 1022 404 1033 351 q 861 548 988 548 q 814 543 839 548 m 1153 920 q 1350 444 1350 722 q 1152 -29 1350 168 q 678 -227 954 -227 q 207 -29 402 -227 q 7 444 12 168 q 204 918 7 719 q 678 1116 402 1116 q 1153 920 956 1116 m 679 1067 q 240 883 425 1067 q 56 444 56 699 q 243 6 61 189 q 679 -178 425 -178 q 1117 6 934 -178 q 1301 444 1301 189 q 1120 883 1301 701 q 679 1067 936 1067 z "},"e":{"ha":1356,"x_min":7,"x_max":1350,"o":"m 330 422 q 330 447 330 434 q 359 581 330 519 q 524 141 446 356 q 330 422 343 226 m 793 125 q 682 101 740 101 q 581 119 633 101 q 631 266 599 174 q 683 414 669 372 q 739 269 704 363 q 793 125 775 169 m 905 466 q 876 359 902 446 q 844 256 858 302 q 813 347 842 260 q 720 619 728 591 q 770 637 770 624 l 770 640 q 738 649 767 649 q 717 647 729 649 q 655 646 685 646 q 601 647 626 646 q 583 649 591 649 q 555 637 555 649 l 555 636 q 604 619 555 627 l 603 624 l 659 473 q 581 244 581 243 l 583 252 q 456 619 539 375 q 508 633 508 627 l 508 634 q 470 646 508 646 l 452 646 q 380 646 425 646 q 643 799 475 787 q 673 800 658 800 q 901 711 803 800 l 899 711 q 852 684 868 711 q 842 649 842 667 q 848 621 842 636 q 905 466 905 468 m 1036 427 q 865 157 1025 252 q 921 319 885 221 q 980 479 967 444 q 996 581 996 528 q 995 609 996 594 l 996 609 l 996 608 q 1038 450 1038 534 q 1036 427 1038 438 m 1084 469 q 966 733 1072 626 q 704 852 858 839 l 652 852 q 391 733 497 839 q 271 469 283 624 l 271 420 q 391 157 284 265 q 652 38 497 51 l 704 38 q 966 157 858 51 q 1084 420 1072 265 l 1084 469 m 1153 920 q 1350 444 1350 722 q 1152 -29 1350 168 q 678 -227 954 -227 q 207 -29 402 -227 q 7 444 12 168 q 204 918 7 719 q 678 1116 402 1116 q 1153 920 956 1116 m 679 1067 q 240 883 425 1067 q 56 444 56 699 q 243 6 61 189 q 679 -178 425 -178 q 1117 6 934 -178 q 1301 444 1301 189 q 1120 883 1301 701 q 679 1067 936 1067 z "},"f":{"ha":1356,"x_min":7,"x_max":1350,"o":"m 745 9 l 745 407 l 880 407 l 899 562 l 745 562 l 745 648 q 749 694 745 685 q 756 709 749 697 q 833 736 771 736 l 905 736 l 905 875 q 786 882 848 882 q 614 793 665 882 q 585 680 585 744 l 585 562 l 452 562 l 452 407 l 585 407 l 585 9 l 745 9 m 1153 920 q 1350 444 1350 722 q 1152 -29 1350 168 q 678 -227 954 -227 q 207 -29 402 -227 q 7 444 12 168 q 204 918 7 719 q 678 1116 402 1116 q 1153 920 956 1116 m 679 1067 q 240 883 425 1067 q 56 444 56 699 q 243 6 61 189 q 679 -178 425 -178 q 1117 6 934 -178 q 1301 444 1301 189 q 1120 883 1301 701 q 679 1067 936 1067 z "},"g":{"ha":1356,"x_min":7,"x_max":1350,"o":"m 512 144 q 686 199 604 144 q 790 439 790 281 q 789 475 790 456 l 789 477 q 511 475 511 477 l 511 378 q 677 376 520 377 q 667 347 677 369 q 624 288 661 325 q 511 252 572 252 q 374 314 433 252 q 332 435 332 364 q 356 528 332 486 q 402 581 374 561 q 508 616 446 616 q 631 578 570 616 q 640 585 633 578 q 704 653 688 632 l 704 654 q 523 725 612 725 l 511 725 q 340 669 417 725 q 234 521 262 612 q 221 429 221 486 q 238 336 221 382 q 357 187 274 241 q 512 144 428 144 m 1050 310 l 1050 393 l 1134 394 l 1134 477 l 1050 477 l 1050 560 l 968 560 l 968 477 l 885 477 l 885 394 l 968 393 l 968 310 l 1050 310 m 1153 920 q 1350 444 1350 722 q 1152 -29 1350 168 q 678 -227 954 -227 q 207 -29 402 -227 q 7 444 12 168 q 204 918 7 719 q 678 1116 402 1116 q 1153 920 956 1116 m 679 1067 q 240 883 425 1067 q 56 444 56 699 q 243 6 61 189 q 679 -178 425 -178 q 1117 6 934 -178 q 1301 444 1301 189 q 1120 883 1301 701 q 679 1067 936 1067 z "},"h":{"ha":1356,"x_min":7,"x_max":1350,"o":"m 555 55 q 590 61 576 56 q 621 72 605 66 q 653 83 636 78 q 696 87 671 87 q 768 72 731 87 q 836 56 806 56 q 909 87 873 56 q 967 153 936 109 q 1011 230 996 192 q 1024 267 1024 262 q 968 302 991 280 q 911 427 911 352 q 977 561 911 503 q 1002 578 998 578 q 961 619 985 604 q 916 643 938 634 q 875 654 894 651 q 848 657 857 656 q 832 657 840 657 q 753 641 797 657 q 684 621 699 621 q 638 633 671 621 q 544 654 578 654 q 443 628 489 654 q 368 555 396 602 q 332 419 332 497 q 359 276 332 352 q 422 155 381 211 q 481 86 455 109 q 549 55 517 55 l 555 55 m 683 665 q 748 681 715 665 q 804 722 781 696 q 848 832 848 773 l 846 848 q 723 789 777 845 q 676 685 676 739 q 677 665 676 675 l 683 665 m 1153 920 q 1350 444 1350 722 q 1152 -29 1350 168 q 678 -227 954 -227 q 207 -29 402 -227 q 7 444 12 168 q 204 918 7 719 q 678 1116 402 1116 q 1153 920 956 1116 m 679 1067 q 240 883 425 1067 q 56 444 56 699 q 243 6 61 189 q 679 -178 425 -178 q 1117 6 934 -178 q 1301 444 1301 189 q 1120 883 1301 701 q 679 1067 936 1067 z "},"i":{"ha":1356,"x_min":7,"x_max":1350,"o":"m 720 506 q 722 509 720 509 l 722 506 l 720 506 m 475 576 l 315 576 l 315 98 l 475 98 l 475 576 m 395 644 q 461 667 435 644 q 486 724 486 690 q 459 784 484 761 q 397 806 435 806 q 331 784 356 806 q 306 724 306 761 q 330 667 306 690 q 395 644 353 644 m 1048 372 q 997 536 1048 484 q 866 588 945 588 q 769 561 800 588 q 722 509 739 534 l 722 576 l 564 576 l 564 320 l 564 98 l 722 98 l 722 366 q 722 387 722 376 q 726 404 722 397 q 755 445 736 427 q 809 463 775 463 q 870 432 852 463 q 888 353 888 401 l 888 98 l 1048 98 l 1048 372 m 1153 920 q 1350 444 1350 722 q 1152 -29 1350 168 q 678 -227 954 -227 q 207 -29 402 -227 q 7 444 12 168 q 204 918 7 719 q 678 1116 402 1116 q 1153 920 956 1116 m 679 1067 q 240 883 425 1067 q 56 444 56 699 q 243 6 61 189 q 679 -178 425 -178 q 1117 6 934 -178 q 1301 444 1301 189 q 1120 883 1301 701 q 679 1067 936 1067 z "},"j":{"ha":1356,"x_min":7,"x_max":1350,"o":"m 1021 374 l 1016 374 q 965 370 1005 374 l 965 522 l 1018 522 q 1021 381 1021 410 l 1021 374 m 883 589 l 883 300 q 1010 296 981 296 l 1018 296 l 1018 264 l 883 264 l 883 199 l 1101 199 l 1101 589 l 883 589 m 711 370 l 711 522 l 763 522 l 763 370 l 711 370 m 627 589 l 627 300 q 755 296 729 296 l 766 296 l 763 264 l 627 264 l 627 199 l 847 199 l 847 589 l 627 589 m 506 589 l 506 300 l 591 300 l 591 589 l 506 589 m 506 707 l 506 626 q 585 621 570 621 q 593 623 593 621 l 591 623 l 591 707 l 506 707 m 334 370 l 332 366 l 332 378 q 336 522 332 409 l 389 522 l 389 370 l 334 370 m 392 707 l 389 589 l 252 589 l 252 300 l 471 300 l 471 707 l 392 707 m 1153 920 q 1350 444 1350 722 q 1152 -29 1350 168 q 678 -227 954 -227 q 207 -29 402 -227 q 7 444 12 168 q 204 918 7 719 q 678 1116 402 1116 q 1153 920 956 1116 m 679 1067 q 240 883 425 1067 q 56 444 56 699 q 243 6 61 189 q 679 -178 425 -178 q 1117 6 934 -178 q 1301 444 1301 189 q 1120 883 1301 701 q 679 1067 936 1067 z "},"k":{"ha":1356,"x_min":7,"x_max":1350,"o":"m 269 701 q 264 697 265 701 l 264 191 q 269 187 264 187 l 458 187 q 581 197 541 187 q 685 341 685 239 l 685 343 q 610 463 685 432 q 670 566 670 498 q 667 595 670 577 q 519 701 642 701 l 269 701 m 785 672 q 782 669 783 672 l 782 623 q 785 618 782 618 l 1003 618 q 1008 623 1008 618 l 1008 669 q 1003 672 1008 672 l 785 672 m 369 611 l 490 611 q 566 556 566 611 l 566 555 q 561 528 566 547 q 469 498 550 498 l 369 498 l 369 611 m 901 578 q 822 563 860 578 q 713 389 713 513 l 713 359 q 742 256 713 302 q 901 175 802 175 q 1017 204 972 175 q 1084 294 1084 258 q 1080 300 1084 300 l 984 300 q 907 256 959 256 q 884 260 898 256 q 813 349 813 279 l 1086 349 q 1090 353 1090 349 l 1090 384 q 1086 422 1090 402 q 901 578 1057 578 m 817 417 q 822 437 817 422 q 901 494 840 494 q 930 491 913 494 q 985 417 985 469 l 817 417 m 369 413 l 494 413 q 576 353 576 413 l 576 346 q 503 279 576 279 l 369 279 l 369 413 m 1153 920 q 1350 444 1350 722 q 1152 -29 1350 168 q 678 -227 954 -227 q 207 -29 402 -227 q 7 444 12 168 q 204 918 7 719 q 678 1116 402 1116 q 1153 920 956 1116 m 679 1067 q 240 883 425 1067 q 56 444 56 699 q 243 6 61 189 q 679 -178 425 -178 q 1117 6 934 -178 q 1301 444 1301 189 q 1120 883 1301 701 q 679 1067 936 1067 z "},"l":{"ha":1356,"x_min":7,"x_max":1350,"o":"m 431 235 q 511 251 473 235 q 577 295 549 267 q 621 361 605 323 q 637 441 637 399 q 621 523 637 485 q 577 589 605 560 q 511 633 549 617 q 431 649 473 649 q 350 633 387 649 q 283 589 312 617 q 239 523 255 560 q 223 441 223 485 q 239 361 223 399 q 283 295 255 323 q 350 251 312 267 q 431 235 387 235 m 926 235 q 1007 251 969 235 q 1073 295 1044 267 q 1117 361 1101 323 q 1133 441 1133 399 q 1117 523 1133 485 q 1073 589 1101 560 q 1007 633 1044 617 q 926 649 969 649 q 845 633 883 649 q 780 589 808 617 q 735 523 751 560 q 719 441 719 485 q 735 361 719 399 q 780 295 751 323 q 845 251 808 267 q 926 235 883 235 m 1153 920 q 1350 444 1350 722 q 1152 -29 1350 168 q 678 -227 954 -227 q 207 -29 402 -227 q 7 444 12 168 q 204 918 7 719 q 678 1116 402 1116 q 1153 920 956 1116 m 679 1067 q 240 883 425 1067 q 56 444 56 699 q 243 6 61 189 q 679 -178 425 -178 q 1117 6 934 -178 q 1301 444 1301 189 q 1120 883 1301 701 q 679 1067 936 1067 z "},"m":{"ha":1356,"x_min":7,"x_max":1350,"o":"m 901 653 q 730 661 780 661 l 731 870 l 604 870 q 434 637 572 681 l 434 526 q 514 517 495 517 q 522 519 522 517 l 522 465 q 517 363 522 422 q 516 292 516 322 q 519 224 516 250 q 671 37 537 85 q 768 20 720 20 q 922 70 847 20 q 880 193 913 100 q 811 174 840 174 q 731 271 746 174 q 736 526 731 275 l 901 526 l 901 653 m 1153 920 q 1350 444 1350 722 q 1152 -29 1350 168 q 678 -227 954 -227 q 207 -29 402 -227 q 7 444 12 168 q 204 918 7 719 q 678 1116 402 1116 q 1153 920 956 1116 m 679 1067 q 240 883 425 1067 q 56 444 56 699 q 243 6 61 189 q 679 -178 425 -178 q 1117 6 934 -178 q 1301 444 1301 189 q 1120 883 1301 701 q 679 1067 936 1067 z "},"n":{"ha":1356,"x_min":7,"x_max":1350,"o":"m 412 397 q 434 427 431 397 l 427 427 q 401 410 401 427 q 412 397 402 397 m 892 397 q 914 427 911 397 l 907 427 q 881 410 881 427 q 892 397 882 397 m 667 447 l 667 450 q 654 467 667 467 q 633 447 639 467 l 667 447 m 1052 401 q 1077 441 1077 407 q 1060 465 1076 465 q 1043 453 1050 465 q 1036 425 1036 442 q 1052 401 1036 401 m 865 168 q 1063 251 981 168 q 1145 450 1145 333 q 1063 648 1145 566 q 865 730 981 730 q 677 659 757 730 q 491 730 598 730 q 292 648 374 730 q 210 450 210 566 q 292 251 210 333 q 491 168 374 168 q 677 240 598 168 q 865 168 757 168 m 358 376 l 328 376 l 346 485 l 307 376 l 286 376 l 283 484 l 265 376 l 237 376 l 260 517 l 304 517 l 306 430 l 335 517 l 382 517 l 358 376 m 399 373 q 372 405 372 377 q 425 450 375 450 l 437 448 l 439 458 q 419 467 439 467 q 387 462 399 467 l 391 488 q 427 494 411 494 q 468 460 467 494 q 458 391 464 425 q 456 376 456 380 l 431 376 l 431 387 q 399 373 420 373 m 494 373 q 463 377 469 374 l 467 404 q 494 399 480 399 q 511 410 511 399 q 498 422 511 415 q 474 457 474 432 q 519 494 474 494 q 547 492 529 494 l 543 465 q 520 467 530 467 q 505 457 505 466 q 509 449 505 451 q 519 444 513 447 q 542 411 542 436 q 494 373 542 373 m 570 373 q 546 401 546 374 q 563 509 546 408 l 593 509 l 589 492 l 605 492 l 601 463 l 585 463 l 577 409 q 587 401 577 401 q 595 403 593 401 l 591 377 q 570 373 581 373 m 654 373 q 602 425 602 374 q 616 474 602 454 q 654 494 631 494 q 695 452 695 490 q 692 423 695 439 l 631 423 q 658 399 631 399 q 690 407 674 399 l 684 378 q 654 373 669 373 m 726 376 l 695 376 q 712 492 710 474 l 741 492 q 738 473 741 482 q 763 492 751 492 l 768 492 q 756 458 761 481 l 753 458 q 743 453 747 458 q 735 429 738 447 q 726 376 732 411 m 815 373 q 763 435 763 378 q 831 521 770 521 q 865 513 848 521 l 860 483 q 833 490 845 490 q 794 437 794 485 q 822 403 795 403 q 848 410 833 403 l 842 378 q 815 373 829 373 m 880 373 q 852 405 852 377 q 905 450 854 450 l 918 448 l 919 458 q 899 467 919 467 q 867 462 880 467 l 871 488 q 907 494 890 494 q 947 460 946 494 q 945 437 947 451 q 941 415 943 428 q 938 391 939 403 q 936 376 936 380 l 911 376 l 911 387 q 880 373 900 373 m 977 376 l 946 376 q 953 419 947 384 q 963 492 959 455 l 991 492 q 989 473 991 482 q 1013 492 1001 492 l 1019 492 q 1007 458 1012 481 l 1004 458 q 993 452 998 458 q 977 376 988 446 m 1042 373 q 1005 421 1005 378 q 1020 471 1005 450 q 1055 492 1034 492 q 1083 477 1072 492 l 1090 517 l 1120 517 l 1097 376 l 1069 376 l 1070 386 q 1042 373 1059 373 m 1153 920 q 1350 444 1350 722 q 1152 -29 1350 168 q 678 -227 954 -227 q 207 -29 402 -227 q 7 444 12 168 q 204 918 7 719 q 678 1116 402 1116 q 1153 920 956 1116 m 679 1067 q 240 883 425 1067 q 56 444 56 699 q 243 6 61 189 q 679 -178 425 -178 q 1117 6 934 -178 q 1301 444 1301 189 q 1120 883 1301 701 q 679 1067 936 1067 z "},"o":{"ha":1356,"x_min":7,"x_max":1350,"o":"m 653 568 q 312 520 506 523 q 514 779 351 696 q 653 568 555 728 m 714 445 q 399 196 516 381 q 304 448 304 297 l 304 454 q 676 507 502 454 l 678 507 q 714 445 678 498 m 819 103 q 653 56 732 56 q 447 152 541 56 q 738 382 541 313 q 819 103 786 272 m 726 588 q 589 806 682 669 q 688 819 640 819 q 920 723 819 819 q 726 588 859 640 m 882 136 q 811 400 863 241 q 898 407 856 407 q 1042 384 972 407 q 882 136 1012 222 m 1046 448 q 875 465 956 465 q 788 459 829 465 q 771 496 784 471 q 755 533 760 520 q 961 678 883 583 q 1046 448 1042 583 m 1109 468 q 983 752 1095 640 q 699 879 865 867 l 648 879 q 366 752 481 865 q 239 470 252 635 l 239 417 q 648 9 286 54 l 701 9 q 983 136 868 23 q 1109 417 1095 250 l 1109 468 m 1153 920 q 1350 444 1350 722 q 1152 -29 1350 168 q 678 -227 954 -227 q 207 -29 402 -227 q 7 444 12 168 q 204 918 7 719 q 678 1116 402 1116 q 1153 920 956 1116 m 679 1067 q 240 883 425 1067 q 56 444 56 699 q 243 6 61 189 q 679 -178 425 -178 q 1117 6 934 -178 q 1301 444 1301 189 q 1120 883 1301 701 q 679 1067 936 1067 z "},"p":{"ha":1356,"x_min":7,"x_max":1350,"o":"m 698 875 q 477 808 570 875 q 433 773 460 799 q 399 730 408 746 q 346 567 346 650 q 385 428 346 483 q 416 394 395 412 q 454 377 445 377 l 457 377 q 465 378 460 377 q 472 393 471 384 q 484 440 484 435 q 477 451 484 446 q 441 553 441 492 q 492 702 441 637 q 528 738 507 721 q 682 790 595 790 q 829 744 772 790 q 890 601 890 690 q 858 440 890 513 q 838 404 848 418 q 734 339 793 339 q 682 355 705 339 q 654 412 654 378 l 654 416 q 670 484 654 432 q 699 609 699 576 q 691 649 699 631 q 633 683 672 683 q 570 650 597 683 q 538 557 538 610 q 554 478 538 513 l 495 227 q 482 124 482 177 l 482 114 q 488 25 482 72 q 493 16 488 17 l 495 16 q 498 16 496 16 q 513 37 500 20 q 559 107 543 76 q 588 169 573 136 q 623 315 600 214 q 637 297 628 308 q 659 280 651 285 q 743 253 701 253 q 747 254 747 254 l 748 254 q 832 270 791 254 q 952 370 904 299 q 1011 591 1011 466 q 994 687 1011 639 q 874 827 957 776 q 698 875 797 875 m 1153 920 q 1350 444 1350 722 q 1152 -29 1350 168 q 678 -227 954 -227 q 207 -29 402 -227 q 7 444 12 168 q 204 918 7 719 q 678 1116 402 1116 q 1153 920 956 1116 m 679 1067 q 240 883 425 1067 q 56 444 56 699 q 243 6 61 189 q 679 -178 425 -178 q 1117 6 934 -178 q 1301 444 1301 189 q 1120 883 1301 701 q 679 1067 936 1067 z "},"q":{"ha":1356,"x_min":7,"x_max":1350,"o":"m 1098 273 q 1015 358 1080 294 q 980 405 982 393 l 980 409 q 994 444 980 422 q 1047 517 1006 462 q 1100 591 1080 560 q 1124 655 1124 634 q 1124 663 1124 660 q 1088 676 1118 676 l 1084 676 q 980 675 1034 675 q 928 673 932 675 q 909 645 917 669 q 862 551 888 594 q 806 469 827 493 q 776 450 788 450 l 775 450 q 753 493 757 451 q 752 517 752 500 q 757 618 752 551 l 757 629 q 749 676 757 664 q 645 701 734 701 q 612 699 629 701 q 528 663 538 696 q 571 637 563 653 q 583 538 583 616 q 579 485 583 508 q 557 448 573 451 l 553 448 q 528 465 543 448 q 507 492 519 474 q 426 640 463 555 q 409 669 416 663 q 349 676 398 676 l 307 676 q 232 663 236 676 q 230 658 230 662 q 244 616 230 647 q 400 346 320 455 q 528 229 460 265 q 665 190 597 190 l 671 190 q 747 202 741 193 q 755 245 751 205 q 763 282 757 268 q 790 308 772 306 l 792 308 q 832 282 809 308 q 863 246 835 280 q 942 190 905 199 q 1000 189 948 189 l 1025 189 l 1050 190 q 1124 215 1120 190 q 1126 219 1126 218 q 1098 273 1126 237 m 1153 920 q 1350 444 1350 722 q 1152 -29 1350 168 q 678 -227 954 -227 q 207 -29 402 -227 q 7 444 12 168 q 204 918 7 719 q 678 1116 402 1116 q 1153 920 956 1116 m 679 1067 q 240 883 425 1067 q 56 444 56 699 q 243 6 61 189 q 679 -178 425 -178 q 1117 6 934 -178 q 1301 444 1301 189 q 1120 883 1301 701 q 679 1067 936 1067 z "},"r":{"ha":1356,"x_min":7,"x_max":1350,"o":"m 326 825 l 326 680 q 600 591 477 661 q 701 516 650 560 q 794 412 752 473 q 864 269 836 351 q 898 83 892 188 l 1037 83 q 962 437 1035 282 q 879 572 929 506 q 751 691 828 638 q 571 781 675 744 q 326 825 467 817 m 326 430 q 485 382 414 419 q 544 338 515 365 q 597 275 573 311 q 637 191 622 239 q 656 80 652 143 l 794 80 q 740 321 790 213 q 684 410 718 365 q 600 491 650 454 q 483 550 551 527 q 326 576 416 573 l 326 430 m 430 80 q 504 110 473 80 q 534 184 534 140 q 504 257 534 226 q 430 288 473 288 q 357 257 388 288 q 326 184 326 226 q 357 110 326 140 q 430 80 388 80 m 1153 920 q 1350 444 1350 722 q 1152 -29 1350 168 q 678 -227 954 -227 q 207 -29 402 -227 q 7 444 12 168 q 204 918 7 719 q 678 1116 402 1116 q 1153 920 956 1116 m 679 1067 q 240 883 425 1067 q 56 444 56 699 q 243 6 61 189 q 679 -178 425 -178 q 1117 6 934 -178 q 1301 444 1301 189 q 1120 883 1301 701 q 679 1067 936 1067 z "},"s":{"ha":1356,"x_min":7,"x_max":1350,"o":"m 683 87 q 743 100 719 87 q 789 127 767 112 q 852 157 827 151 q 884 159 860 159 q 927 155 908 159 q 945 153 935 153 q 960 170 960 153 q 961 179 960 175 q 972 203 968 203 q 1074 239 1063 218 l 1074 245 l 1075 248 q 1067 255 1075 252 q 994 283 1024 261 q 911 368 940 321 q 900 390 900 386 q 893 410 893 399 q 919 443 893 433 l 958 456 q 995 488 995 473 q 972 508 990 503 q 960 511 969 511 q 948 508 951 511 q 908 499 922 499 q 893 502 899 499 q 886 505 888 505 q 893 612 893 559 q 832 747 893 694 q 724 800 781 791 q 683 802 698 802 q 634 800 659 802 q 524 747 574 791 q 463 612 463 694 q 469 505 463 576 q 461 502 467 505 q 446 499 455 499 q 405 508 429 499 l 395 511 q 374 506 386 511 q 362 486 362 500 q 376 467 362 475 q 438 443 390 459 q 463 411 463 434 q 455 390 463 401 q 446 368 455 386 q 414 326 436 349 q 289 255 355 263 q 281 248 281 252 l 282 245 l 282 239 q 384 203 294 218 q 395 179 389 203 q 397 170 397 175 q 412 151 397 151 q 428 155 416 151 q 473 159 447 159 q 507 157 496 159 q 566 127 525 153 q 613 100 588 112 q 672 87 637 87 l 683 87 m 1153 920 q 1350 444 1350 722 q 1152 -29 1350 168 q 678 -227 954 -227 q 207 -29 402 -227 q 7 444 12 168 q 204 918 7 719 q 678 1116 402 1116 q 1153 920 956 1116 m 679 1067 q 240 883 425 1067 q 56 444 56 699 q 243 6 61 189 q 679 -178 425 -178 q 1117 6 934 -178 q 1301 444 1301 189 q 1120 883 1301 701 q 679 1067 936 1067 z "},"t":{"ha":1356,"x_min":7,"x_max":1350,"o":"m 528 114 q 836 227 701 114 q 975 431 932 313 q 1002 583 1002 512 l 1002 612 q 1048 652 1017 621 q 1086 698 1073 678 l 1085 698 q 991 671 1021 671 l 991 673 q 1027 701 1002 678 q 1063 764 1053 734 q 995 734 1030 745 q 957 724 962 724 q 836 776 901 776 q 718 728 768 776 q 667 609 667 678 q 672 571 667 592 q 599 580 652 571 q 438 646 507 603 q 327 746 385 680 q 305 665 305 704 q 345 554 305 603 q 377 524 364 531 l 377 523 q 304 543 344 523 q 354 421 304 473 q 412 385 386 393 q 435 378 431 378 q 417 373 435 376 l 397 372 l 391 372 q 361 375 378 372 q 431 286 382 316 q 517 259 473 259 q 470 227 492 239 q 316 187 393 187 q 271 189 288 187 q 528 114 387 114 m 1153 920 q 1350 444 1350 722 q 1152 -29 1350 168 q 678 -227 954 -227 q 207 -29 402 -227 q 7 444 12 168 q 204 918 7 719 q 678 1116 402 1116 q 1153 920 956 1116 m 679 1067 q 240 883 425 1067 q 56 444 56 699 q 243 6 61 189 q 679 -178 425 -178 q 1117 6 934 -178 q 1301 444 1301 189 q 1120 883 1301 701 q 679 1067 936 1067 z "},"u":{"ha":1356,"x_min":7,"x_max":1350,"o":"m 616 25 l 738 235 l 734 234 q 679 224 714 224 q 563 259 614 224 q 484 347 511 293 l 313 647 q 261 438 261 547 q 363 164 261 281 q 616 25 465 48 m 470 490 q 548 606 488 562 q 679 647 606 647 l 1038 647 q 886 799 981 743 q 679 855 791 855 q 495 813 581 855 q 348 694 409 772 l 470 490 m 683 20 q 976 144 855 22 q 1096 438 1096 266 q 1065 595 1096 517 l 822 595 q 892 438 892 528 q 855 315 892 371 l 683 20 m 679 281 q 789 327 743 281 q 836 438 836 373 q 789 549 836 503 q 679 595 743 595 q 568 549 614 595 q 522 438 522 503 q 568 327 522 373 q 679 281 614 281 m 1153 920 q 1350 444 1350 722 q 1152 -29 1350 168 q 678 -227 954 -227 q 207 -29 402 -227 q 7 444 12 168 q 204 918 7 719 q 678 1116 402 1116 q 1153 920 956 1116 m 679 1067 q 240 883 425 1067 q 56 444 56 699 q 243 6 61 189 q 679 -178 425 -178 q 1117 6 934 -178 q 1301 444 1301 189 q 1120 883 1301 701 q 679 1067 936 1067 z "},"v":{"ha":1356,"x_min":7,"x_max":1350,"o":"m 892 88 q 977 119 935 88 q 1038 218 1038 168 q 994 283 1038 251 q 911 338 956 313 q 850 364 880 364 q 831 363 848 364 q 787 321 814 362 q 745 298 772 298 q 713 306 730 298 q 537 478 591 355 q 526 517 526 498 q 528 536 526 523 q 557 567 530 550 q 585 592 574 578 q 597 630 597 606 q 570 688 594 650 q 442 810 490 810 q 418 806 431 810 q 319 684 319 769 q 332 625 319 656 q 858 98 487 253 q 892 88 873 88 m 1012 444 q 1029 455 1028 444 q 1031 466 1031 460 q 1030 474 1031 469 q 1029 487 1029 479 q 987 647 1029 574 q 873 767 945 720 q 713 819 800 814 q 704 820 710 819 q 691 821 698 821 q 673 800 673 821 q 679 786 673 789 q 693 782 685 783 q 707 779 701 782 q 910 690 842 760 q 996 485 977 621 l 994 471 q 996 454 994 463 q 1012 444 998 444 m 928 479 q 943 501 943 484 l 943 509 q 943 516 943 514 q 886 656 943 595 q 745 732 828 718 q 721 735 734 735 q 709 734 718 735 q 699 711 701 732 q 727 694 699 694 q 854 636 817 675 q 905 516 892 597 l 905 503 q 908 487 905 495 q 928 479 911 479 m 842 507 q 858 517 855 509 q 860 536 860 526 q 826 609 860 574 q 753 644 792 644 q 738 644 745 644 q 724 624 724 640 q 745 606 724 610 q 819 526 816 595 q 842 507 824 507 m 1153 920 q 1350 444 1350 722 q 1152 -29 1350 168 q 678 -227 954 -227 q 207 -29 402 -227 q 7 444 12 168 q 204 918 7 719 q 678 1116 402 1116 q 1153 920 956 1116 m 679 1067 q 240 883 425 1067 q 56 444 56 699 q 243 6 61 189 q 679 -178 425 -178 q 1117 6 934 -178 q 1301 444 1301 189 q 1120 883 1301 701 q 679 1067 936 1067 z "},"w":{"ha":1356,"x_min":7,"x_max":1350,"o":"m 307 718 l 307 469 l 606 471 l 604 758 l 307 718 m 604 438 l 307 439 l 307 191 l 604 149 l 604 438 m 640 764 l 640 471 l 1036 474 l 1036 821 l 640 764 m 1037 435 l 640 435 l 640 145 l 1036 89 l 1037 435 m 1153 920 q 1350 444 1350 722 q 1152 -29 1350 168 q 678 -227 954 -227 q 207 -29 402 -227 q 7 444 12 168 q 204 918 7 719 q 678 1116 402 1116 q 1153 920 956 1116 m 679 1067 q 240 883 425 1067 q 56 444 56 699 q 243 6 61 189 q 679 -178 425 -178 q 1117 6 934 -178 q 1301 444 1301 189 q 1120 883 1301 701 q 679 1067 936 1067 z "},"x":{"ha":1356,"x_min":7,"x_max":1350,"o":"m 538 332 q 488 368 503 332 q 481 403 481 389 q 542 451 481 448 q 607 385 607 451 q 564 336 607 347 q 538 332 550 332 m 679 182 q 583 200 631 182 q 540 227 558 210 q 532 242 532 235 q 548 254 532 250 q 674 205 606 205 q 782 235 726 205 q 823 250 812 250 q 830 248 827 250 q 780 202 830 222 q 679 182 730 182 m 814 330 q 773 347 793 330 q 754 389 754 364 q 812 451 754 446 q 873 401 863 451 q 874 381 874 391 q 836 334 874 346 q 814 330 825 330 m 671 105 q 817 126 742 105 q 1023 361 1023 187 l 1023 373 q 1074 441 1074 395 q 1067 478 1074 459 q 993 541 1048 541 q 963 537 979 541 q 926 515 950 534 q 699 590 853 574 q 739 770 736 756 l 863 744 q 923 684 873 684 q 987 739 987 684 l 986 757 q 928 810 976 810 l 913 808 q 887 793 902 808 q 866 777 873 778 q 791 791 861 777 q 718 805 726 805 q 699 756 709 800 l 665 589 q 481 543 572 587 l 433 517 q 419 529 433 519 q 372 543 396 543 q 313 513 341 543 q 285 452 285 484 q 298 408 285 430 q 337 371 299 408 l 336 349 q 452 168 336 241 q 671 105 553 105 m 1153 920 q 1350 444 1350 722 q 1152 -29 1350 168 q 678 -227 954 -227 q 207 -29 402 -227 q 7 444 12 168 q 204 918 7 719 q 678 1116 402 1116 q 1153 920 956 1116 m 679 1067 q 240 883 425 1067 q 56 444 56 699 q 243 6 61 189 q 679 -178 425 -178 q 1117 6 934 -178 q 1301 444 1301 189 q 1120 883 1301 701 q 679 1067 936 1067 z "},"y":{"ha":1356,"x_min":7,"x_max":1350,"o":"m 682 142 q 846 143 745 142 q 998 152 979 148 q 1050 174 1030 157 q 1086 224 1075 194 q 1106 406 1106 276 l 1106 476 q 1098 614 1106 537 q 1065 697 1088 672 q 1048 710 1053 709 q 1002 730 1028 726 q 678 742 940 742 q 522 740 610 742 q 353 730 374 736 q 287 691 314 723 q 258 614 271 671 q 251 476 251 537 q 265 251 251 288 q 277 208 271 223 q 345 156 297 172 l 378 151 q 458 145 391 148 q 682 142 612 142 m 590 331 l 590 571 q 779 473 594 569 q 821 450 821 451 l 590 331 m 1153 920 q 1350 444 1350 722 q 1152 -29 1350 168 q 678 -227 954 -227 q 207 -29 402 -227 q 7 444 12 168 q 204 918 7 719 q 678 1116 402 1116 q 1153 920 956 1116 m 679 1067 q 240 883 425 1067 q 56 444 56 699 q 243 6 61 189 q 679 -178 425 -178 q 1117 6 934 -178 q 1301 444 1301 189 q 1120 883 1301 701 q 679 1067 936 1067 z "},"z":{"ha":1356,"x_min":7,"x_max":1350,"o":"m 608 639 l 241 251 l 575 433 l 749 251 l 1116 639 l 784 459 l 608 639 m 1153 920 q 1350 444 1350 722 q 1152 -29 1350 168 q 678 -227 954 -227 q 207 -29 402 -227 q 7 444 12 168 q 204 918 7 719 q 678 1116 402 1116 q 1153 920 956 1116 m 679 1067 q 240 883 425 1067 q 56 444 56 699 q 243 6 61 189 q 679 -178 425 -178 q 1117 6 934 -178 q 1301 444 1301 189 q 1120 883 1301 701 q 679 1067 936 1067 z "},"{":{"ha":1356,"x_min":7,"x_max":1350,"o":"m 681 872 q 618 861 659 872 q 498 688 498 802 l 498 667 q 569 507 514 569 q 519 510 552 510 l 496 510 q 432 503 469 510 q 295 326 295 456 q 309 255 295 294 q 473 142 366 142 q 665 298 608 142 l 667 298 l 667 296 q 618 37 667 109 l 622 35 l 739 35 l 739 37 q 692 290 692 99 l 692 296 l 695 296 q 885 142 751 142 q 945 153 926 146 q 1061 326 1061 208 q 1053 390 1061 358 q 863 510 1000 510 l 840 510 q 790 507 807 510 l 802 519 q 865 685 865 612 q 851 756 865 718 q 681 872 793 872 m 1153 920 q 1350 444 1350 722 q 1152 -29 1350 168 q 678 -227 954 -227 q 207 -29 402 -227 q 7 444 12 168 q 204 918 7 719 q 678 1116 402 1116 q 1153 920 956 1116 m 679 1067 q 240 883 425 1067 q 56 444 56 699 q 243 6 61 189 q 679 -178 425 -178 q 1117 6 934 -178 q 1301 444 1301 189 q 1120 883 1301 701 q 679 1067 936 1067 z "},"|":{"ha":1356,"x_min":7,"x_max":1350,"o":"m 503 737 l 478 808 l 458 808 l 458 806 q 460 806 458 806 q 464 805 462 806 q 466 801 466 804 l 444 737 l 450 737 l 458 759 l 485 759 l 493 737 l 503 737 m 483 764 l 460 764 l 471 795 l 483 764 m 596 737 l 576 772 q 592 789 592 774 q 577 807 592 804 q 536 808 571 808 l 536 806 q 545 803 544 805 q 547 737 547 802 l 558 737 l 558 770 l 565 770 l 583 737 l 596 737 m 564 774 l 558 774 l 558 795 q 559 801 558 799 q 566 803 559 803 q 581 789 580 803 q 564 774 581 774 m 663 736 q 684 740 674 736 l 684 747 q 665 742 676 742 q 652 747 657 742 q 646 760 648 753 q 645 774 645 767 q 663 803 645 803 q 680 787 675 803 l 683 787 l 683 806 q 662 809 672 809 q 631 774 631 809 q 663 736 631 736 m 783 737 l 783 808 l 770 808 l 770 777 l 742 777 l 742 810 l 720 807 l 720 805 q 728 803 726 804 q 730 737 730 802 l 742 737 l 742 771 l 770 771 l 770 737 l 783 737 m 853 737 l 853 740 q 845 742 847 740 q 844 772 844 744 q 845 803 844 801 q 853 805 847 805 l 853 807 l 823 807 l 823 805 q 830 803 829 805 q 832 772 832 801 q 830 742 832 744 q 823 740 829 740 l 823 737 l 853 737 m 930 737 l 956 808 l 949 808 l 928 750 l 908 808 l 888 808 l 888 806 q 896 803 895 805 q 921 737 898 802 l 930 737 m 1040 737 l 1040 753 l 1037 753 q 1035 744 1037 747 q 1021 742 1033 742 q 1010 743 1012 742 q 1009 771 1009 744 l 1021 771 q 1030 764 1030 771 l 1030 762 l 1034 762 l 1034 785 l 1030 785 q 1028 779 1029 781 q 1009 777 1026 777 q 1010 802 1009 802 q 1024 803 1012 803 q 1036 793 1036 803 l 1038 793 l 1038 808 l 987 808 l 987 806 q 996 803 995 805 q 997 737 997 802 l 1040 737 m 995 109 l 995 135 l 484 135 l 484 109 l 995 109 m 976 150 l 976 186 l 505 186 l 505 150 l 976 150 m 970 549 l 970 598 l 501 598 l 501 549 l 970 549 m 966 614 l 981 629 l 735 688 l 490 629 l 505 614 l 966 614 m 387 106 l 387 135 l 385 135 q 382 128 385 130 q 352 126 380 126 q 321 128 323 126 q 319 135 319 130 l 317 135 l 317 106 l 319 106 q 321 113 319 112 q 352 115 323 115 q 382 113 380 115 q 385 106 385 112 l 387 106 m 318 170 l 318 172 q 321 178 319 176 q 387 180 322 180 l 387 188 l 328 188 l 387 222 l 387 232 l 316 232 l 316 226 l 374 226 l 316 193 l 316 170 l 318 170 m 332 275 l 332 278 q 323 280 326 278 q 321 297 321 283 l 387 297 l 387 308 l 321 308 l 321 315 q 330 327 321 327 l 332 327 l 332 330 l 316 330 l 316 275 l 332 275 m 318 363 q 321 371 319 370 q 387 373 322 373 l 387 415 l 372 415 l 372 412 q 379 410 377 412 q 382 397 382 408 q 381 385 382 386 q 353 384 380 384 l 353 397 q 361 406 353 406 l 361 408 l 339 408 l 339 406 q 346 404 343 405 q 348 384 348 402 q 321 386 322 384 q 321 399 321 387 q 332 411 321 410 l 332 413 l 316 413 l 316 363 l 318 363 m 318 454 q 321 462 319 460 q 387 463 322 463 l 387 475 l 355 475 l 355 481 l 387 500 l 387 512 l 353 492 q 335 509 351 509 q 318 493 321 509 q 316 454 316 487 l 318 454 m 349 475 l 329 475 q 323 475 325 475 q 321 482 321 476 q 336 497 321 496 q 349 475 349 497 m 318 547 l 318 549 q 321 556 319 555 q 387 558 322 558 l 387 564 l 328 564 l 328 565 l 387 600 l 387 610 l 316 610 l 316 604 l 374 604 l 316 569 l 316 547 l 318 547 m 318 652 q 321 660 319 659 q 387 661 322 661 l 387 703 l 372 703 l 372 701 q 379 699 377 701 q 382 686 382 697 q 381 674 382 676 q 353 673 380 673 l 353 686 q 361 694 353 694 l 361 697 l 339 697 l 339 694 q 346 692 343 694 q 348 673 348 690 q 321 674 322 673 q 321 688 321 676 q 332 700 321 700 l 332 702 l 316 702 l 316 652 l 318 652 m 332 743 l 332 745 q 323 748 326 746 q 321 764 321 751 l 387 764 l 387 777 l 321 777 l 321 783 q 332 795 321 795 l 332 798 l 316 798 l 316 743 l 332 743 m 540 201 q 563 204 551 201 q 569 389 568 269 q 563 534 567 462 q 540 538 563 538 q 516 534 516 538 q 511 389 513 462 q 516 204 512 269 q 540 201 528 201 m 667 201 q 690 204 679 201 q 691 215 691 208 q 697 363 697 269 q 693 485 697 413 q 691 534 691 519 q 667 538 691 538 q 644 534 644 538 q 643 507 644 519 q 639 363 639 446 q 644 215 639 269 q 645 204 644 208 q 667 201 656 201 m 816 201 q 839 204 827 201 q 844 389 844 269 q 839 534 843 462 q 816 538 839 538 q 792 534 792 538 q 787 389 788 462 q 792 204 787 269 q 816 201 804 201 m 940 201 q 964 204 951 201 q 969 389 968 269 q 964 534 968 462 q 940 538 964 538 q 917 534 917 538 q 911 389 913 462 q 917 204 911 269 q 940 201 928 201 m 1153 920 q 1350 444 1350 722 q 1152 -29 1350 168 q 678 -227 954 -227 q 207 -29 402 -227 q 7 444 12 168 q 204 918 7 719 q 678 1116 402 1116 q 1153 920 956 1116 m 679 1067 q 240 883 425 1067 q 56 444 56 699 q 243 6 61 189 q 679 -178 425 -178 q 1117 6 934 -178 q 1301 444 1301 189 q 1120 883 1301 701 q 679 1067 936 1067 z "},"}":{"ha":1356,"x_min":7,"x_max":1350,"o":"m 676 5 q 824 6 816 5 q 844 10 832 7 q 867 22 855 14 q 887 46 879 31 q 895 85 895 61 l 895 803 q 887 842 895 827 q 867 866 879 857 q 844 878 855 874 q 824 882 832 882 q 676 882 816 882 q 529 882 537 882 q 509 878 521 882 q 485 866 497 874 q 466 842 473 857 q 458 803 458 827 l 458 85 q 466 46 458 61 q 485 22 473 31 q 509 10 497 14 q 529 6 521 7 q 676 5 537 5 m 676 39 q 649 50 661 39 q 637 79 637 62 q 649 107 637 95 q 676 119 661 119 q 705 107 693 119 q 716 79 716 95 q 705 50 716 62 q 676 39 693 39 m 676 823 q 618 825 620 823 q 617 833 617 828 q 618 840 617 838 q 676 842 620 842 q 735 840 733 842 q 736 833 736 838 q 735 825 736 828 q 676 823 733 823 m 855 146 l 497 146 l 497 783 l 855 783 l 855 146 m 1153 920 q 1350 444 1350 722 q 1152 -29 1350 168 q 678 -227 954 -227 q 207 -29 402 -227 q 7 444 12 168 q 204 918 7 719 q 678 1116 402 1116 q 1153 920 956 1116 m 679 1067 q 240 883 425 1067 q 56 444 56 699 q 243 6 61 189 q 679 -178 425 -178 q 1117 6 934 -178 q 1301 444 1301 189 q 1120 883 1301 701 q 679 1067 936 1067 z "},"~":{"ha":1356,"x_min":7,"x_max":1350,"o":"m 810 412 l 843 469 l 575 628 l 541 570 l 810 412 m 787 329 l 804 393 l 503 475 l 486 410 l 787 329 m 777 239 l 784 307 l 473 335 l 467 269 l 777 239 m 776 155 l 776 221 l 465 221 l 465 155 l 776 155 m 882 49 l 882 374 l 829 374 l 829 102 l 420 102 l 420 374 l 368 374 l 368 49 l 882 49 m 854 478 l 909 515 l 733 772 l 678 735 l 854 478 m 920 519 l 986 531 l 933 838 l 867 827 l 920 519 m 1153 920 q 1350 444 1350 722 q 1152 -29 1350 168 q 678 -227 954 -227 q 207 -29 402 -227 q 7 444 12 168 q 204 918 7 719 q 678 1116 402 1116 q 1153 920 956 1116 m 679 1067 q 240 883 425 1067 q 56 444 56 699 q 243 6 61 189 q 679 -178 425 -178 q 1117 6 934 -178 q 1301 444 1301 189 q 1120 883 1301 701 q 679 1067 936 1067 z "},"":{"ha":1356,"x_min":7,"x_max":1350,"o":"m 587 220 q 799 450 799 235 q 681 665 799 598 q 587 686 638 686 q 494 665 536 686 q 375 450 375 598 q 587 220 375 235 m 587 286 q 473 378 508 286 q 463 450 463 414 q 587 618 463 610 q 711 450 711 618 q 702 378 711 414 q 587 286 667 286 m 288 596 q 334 642 334 596 q 288 686 334 686 q 243 642 243 686 q 288 596 243 596 m 331 219 l 331 549 l 246 549 l 246 219 l 331 219 m 975 220 q 1116 356 1116 239 q 997 492 1116 441 q 913 562 913 526 q 988 621 913 621 q 1076 598 1033 616 q 1083 607 1080 598 q 1087 629 1085 616 q 1094 651 1089 643 q 1098 665 1098 660 q 992 687 1040 687 q 828 559 828 687 q 948 427 828 467 q 1033 349 1031 393 q 946 287 1033 287 q 838 317 918 289 l 821 246 q 975 220 887 220 m 1153 920 q 1350 444 1350 722 q 1152 -29 1350 168 q 678 -227 954 -227 q 207 -29 402 -227 q 7 444 12 168 q 204 918 7 719 q 678 1116 402 1116 q 1153 920 956 1116 m 679 1067 q 240 883 425 1067 q 56 444 56 699 q 243 6 61 189 q 679 -178 425 -178 q 1117 6 934 -178 q 1301 444 1301 189 q 1120 883 1301 701 q 679 1067 936 1067 z "},"":{"ha":1356,"x_min":7,"x_max":1350,"o":"m 380 360 q 418 384 397 360 l 417 366 q 421 363 417 363 l 441 363 q 446 367 445 363 q 462 469 446 397 q 457 473 462 473 q 425 478 433 478 q 379 465 399 478 q 345 401 345 441 q 364 363 345 374 q 380 360 372 360 m 393 386 q 379 405 379 386 q 398 446 379 429 q 416 452 406 452 l 426 452 l 422 437 q 404 391 420 405 q 393 386 399 386 m 456 289 q 462 298 457 290 q 511 383 473 328 q 787 576 631 551 q 795 581 794 576 q 753 608 783 608 q 741 607 743 608 q 597 526 667 593 q 545 473 570 500 q 471 368 502 425 q 448 304 456 338 q 456 289 448 289 m 253 363 q 254 365 254 363 q 256 366 254 366 l 265 414 q 270 418 266 418 l 281 418 q 311 423 296 418 q 349 478 349 436 q 286 519 349 519 q 252 513 256 519 q 223 363 251 512 l 253 363 m 289 444 l 270 444 l 272 452 q 280 491 279 490 q 291 493 281 493 q 317 473 317 493 q 315 463 317 467 q 289 444 307 446 m 498 451 q 505 458 502 451 q 513 507 513 481 q 480 581 507 555 q 471 587 475 587 q 468 583 468 587 q 471 560 468 574 q 498 451 489 451 m 1074 363 q 1080 383 1074 363 q 1097 437 1086 427 q 1121 446 1105 444 q 1130 477 1123 446 l 1123 477 q 1087 452 1102 477 l 1089 475 q 1062 474 1062 475 q 1061 471 1061 473 q 1046 386 1055 412 q 1043 363 1043 366 l 1074 363 m 988 360 q 1023 368 1006 360 q 1026 371 1026 370 q 1024 391 1024 382 q 994 385 1005 385 q 968 405 968 385 l 968 406 l 981 406 q 1022 415 1002 406 q 1042 444 1042 424 q 1000 478 1042 478 q 956 457 975 478 q 937 408 937 436 q 988 360 937 360 m 977 429 l 971 429 q 981 448 973 442 q 997 454 989 454 q 1010 444 1010 454 q 1004 434 1010 437 q 977 429 998 431 m 798 363 q 801 366 799 363 q 810 414 810 409 q 814 446 814 424 q 785 477 814 477 q 749 460 766 477 q 746 458 747 459 l 747 475 l 719 475 l 699 363 l 729 363 q 738 403 731 363 q 770 451 743 447 q 780 433 780 451 l 768 363 l 798 363 m 878 360 q 913 368 897 360 q 916 371 916 368 l 915 391 q 909 390 910 391 q 886 385 898 385 q 859 406 859 385 q 866 406 863 406 q 931 444 931 406 q 908 475 931 467 q 890 478 899 478 q 852 463 869 478 q 827 408 827 441 q 878 360 827 360 m 869 429 l 862 431 q 871 448 863 442 q 888 454 880 454 q 901 444 901 454 q 869 429 901 429 m 632 360 q 685 395 665 360 q 693 431 693 412 q 676 467 693 455 q 646 477 661 477 q 590 448 604 475 q 578 408 578 425 q 632 360 578 361 m 631 385 q 612 406 612 385 q 623 443 612 427 q 641 452 630 452 q 659 429 659 452 q 646 393 659 409 q 631 385 642 386 m 1153 920 q 1350 444 1350 722 q 1152 -29 1350 168 q 678 -227 954 -227 q 207 -29 402 -227 q 7 444 12 168 q 204 918 7 719 q 678 1116 402 1116 q 1153 920 956 1116 m 679 1067 q 240 883 425 1067 q 56 444 56 699 q 243 6 61 189 q 679 -178 425 -178 q 1117 6 934 -178 q 1301 444 1301 189 q 1120 883 1301 701 q 679 1067 936 1067 z "},"":{"ha":1356,"x_min":7,"x_max":1350,"o":"m 671 95 q 709 123 688 95 q 730 167 724 146 l 777 167 l 777 111 l 803 111 q 816 125 810 111 q 821 148 821 138 q 785 234 821 170 q 874 279 838 248 q 917 368 917 317 q 886 480 917 450 l 891 500 q 878 523 891 517 q 884 545 884 535 q 869 565 884 564 q 874 572 870 567 q 878 583 878 578 q 863 611 878 600 q 869 635 869 625 q 865 652 869 644 q 854 665 857 662 q 857 675 854 668 q 860 687 860 682 q 845 716 860 708 q 849 730 849 723 q 834 760 849 751 q 839 779 839 770 q 821 814 839 798 l 821 826 q 798 870 821 854 q 742 886 774 886 q 555 863 635 886 q 433 749 433 828 q 480 505 433 717 q 539 276 528 294 q 639 233 557 245 l 654 161 q 642 130 642 156 q 671 95 642 95 m 773 20 l 773 159 l 731 159 q 714 116 726 129 q 675 86 703 102 l 675 20 l 773 20 m 727 244 q 631 252 680 244 q 553 287 559 264 l 538 345 l 562 363 l 556 381 l 532 364 l 524 401 l 548 418 l 543 437 l 519 420 l 512 450 l 532 463 l 528 484 l 507 470 l 501 500 l 521 515 l 517 534 l 496 520 l 490 551 l 510 564 l 505 584 l 485 570 l 481 600 l 496 611 l 492 631 l 475 620 l 468 652 l 487 665 l 482 684 l 465 672 l 456 700 l 473 712 l 470 730 l 454 720 q 451 749 451 736 q 572 848 451 819 l 606 823 q 612 833 612 823 q 596 854 612 847 l 621 859 q 639 846 624 859 q 656 833 654 833 q 665 842 665 833 q 648 863 665 855 l 670 866 l 702 839 q 709 850 709 839 q 699 867 709 861 l 718 869 q 751 841 749 841 q 758 851 758 841 q 748 869 758 862 q 806 820 793 866 l 717 817 l 720 798 l 803 806 q 818 797 812 801 q 823 779 823 792 q 819 765 823 775 l 729 758 l 731 741 l 818 748 q 831 731 831 736 l 827 716 l 738 709 l 742 692 l 836 699 l 836 700 q 842 689 842 697 q 840 677 842 684 q 838 667 838 671 l 774 664 l 781 647 l 842 651 q 852 633 852 640 q 845 621 852 631 l 783 616 l 779 598 l 848 602 q 860 584 859 587 q 852 568 857 573 l 786 565 l 788 550 l 859 552 l 867 547 q 860 527 867 533 l 790 522 l 793 505 l 865 511 q 879 479 876 492 l 878 487 l 800 480 l 804 465 l 877 470 q 899 389 899 450 l 899 368 q 839 275 899 311 q 727 244 787 244 m 751 25 l 735 25 l 735 151 l 751 151 l 751 25 m 670 111 q 656 127 656 111 q 670 144 656 144 q 683 127 683 144 q 670 111 683 111 m 745 606 q 766 631 766 606 q 740 664 766 664 q 719 637 719 664 q 745 606 719 606 m 504 732 l 550 762 q 621 787 583 783 l 682 792 l 679 807 l 618 802 q 544 775 576 799 l 500 744 l 504 732 m 514 687 l 557 716 q 621 735 585 733 q 690 739 656 737 l 687 755 l 620 751 q 550 727 578 747 l 510 697 l 514 687 m 526 633 l 575 665 q 606 679 591 675 l 699 689 l 694 707 l 631 702 q 568 681 592 699 q 521 647 544 663 l 526 633 m 539 586 l 590 621 q 637 634 606 631 l 689 640 l 694 656 q 635 653 666 655 q 585 636 604 651 l 536 598 l 539 586 m 846 283 q 880 319 865 294 q 896 370 896 352 q 887 398 896 398 q 869 391 869 398 q 874 380 869 389 q 878 364 878 370 q 863 314 878 342 l 846 283 m 550 537 l 601 573 q 646 589 618 586 l 709 594 l 699 610 q 643 606 671 608 q 595 589 614 604 l 547 551 l 550 537 m 567 486 l 618 522 q 671 540 639 536 q 736 547 703 544 l 731 564 l 666 555 q 611 536 629 551 l 563 501 l 567 486 m 804 272 q 839 307 818 272 q 860 358 860 342 q 842 395 860 395 q 829 387 829 395 q 834 371 829 381 q 840 356 840 361 q 817 315 840 349 q 793 276 793 281 q 804 272 793 272 m 576 436 q 633 472 604 454 q 692 494 663 491 q 752 501 722 498 l 748 517 l 690 511 q 631 492 653 507 l 573 452 l 576 436 m 592 385 q 653 427 623 406 q 705 452 683 448 l 762 459 l 757 475 q 696 466 727 470 q 642 444 666 461 l 588 401 l 592 385 m 751 260 q 787 302 764 260 q 810 358 810 344 q 785 392 810 392 q 779 387 779 392 q 782 371 779 381 q 786 356 786 361 q 765 310 786 347 q 743 267 743 273 q 751 260 743 260 m 701 260 q 734 299 712 260 q 757 351 757 338 q 737 387 757 387 q 726 381 726 387 q 729 366 726 376 q 732 351 732 355 q 712 305 732 341 q 692 264 692 269 q 701 260 692 260 m 650 264 q 682 302 661 264 q 702 351 702 339 q 683 389 702 389 q 673 382 673 389 q 675 368 673 378 q 678 353 678 359 q 659 308 678 342 q 640 269 640 273 q 650 264 640 264 m 1153 920 q 1350 444 1350 722 q 1152 -29 1350 168 q 678 -227 954 -227 q 207 -29 402 -227 q 7 444 12 168 q 204 918 7 719 q 678 1116 402 1116 q 1153 920 956 1116 m 679 1067 q 240 883 425 1067 q 56 444 56 699 q 243 6 61 189 q 679 -178 425 -178 q 1117 6 934 -178 q 1301 444 1301 189 q 1120 883 1301 701 q 679 1067 936 1067 z "},"":{"ha":1356,"x_min":7,"x_max":1350,"o":"m 675 821 l 585 545 l 296 545 l 525 374 l 441 92 l 675 262 l 917 92 l 828 366 l 1058 545 l 772 545 l 675 821 m 675 692 l 726 545 l 631 545 l 675 692 m 416 503 l 569 503 l 541 410 l 416 503 m 614 503 l 734 503 l 779 386 l 675 313 l 578 382 l 614 503 m 784 503 l 937 503 l 812 410 l 784 503 m 513 193 l 566 342 l 640 284 l 513 193 m 714 284 l 791 342 l 840 193 l 714 284 m 1153 920 q 1350 444 1350 722 q 1152 -29 1350 168 q 678 -227 954 -227 q 207 -29 402 -227 q 7 444 12 168 q 204 918 7 719 q 678 1116 402 1116 q 1153 920 956 1116 m 679 1067 q 240 883 425 1067 q 56 444 56 699 q 243 6 61 189 q 679 -178 425 -178 q 1117 6 934 -178 q 1301 444 1301 189 q 1120 883 1301 701 q 679 1067 936 1067 z "},"":{"ha":1356,"x_min":7,"x_max":1350,"o":"m 1090 498 q 1114 508 1105 498 q 1124 533 1124 518 q 1114 557 1124 547 q 1090 567 1105 567 q 1067 557 1077 567 q 1057 533 1057 547 q 1067 508 1057 518 q 1090 498 1077 498 m 1090 509 q 1075 515 1081 509 q 1068 533 1068 522 q 1075 550 1068 543 q 1090 557 1081 557 q 1107 550 1101 557 q 1114 533 1114 543 q 1107 515 1114 522 q 1090 509 1101 509 m 1107 517 l 1100 530 q 1105 538 1105 532 q 1093 549 1105 549 l 1079 549 l 1079 517 l 1088 517 l 1088 528 l 1091 528 l 1096 517 l 1107 517 m 1091 534 l 1088 534 l 1088 542 q 1095 538 1095 542 q 1091 534 1095 534 m 393 507 q 410 514 403 507 q 418 532 418 522 q 410 549 418 542 q 393 557 403 557 q 375 549 382 557 q 368 532 368 542 q 375 514 368 522 q 393 507 382 507 m 439 334 l 439 372 l 419 372 l 419 490 l 303 490 q 308 509 303 505 q 326 513 313 513 l 338 513 l 338 553 l 319 554 q 251 490 251 554 l 230 490 l 230 452 l 251 452 l 251 372 l 231 372 l 231 334 l 327 334 l 327 372 l 303 372 l 303 452 l 367 452 l 367 372 l 347 372 l 347 334 l 439 334 m 555 334 l 599 452 l 616 452 l 616 490 l 533 490 l 533 452 l 547 452 q 524 376 528 390 l 524 379 q 501 452 522 387 l 515 452 l 515 490 l 433 490 l 433 452 l 450 452 l 494 334 l 555 334 m 702 330 q 769 352 737 330 l 750 388 q 706 374 726 374 q 670 402 675 374 l 769 402 l 770 418 q 750 472 770 451 q 697 494 731 494 q 637 470 659 494 q 616 412 616 446 q 638 355 616 380 q 702 330 660 330 m 715 431 l 671 431 q 695 454 675 454 q 709 448 704 454 q 715 431 715 441 m 1016 334 l 1016 372 l 994 372 l 994 395 q 1038 441 994 441 l 1048 439 l 1048 493 q 992 454 1003 493 l 992 471 q 969 490 991 490 l 920 490 l 920 453 l 935 453 q 942 445 942 452 l 942 372 l 920 372 l 920 334 l 1016 334 m 877 334 l 877 372 l 856 372 l 856 395 q 899 441 856 441 l 909 439 l 909 493 q 852 454 865 493 l 852 471 q 831 490 852 490 l 782 490 l 782 453 l 796 453 q 802 445 802 452 l 802 372 l 782 372 l 782 334 l 877 334 m 1153 920 q 1350 444 1350 722 q 1152 -29 1350 168 q 678 -227 954 -227 q 207 -29 402 -227 q 7 444 12 168 q 204 918 7 719 q 678 1116 402 1116 q 1153 920 956 1116 m 679 1067 q 240 883 425 1067 q 56 444 56 699 q 243 6 61 189 q 679 -178 425 -178 q 1117 6 934 -178 q 1301 444 1301 189 q 1120 883 1301 701 q 679 1067 936 1067 z "},"":{"ha":1356,"x_min":7,"x_max":1350,"o":"m 680 70 q 418 178 526 70 q 311 439 311 286 q 418 700 311 592 q 680 808 526 808 q 941 700 833 808 q 1048 439 1048 592 q 941 178 1048 286 q 680 70 833 70 m 680 2 q 988 130 860 2 q 1116 439 1116 258 q 988 747 1116 619 q 680 876 860 876 l 668 876 q 365 742 487 867 q 243 439 243 616 q 371 130 243 258 q 680 2 499 2 m 680 595 q 635 613 654 595 q 616 658 616 632 q 635 703 616 684 q 680 721 654 721 q 724 703 705 721 q 743 658 743 684 q 724 613 743 632 q 680 595 705 595 m 745 157 l 614 157 l 614 366 l 574 366 l 574 541 q 606 576 574 576 l 753 576 q 785 541 785 576 l 785 366 l 745 366 l 745 157 m 1153 920 q 1350 444 1350 722 q 1152 -29 1350 168 q 678 -227 954 -227 q 207 -29 402 -227 q 7 444 12 168 q 204 918 7 719 q 678 1116 402 1116 q 1153 920 956 1116 m 679 1067 q 240 883 425 1067 q 56 444 56 699 q 243 6 61 189 q 679 -178 425 -178 q 1117 6 934 -178 q 1301 444 1301 189 q 1120 883 1301 701 q 679 1067 936 1067 z "},"":{"ha":1356,"x_min":7,"x_max":1350,"o":"m 983 100 q 997 107 991 100 q 1000 117 1000 111 q 696 819 998 123 q 681 829 691 829 q 665 819 671 829 q 361 116 361 120 q 363 107 361 112 q 377 100 369 100 l 647 100 l 647 248 l 574 298 l 586 315 l 647 273 l 647 391 l 715 391 l 715 313 l 778 345 l 787 327 l 715 290 l 715 233 l 830 291 l 839 272 l 715 210 l 715 100 l 983 100 m 1153 920 q 1350 444 1350 722 q 1152 -29 1350 168 q 678 -227 954 -227 q 207 -29 402 -227 q 7 444 12 168 q 204 918 7 719 q 678 1116 402 1116 q 1153 920 956 1116 m 679 1067 q 240 883 425 1067 q 56 444 56 699 q 243 6 61 189 q 679 -178 425 -178 q 1117 6 934 -178 q 1301 444 1301 189 q 1120 883 1301 701 q 679 1067 936 1067 z "},"":{"ha":1356,"x_min":7,"x_max":1350,"o":"m 509 189 q 706 282 625 189 q 708 287 708 284 l 707 290 q 670 367 673 367 q 665 363 667 367 q 509 269 606 269 q 385 321 437 269 q 333 446 333 372 q 385 569 333 518 q 509 621 437 621 q 669 516 614 621 l 759 313 q 928 192 808 192 q 1055 235 1005 192 q 1104 344 1104 279 q 1070 440 1104 409 q 972 491 1036 472 l 956 496 q 888 522 903 514 q 866 566 866 535 q 883 607 866 591 q 928 623 901 623 q 994 587 968 623 q 996 584 994 584 q 998 584 998 584 q 1028 599 1000 584 q 1058 616 1057 614 l 1057 621 q 930 696 1015 696 q 789 564 789 684 q 828 471 789 503 q 942 416 867 439 q 1004 390 984 404 q 1025 347 1025 377 q 998 291 1025 312 q 930 270 970 270 q 864 293 885 270 q 827 355 842 315 q 759 513 796 425 l 745 543 q 509 701 669 701 q 328 626 403 701 q 252 446 252 551 q 328 264 252 338 q 509 189 403 189 m 1153 920 q 1350 444 1350 722 q 1152 -29 1350 168 q 678 -227 954 -227 q 207 -29 402 -227 q 7 444 12 168 q 204 918 7 719 q 678 1116 402 1116 q 1153 920 956 1116 m 679 1067 q 240 883 425 1067 q 56 444 56 699 q 243 6 61 189 q 679 -178 425 -178 q 1117 6 934 -178 q 1301 444 1301 189 q 1120 883 1301 701 q 679 1067 936 1067 z "},"":{"ha":1356,"x_min":7,"x_max":1350,"o":"m 463 186 l 570 187 q 671 189 616 189 q 833 188 821 189 l 836 226 q 775 227 829 227 q 715 228 728 227 q 712 359 712 326 q 713 380 712 375 q 823 486 725 408 q 937 570 915 561 q 949 572 942 570 q 1018 574 957 574 l 1051 622 l 1051 622 l 1053 626 l 720 626 l 733 574 l 825 574 l 671 435 q 515 643 538 610 l 631 643 q 631 691 631 683 q 631 692 631 692 l 631 695 l 251 695 l 251 643 l 363 643 q 437 564 388 622 q 581 378 564 416 q 584 304 584 344 q 578 235 584 245 q 499 222 562 222 q 469 221 475 222 l 463 186 m 1044 279 l 1103 509 q 1072 511 1096 509 q 1023 515 1048 513 q 991 519 998 518 l 992 283 l 1044 279 m 1038 186 l 1045 241 q 983 246 1015 242 l 983 190 l 1038 186 m 1153 920 q 1350 444 1350 722 q 1152 -29 1350 168 q 678 -227 954 -227 q 207 -29 402 -227 q 7 444 12 168 q 204 918 7 719 q 678 1116 402 1116 q 1153 920 956 1116 m 679 1067 q 240 883 425 1067 q 56 444 56 699 q 243 6 61 189 q 679 -178 425 -178 q 1117 6 934 -178 q 1301 444 1301 189 q 1120 883 1301 701 q 679 1067 936 1067 z "},"":{"ha":1356,"x_min":7,"x_max":1350,"o":"m 566 167 l 641 427 q 608 447 626 437 q 500 475 563 475 l 486 475 q 355 442 416 467 l 281 186 q 420 218 363 218 q 566 167 513 218 m 763 87 q 912 123 823 87 l 983 370 q 845 343 903 343 q 685 395 743 343 l 612 140 q 636 126 613 140 q 695 100 660 113 q 763 87 730 87 m 655 486 l 730 742 q 680 768 730 745 q 582 790 634 790 q 445 758 526 790 l 372 504 q 514 536 455 536 q 655 486 601 530 m 861 402 q 1002 436 924 402 l 1076 690 q 934 657 994 657 q 777 709 838 657 l 702 452 q 703 452 703 452 l 703 451 q 861 402 765 402 m 1153 920 q 1350 444 1350 722 q 1152 -29 1350 168 q 678 -227 954 -227 q 207 -29 402 -227 q 7 444 12 168 q 204 918 7 719 q 678 1116 402 1116 q 1153 920 956 1116 m 679 1067 q 240 883 425 1067 q 56 444 56 699 q 243 6 61 189 q 679 -178 425 -178 q 1117 6 934 -178 q 1301 444 1301 189 q 1120 883 1301 701 q 679 1067 936 1067 z "},"":{"ha":1356,"x_min":7,"x_max":1350,"o":"m 1016 793 l 336 793 q 326 789 331 793 q 321 779 321 785 l 321 100 q 326 89 321 94 q 336 84 331 84 l 1016 84 q 1026 89 1021 84 q 1031 100 1031 94 l 1031 779 q 1026 789 1031 785 q 1016 793 1021 793 m 676 114 l 676 439 l 352 439 l 352 763 l 676 763 l 676 439 l 1000 439 l 1000 114 l 676 114 m 1153 920 q 1350 444 1350 722 q 1152 -29 1350 168 q 678 -227 954 -227 q 207 -29 402 -227 q 7 444 12 168 q 204 918 7 719 q 678 1116 402 1116 q 1153 920 956 1116 m 679 1067 q 240 883 425 1067 q 56 444 56 699 q 243 6 61 189 q 679 -178 425 -178 q 1117 6 934 -178 q 1301 444 1301 189 q 1120 883 1301 701 q 679 1067 936 1067 z "},"":{"ha":1356,"x_min":7,"x_max":1350,"o":"m 852 545 l 852 824 q 677 862 768 862 q 531 835 603 862 l 852 545 m 462 83 l 462 444 l 289 287 q 462 83 342 157 m 273 332 l 646 671 l 488 815 q 258 442 258 680 q 273 332 258 388 m 717 24 q 1056 259 947 52 l 506 259 l 506 59 q 640 24 570 31 l 717 24 m 1074 304 q 1098 442 1098 372 q 896 800 1098 661 l 896 304 l 1074 304 m 1153 920 q 1350 444 1350 722 q 1152 -29 1350 168 q 678 -227 954 -227 q 207 -29 402 -227 q 7 444 12 168 q 204 918 7 719 q 678 1116 402 1116 q 1153 920 956 1116 m 679 1067 q 240 883 425 1067 q 56 444 56 699 q 243 6 61 189 q 679 -178 425 -178 q 1117 6 934 -178 q 1301 444 1301 189 q 1120 883 1301 701 q 679 1067 936 1067 z "},"":{"ha":1356,"x_min":7,"x_max":1350,"o":"m 395 831 l 395 116 l 555 26 l 958 258 l 958 440 l 600 566 l 671 391 l 782 339 l 555 209 l 555 776 l 395 831 m 1153 920 q 1350 444 1350 722 q 1152 -29 1350 168 q 678 -227 954 -227 q 207 -29 402 -227 q 7 444 12 168 q 204 918 7 719 q 678 1116 402 1116 q 1153 920 956 1116 m 679 1067 q 240 883 425 1067 q 56 444 56 699 q 243 6 61 189 q 679 -178 425 -178 q 1117 6 934 -178 q 1301 444 1301 189 q 1120 883 1301 701 q 679 1067 936 1067 z "},"":{"ha":1356,"x_min":7,"x_max":1350,"o":"m 723 411 l 896 659 l 650 484 l 723 411 m 679 8 q 984 135 858 8 q 1111 441 1111 261 q 984 747 1111 620 q 679 874 858 874 q 372 747 499 874 q 245 441 245 620 q 372 135 245 261 q 679 8 499 8 m 429 180 q 420 186 420 180 q 629 490 420 190 q 780 597 631 491 q 933 703 929 703 q 941 695 941 703 q 732 392 941 692 q 581 285 730 391 q 429 180 431 180 m 1153 920 q 1350 444 1350 722 q 1152 -29 1350 168 q 678 -227 954 -227 q 207 -29 402 -227 q 7 444 12 168 q 204 918 7 719 q 678 1116 402 1116 q 1153 920 956 1116 m 679 1067 q 240 883 425 1067 q 56 444 56 699 q 243 6 61 189 q 679 -178 425 -178 q 1117 6 934 -178 q 1301 444 1301 189 q 1120 883 1301 701 q 679 1067 936 1067 z "},"":{"ha":1356,"x_min":7,"x_max":1350,"o":"m 678 848 q 404 741 518 848 q 275 472 290 633 l 566 472 l 566 543 q 570 551 566 548 q 578 554 573 554 l 772 554 q 780 551 777 554 q 783 543 783 548 l 783 349 q 780 341 783 344 q 772 338 777 338 l 578 338 q 570 341 573 338 q 566 349 566 344 l 566 419 l 275 419 q 403 150 289 258 q 678 42 517 42 q 963 160 845 42 q 1082 446 1082 278 q 963 730 1082 612 q 678 848 845 848 m 1153 920 q 1350 444 1350 722 q 1152 -29 1350 168 q 678 -227 954 -227 q 207 -29 402 -227 q 7 444 12 168 q 204 918 7 719 q 678 1116 402 1116 q 1153 920 956 1116 m 679 1067 q 240 883 425 1067 q 56 444 56 699 q 243 6 61 189 q 679 -178 425 -178 q 1117 6 934 -178 q 1301 444 1301 189 q 1120 883 1301 701 q 679 1067 936 1067 z "},"":{"ha":1356,"x_min":7,"x_max":1350,"o":"m 877 65 q 943 77 911 65 q 1048 211 1032 116 q 1051 240 1051 226 q 1029 327 1051 270 q 829 734 886 627 l 807 779 q 677 869 762 869 q 546 777 594 869 q 524 736 537 758 q 302 237 302 306 q 409 77 311 121 q 475 65 441 65 q 676 178 573 65 q 877 65 777 65 m 676 255 q 591 437 591 363 q 606 489 591 467 q 676 524 631 524 q 747 489 721 524 q 762 435 762 467 q 676 255 762 363 m 878 113 q 711 214 801 115 q 813 442 813 342 q 791 515 813 482 q 676 572 747 572 q 564 515 607 572 q 540 436 541 482 q 644 214 540 342 q 474 113 554 113 q 429 123 450 113 q 353 232 359 155 q 576 722 353 295 q 612 787 601 770 q 678 817 641 817 q 766 752 734 817 q 786 711 778 728 q 969 336 880 528 q 987 298 981 305 q 1000 238 1000 267 q 924 123 1000 157 q 878 113 903 113 m 1153 920 q 1350 444 1350 722 q 1152 -29 1350 168 q 678 -227 954 -227 q 207 -29 402 -227 q 7 444 12 168 q 204 918 7 719 q 678 1116 402 1116 q 1153 920 956 1116 m 679 1067 q 240 883 425 1067 q 56 444 56 699 q 243 6 61 189 q 679 -178 425 -178 q 1117 6 934 -178 q 1301 444 1301 189 q 1120 883 1301 701 q 679 1067 936 1067 z "},"":{"ha":1356,"x_min":7,"x_max":1350,"o":"m 866 504 q 922 673 903 608 q 941 764 941 739 q 924 815 941 795 q 879 833 907 833 q 741 603 821 833 q 724 555 730 571 q 703 616 717 576 q 571 848 623 848 q 522 829 541 848 q 505 774 505 808 q 524 683 505 749 q 587 496 544 618 q 561 508 572 505 q 540 512 549 512 q 490 486 517 512 q 464 435 464 460 q 468 414 464 427 q 479 382 471 401 q 415 346 436 372 q 395 272 395 320 q 414 189 395 230 q 475 112 434 148 q 557 60 509 79 q 658 41 607 41 q 873 130 789 41 q 957 359 957 218 q 936 462 957 429 q 866 504 916 494 m 469 278 q 464 269 466 275 q 463 259 463 265 q 498 192 463 227 q 570 158 534 158 q 608 173 592 158 q 623 208 623 188 q 623 217 623 212 q 621 230 623 223 q 631 227 626 228 q 640 225 635 225 q 649 228 646 225 q 658 233 653 230 l 658 228 q 673 156 658 183 q 711 127 687 129 l 712 132 l 712 136 q 703 168 712 143 q 694 212 694 194 q 714 275 694 243 q 768 334 735 309 q 814 357 783 345 q 852 377 842 368 q 845 395 850 389 q 833 399 841 399 l 810 399 q 674 416 716 399 q 632 472 632 434 q 640 494 632 488 q 668 500 648 500 q 806 486 740 500 q 895 452 871 471 q 912 420 907 442 q 918 361 918 399 q 844 159 918 239 q 664 79 772 79 q 557 102 605 79 q 475 169 508 126 q 442 225 454 197 q 431 277 431 254 q 448 325 431 304 q 483 346 464 346 q 507 334 492 346 q 544 292 522 320 q 574 248 563 268 q 585 220 585 229 q 577 206 585 213 q 557 200 569 200 q 490 250 528 200 q 469 278 477 269 m 635 265 q 601 283 623 265 q 555 334 579 301 q 518 390 531 363 q 504 431 504 417 q 518 458 504 443 q 544 473 532 473 q 574 458 557 473 q 607 416 590 445 q 646 340 629 379 q 661 292 661 302 q 652 273 661 281 q 635 265 644 265 m 690 532 q 657 535 667 534 q 644 536 647 536 q 627 534 633 536 q 617 525 621 531 q 559 690 578 627 q 540 779 540 753 q 547 803 540 794 q 566 812 555 812 q 593 791 581 812 q 629 706 607 772 l 690 532 m 753 364 q 721 340 736 354 q 693 310 707 327 q 682 345 688 328 q 666 380 675 363 q 707 370 686 373 q 753 364 728 366 m 826 514 l 755 526 l 812 686 q 847 769 831 743 q 879 795 863 795 q 897 786 891 795 q 905 761 905 777 q 884 680 905 746 q 826 514 863 614 m 1153 920 q 1350 444 1350 722 q 1152 -29 1350 168 q 678 -227 954 -227 q 207 -29 402 -227 q 7 444 12 168 q 204 918 7 719 q 678 1116 402 1116 q 1153 920 956 1116 m 679 1067 q 240 883 425 1067 q 56 444 56 699 q 243 6 61 189 q 679 -178 425 -178 q 1117 6 934 -178 q 1301 444 1301 189 q 1120 883 1301 701 q 679 1067 936 1067 z "},"":{"ha":1356,"x_min":7,"x_max":1350,"o":"m 376 244 q 488 302 463 302 l 570 290 l 569 320 q 642 485 569 420 q 836 564 723 564 q 789 682 831 633 q 552 797 701 797 q 281 604 339 797 q 271 537 271 570 q 380 348 271 428 q 395 322 393 336 q 390 304 395 317 q 382 274 385 290 q 376 244 380 257 m 452 564 q 418 597 418 565 q 454 631 420 631 q 488 595 488 629 q 452 564 486 564 m 671 564 q 635 597 637 564 q 670 631 635 629 q 704 597 703 630 q 671 564 703 564 m 1005 92 q 999 116 1005 108 q 994 134 994 125 q 1017 178 994 155 q 1085 328 1085 237 q 1042 447 1085 391 q 836 538 966 538 q 699 497 766 538 q 599 322 599 428 q 670 174 599 241 q 834 106 741 106 q 890 116 863 106 q 939 125 918 125 q 1005 92 980 116 m 732 357 q 706 393 706 357 q 732 414 706 414 q 760 385 760 414 q 732 357 760 357 m 909 357 q 881 385 881 359 q 909 414 881 413 q 937 385 937 413 q 909 357 935 359 m 1153 920 q 1350 444 1350 722 q 1152 -29 1350 168 q 678 -227 954 -227 q 207 -29 402 -227 q 7 444 12 168 q 204 918 7 719 q 678 1116 402 1116 q 1153 920 956 1116 m 679 1067 q 240 883 425 1067 q 56 444 56 699 q 243 6 61 189 q 679 -178 425 -178 q 1117 6 934 -178 q 1301 444 1301 189 q 1120 883 1301 701 q 679 1067 936 1067 z "},"":{"ha":1356,"x_min":7,"x_max":1350,"o":"m 678 859 q 449 764 544 859 q 355 535 355 669 q 422 298 355 414 q 568 106 490 182 q 678 30 646 30 q 789 106 711 30 q 935 298 867 182 q 1003 535 1003 414 q 908 764 1003 669 q 678 859 812 859 m 678 337 q 540 395 597 337 q 482 534 482 452 q 519 648 482 599 q 545 596 522 617 q 598 574 567 574 q 654 597 631 574 q 677 654 677 621 q 633 725 677 701 q 678 730 656 730 q 818 672 760 730 q 876 534 876 614 q 818 395 876 452 q 678 337 760 337 m 1153 920 q 1350 444 1350 722 q 1152 -29 1350 168 q 678 -227 954 -227 q 207 -29 402 -227 q 7 444 12 168 q 204 918 7 719 q 678 1116 402 1116 q 1153 920 956 1116 m 679 1067 q 240 883 425 1067 q 56 444 56 699 q 243 6 61 189 q 679 -178 425 -178 q 1117 6 934 -178 q 1301 444 1301 189 q 1120 883 1301 701 q 679 1067 936 1067 z "},"":{"ha":1356,"x_min":0,"x_max":0,"o":""},"":{"ha":1356,"x_min":7,"x_max":1350,"o":"m 662 566 l 605 566 l 605 448 l 656 448 q 726 459 707 448 q 746 512 746 469 q 730 556 746 547 q 662 566 714 566 m 909 822 l 444 822 q 334 776 379 822 q 288 667 288 730 l 288 201 q 334 91 288 136 q 444 45 379 45 l 909 45 q 1019 91 973 45 q 1065 201 1065 136 l 1065 667 q 1019 776 1065 730 q 909 822 973 822 m 683 378 l 605 378 l 605 232 l 522 232 l 522 635 l 673 635 q 784 617 736 635 q 831 509 831 598 q 787 401 831 423 q 683 378 743 378 m 1153 920 q 1350 444 1350 722 q 1152 -29 1350 168 q 678 -227 954 -227 q 207 -29 402 -227 q 7 444 12 168 q 204 918 7 719 q 678 1116 402 1116 q 1153 920 956 1116 m 679 1067 q 240 883 425 1067 q 56 444 56 699 q 243 6 61 189 q 679 -178 425 -178 q 1117 6 934 -178 q 1301 444 1301 189 q 1120 883 1301 701 q 679 1067 936 1067 z "},"":{"ha":1356,"x_min":0,"x_max":0,"o":""},"":{"ha":1356,"x_min":0,"x_max":0,"o":""},"":{"ha":1356,"x_min":0,"x_max":0,"o":""},"":{"ha":1356,"x_min":0,"x_max":0,"o":""},"":{"ha":1356,"x_min":0,"x_max":0,"o":""},"":{"ha":1356,"x_min":0,"x_max":0,"o":""},"":{"ha":1356,"x_min":0,"x_max":0,"o":""},"":{"ha":1356,"x_min":0,"x_max":0,"o":""},"":{"ha":1356,"x_min":0,"x_max":0,"o":""},"":{"ha":1632,"x_min":0,"x_max":0,"o":""},"":{"ha":1632,"x_min":0,"x_max":0,"o":""},"":{"ha":1044,"x_min":0,"x_max":0,"o":""},"":{"ha":1343,"x_min":0,"x_max":0,"o":""},"":{"ha":1356,"x_min":0,"x_max":0,"o":""},"":{"ha":1356,"x_min":0,"x_max":0,"o":""},"":{"ha":1356,"x_min":0,"x_max":0,"o":""},"":{"ha":1356,"x_min":0,"x_max":0,"o":""},"":{"ha":781,"x_min":0,"x_max":0,"o":""},"":{"ha":781,"x_min":0,"x_max":0,"o":""},"":{"ha":781,"x_min":0,"x_max":0,"o":""},"":{"ha":781,"x_min":0,"x_max":0,"o":""},"":{"ha":446,"x_min":0,"x_max":0,"o":""},"":{"ha":446,"x_min":0,"x_max":0,"o":""},"":{"ha":446,"x_min":0,"x_max":0,"o":""},"":{"ha":446,"x_min":0,"x_max":0,"o":""},"":{"ha":1029,"x_min":0,"x_max":0,"o":""},"":{"ha":1054,"x_min":0,"x_max":0,"o":""},"":{"ha":1095,"x_min":0,"x_max":0,"o":""},"":{"ha":1095,"x_min":0,"x_max":0,"o":""},"":{"ha":1095,"x_min":0,"x_max":0,"o":""},"":{"ha":1095,"x_min":0,"x_max":0,"o":""},"":{"ha":1095,"x_min":0,"x_max":0,"o":""},"":{"ha":688,"x_min":0,"x_max":0,"o":""},"":{"ha":1095,"x_min":0,"x_max":0,"o":""},"":{"ha":1018,"x_min":0,"x_max":0,"o":""},"":{"ha":1018,"x_min":0,"x_max":0,"o":""},"":{"ha":1018,"x_min":0,"x_max":0,"o":""},"":{"ha":1018,"x_min":0,"x_max":0,"o":""},"":{"ha":836,"x_min":0,"x_max":0,"o":""},"":{"ha":760,"x_min":0,"x_max":0,"o":""},"":{"ha":848,"x_min":0,"x_max":0,"o":""},"":{"ha":625,"x_min":0,"x_max":0,"o":""},"":{"ha":625,"x_min":0,"x_max":0,"o":""},"":{"ha":625,"x_min":0,"x_max":0,"o":""},"":{"ha":625,"x_min":0,"x_max":0,"o":""},"":{"ha":625,"x_min":0,"x_max":0,"o":""},"":{"ha":625,"x_min":0,"x_max":0,"o":""},"":{"ha":986,"x_min":0,"x_max":0,"o":""},"":{"ha":614,"x_min":0,"x_max":0,"o":""},"":{"ha":616,"x_min":0,"x_max":0,"o":""},"":{"ha":616,"x_min":0,"x_max":0,"o":""},"":{"ha":616,"x_min":0,"x_max":0,"o":""},"":{"ha":616,"x_min":0,"x_max":0,"o":""},"":{"ha":349,"x_min":0,"x_max":0,"o":""},"":{"ha":349,"x_min":0,"x_max":0,"o":""},"":{"ha":349,"x_min":0,"x_max":0,"o":""},"":{"ha":349,"x_min":0,"x_max":0,"o":""},"":{"ha":772,"x_min":0,"x_max":0,"o":""},"":{"ha":751,"x_min":0,"x_max":0,"o":""},"":{"ha":685,"x_min":0,"x_max":0,"o":""},"":{"ha":685,"x_min":0,"x_max":0,"o":""},"":{"ha":685,"x_min":0,"x_max":0,"o":""},"":{"ha":685,"x_min":0,"x_max":0,"o":""},"":{"ha":685,"x_min":0,"x_max":0,"o":""},"":{"ha":688,"x_min":0,"x_max":0,"o":""},"":{"ha":685,"x_min":0,"x_max":0,"o":""},"":{"ha":718,"x_min":0,"x_max":0,"o":""},"":{"ha":718,"x_min":0,"x_max":0,"o":""},"":{"ha":718,"x_min":0,"x_max":0,"o":""},"":{"ha":718,"x_min":0,"x_max":0,"o":""},"":{"ha":589,"x_min":0,"x_max":0,"o":""},"":{"ha":685,"x_min":0,"x_max":0,"o":""},"":{"ha":589,"x_min":0,"x_max":0,"o":""},"":{"ha":349,"x_min":0,"x_max":0,"o":""},"":{"ha":694,"x_min":0,"x_max":0,"o":""},"":{"ha":694,"x_min":0,"x_max":0,"o":""},"":{"ha":694,"x_min":0,"x_max":0,"o":""},"":{"ha":694,"x_min":0,"x_max":0,"o":""},"":{"ha":694,"x_min":0,"x_max":0,"o":""},"":{"ha":694,"x_min":0,"x_max":0,"o":""},"":{"ha":694,"x_min":0,"x_max":0,"o":""},"":{"ha":694,"x_min":0,"x_max":0,"o":""},"":{"ha":694,"x_min":0,"x_max":0,"o":""},"":{"ha":751,"x_min":0,"x_max":0,"o":""},"":{"ha":1389,"x_min":0,"x_max":0,"o":""},"":{"ha":378,"x_min":0,"x_max":0,"o":""},"":{"ha":378,"x_min":0,"x_max":0,"o":""},"":{"ha":1356,"x_min":0,"x_max":0,"o":""},"":{"ha":617,"x_min":0,"x_max":0,"o":""},"":{"ha":617,"x_min":0,"x_max":0,"o":""},"":{"ha":617,"x_min":0,"x_max":0,"o":""},"":{"ha":688,"x_min":0,"x_max":0,"o":""},"":{"ha":688,"x_min":0,"x_max":0,"o":""},"":{"ha":694,"x_min":0,"x_max":0,"o":""},"":{"ha":1389,"x_min":0,"x_max":0,"o":""},"":{"ha":428,"x_min":0,"x_max":0,"o":""},"":{"ha":428,"x_min":0,"x_max":0,"o":""},"":{"ha":1356,"x_min":0,"x_max":0,"o":""},"":{"ha":1356,"x_min":0,"x_max":0,"o":""},"":{"ha":1356,"x_min":0,"x_max":0,"o":""},"":{"ha":1356,"x_min":0,"x_max":0,"o":""},"":{"ha":688,"x_min":0,"x_max":0,"o":""},"":{"ha":1540,"x_min":0,"x_max":0,"o":""},"":{"ha":1015,"x_min":0,"x_max":0,"o":""},"":{"ha":688,"x_min":0,"x_max":0,"o":""},"":{"ha":733,"x_min":0,"x_max":0,"o":""},"":{"ha":1027,"x_min":0,"x_max":0,"o":""},"":{"ha":818,"x_min":0,"x_max":0,"o":""},"":{"ha":688,"x_min":0,"x_max":0,"o":""},"":{"ha":688,"x_min":0,"x_max":0,"o":""},"":{"ha":688,"x_min":0,"x_max":0,"o":""},"":{"ha":451,"x_min":0,"x_max":0,"o":""},"":{"ha":688,"x_min":0,"x_max":0,"o":""},"":{"ha":688,"x_min":0,"x_max":0,"o":""},"":{"ha":688,"x_min":0,"x_max":0,"o":""},"":{"ha":728,"x_min":0,"x_max":0,"o":""},"":{"ha":733,"x_min":0,"x_max":0,"o":""}}}
